<svg xmlns="http://www.w3.org/2000/svg" viewBox="0 0 95 95.27"><defs><style>.cls-1{fill:none;stroke:#f16162;stroke-miterlimit:10;}.cls-2{fill:#231f20;}.cls-3{fill:#141414;}.cls-4{fill:#2e2c2c;}.cls-5{fill:#53504f;}.cls-6{fill:#7f7c7c;}.cls-7{fill:#b5b3b3;}.cls-8{fill:#fff;}.cls-9{fill:#a41e21;}.cls-10{fill:#b24c3a;}.cls-11{fill:#c1715d;}.cls-12{fill:#d29885;}.cls-13{fill:#e5c6b9;}.cls-14{fill:#f16162;}.cls-15{fill:#f4817a;}.cls-16{fill:#f79e95;}.cls-17{fill:#fabdb3;}.cls-18{fill:#fddcd5;}.cls-19{fill:#ffcd05;}.cls-20{fill:#ffd54f;}.cls-21{fill:#ffde7f;}.cls-22{fill:#ffe8a7;}.cls-23{fill:#fff2d1;}</style></defs><title>color</title><g id="Layer_2" data-name="Layer 2"><g id="Color_Analysis_Icon" data-name="Color Analysis Icon"><polygon class="cls-1" points="94.29 47.63 47.5 94.56 0.71 47.63 47.5 0.71 94.29 47.63"/><path class="cls-2" d="M33.12,24.62,61.24,77l-15.3,8.27L17.82,32.89l15.3-8.27m.1-.34L17.48,32.79,45.83,85.57l15.74-8.51L33.22,24.28Z"/><polygon class="cls-3" points="38.44 33.99 22.69 42.49 17.49 32.81 33.23 24.3 38.44 33.99"/><polygon class="cls-4" points="43.64 43.67 27.9 52.18 22.69 42.49 38.44 33.99 43.64 43.67"/><polygon class="cls-5" points="48.85 53.36 33.1 61.87 27.9 52.18 43.64 43.67 48.85 53.36"/><polygon class="cls-6" points="54.05 63.05 38.31 71.56 33.1 61.87 48.85 53.36 54.05 63.05"/><polygon class="cls-7" points="58.88 72.04 43.13 80.54 37.93 70.86 53.67 62.35 58.88 72.04"/><polygon class="cls-8" points="61.58 77.06 45.83 85.56 43.13 80.54 58.88 72.04 61.58 77.06"/><path class="cls-2" d="M42.63,20.46,61.26,76.9l-16.5,5.48L26.13,25.94l16.5-5.48m.16-.32-17,5.64L44.6,82.69l17-5.64L42.79,20.15Z"/><path class="cls-8" d="M42.79,20.15,61.58,77.06l-17,5.64L25.81,25.78l17-5.64m.32-.63-.48.16-17,5.64-.47.16.16.47L44.12,82.85l.16.48.48-.16,17-5.64.47-.16-.16-.47L43.27,20l-.16-.48Z"/><polygon class="cls-9" points="46.24 30.61 29.27 36.25 25.82 25.8 42.8 20.16 46.24 30.61"/><polygon class="cls-10" points="49.69 41.06 32.72 46.7 29.27 36.25 46.24 30.61 49.69 41.06"/><polygon class="cls-11" points="53.14 51.51 36.16 57.14 32.72 46.7 49.69 41.06 53.14 51.51"/><polygon class="cls-12" points="56.59 61.95 39.61 67.59 36.16 57.14 53.14 51.51 56.59 61.95"/><polygon class="cls-13" points="59.79 71.64 42.81 77.28 39.36 66.83 56.34 61.2 59.79 71.64"/><polygon class="cls-8" points="61.58 77.06 44.6 82.69 42.81 77.28 59.79 71.64 61.58 77.06"/><path class="cls-2" d="M52.72,18l8.57,58.82-17.2,2.52L35.52,20.55,52.72,18m.21-.28-17.7,2.59,8.65,59.32,17.7-2.59L52.93,17.74Z"/><path class="cls-8" d="M52.93,17.74l8.65,59.32-17.7,2.59L35.23,20.33l17.7-2.59m.42-.57-.5.07-17.7,2.59-.49.07.07.49,8.65,59.32.07.5.5-.07,17.7-2.59.49-.07L62.07,77,53.43,17.67l-.07-.5Z"/><rect class="cls-14" x="35.84" y="19" width="17.98" height="11" transform="translate(-3.06 6.72) rotate(-8.29)"/><rect class="cls-15" x="37.42" y="29.89" width="17.98" height="11" transform="translate(-4.62 7.06) rotate(-8.29)"/><rect class="cls-16" x="39.01" y="40.78" width="17.98" height="11" transform="translate(-6.17 7.41) rotate(-8.29)"/><rect class="cls-17" x="40.6" y="51.67" width="17.98" height="11" transform="translate(-7.73 7.75) rotate(-8.29)"/><rect class="cls-18" x="41.97" y="61.76" width="18.08" height="11" transform="translate(-9.12 8.01) rotate(-8.25)"/><rect class="cls-8" x="43.37" y="72.68" width="17.89" height="5.7" transform="translate(-10.4 8.39) rotate(-8.34)"/><path class="cls-2" d="M48.86,16.12l17.33,1.42L61.35,76.79,44,75.36l4.84-59.25m-.23-.27L43.75,75.59l17.82,1.46,4.88-59.75L48.63,15.85Z"/><path class="cls-8" d="M48.63,15.85l17.82,1.46L61.58,77.06,43.75,75.59l4.88-59.75m-.46-.54,0,.5L43.25,75.55l0,.5.5,0,17.82,1.46.5,0,0-.5L67,17.35l0-.5-.5,0L48.67,15.35l-.5,0Z"/><rect class="cls-19" x="48.15" y="16.58" width="17.88" height="11" transform="translate(2 -4.6) rotate(4.7)"/><rect class="cls-20" x="47.26" y="27.55" width="17.88" height="11" transform="translate(2.9 -4.49) rotate(4.7)"/><rect class="cls-21" x="46.36" y="38.51" width="17.88" height="11" transform="translate(3.79 -4.38) rotate(4.7)"/><rect class="cls-22" x="45.47" y="49.48" width="17.88" height="11" transform="translate(4.69 -4.27) rotate(4.7)"/><rect class="cls-23" x="44.63" y="59.65" width="17.88" height="11" transform="translate(5.52 -4.17) rotate(4.7)"/><rect class="cls-8" x="43.95" y="70.63" width="17.88" height="5.7" transform="translate(6.2 -4.09) rotate(4.7)"/></g></g></svg>