<svg xmlns="http://www.w3.org/2000/svg" viewBox="0 0 95 95.01"><defs><style>.cls-1,.cls-14,.cls-18,.cls-6{fill:none;}.cls-1,.cls-6{stroke:#f16162;}.cls-1,.cls-12,.cls-16,.cls-18,.cls-3,.cls-6,.cls-7,.cls-9{stroke-miterlimit:10;}.cls-2,.cls-3{fill:#a51e22;}.cls-3,.cls-9{stroke:#000;}.cls-12,.cls-16,.cls-18,.cls-3,.cls-6,.cls-7,.cls-9{stroke-width:0.05px;}.cls-4{fill:#f9ef66;}.cls-5{fill:#a41e21;}.cls-12,.cls-7,.cls-8{fill:#fed099;}.cls-16,.cls-18,.cls-7{stroke:#a51e22;}.cls-11,.cls-9{fill:#f15f63;}.cls-10{fill:#fdc581;}.cls-12{stroke:#a41e21;}.cls-13{fill:#fff;}.cls-15{fill:#ffcd05;}.cls-16,.cls-17{fill:#0d0d0d;}.cls-18{stroke-linecap:round;}</style></defs><title>img-consultation</title><g id="Layer_2" data-name="Layer 2"><g id="img-consultation_icon" data-name="img-consultation icon"><rect class="cls-1" x="14.41" y="14.41" width="66.18" height="66.18" transform="translate(-19.68 47.5) rotate(-45)"/><g id="Shoes"><path class="cls-2" d="M44.28,83s-.66,1.43.82,4.43c.12.09,2.2-4,1.65-4.57l-.1.11a2.49,2.49,0,0,1-2.13.1Z"/><path class="cls-3" d="M45.21,87.33s1.54-2.52,1.56-3.44c0,0,3.86-.55,3.16-2.21,0,0,1,2.17.67,3.13,0,0,0,.29-.05.31a9.16,9.16,0,0,0-.16,2.65H50s.62-3,.1-2.92c-2.16.17-3.74,2.93-3.74,2.93L45,87.7Z"/><path class="cls-3" d="M44.6,86.41l-1.49,1.33h1.95A4.46,4.46,0,0,1,44.6,86.41Z"/></g><path d="M14.82,2.15a.18.18,0,0,1,.15-.3l1.6.26a.17.17,0,0,0,.18-.1L17.49.52a.17.17,0,0,1,.32.05l.25,1.66a.18.18,0,0,0,.14.15l1.6.26a.18.18,0,0,1,.05.34l-1.44.76a.18.18,0,0,0-.09.19l.25,1.66a.17.17,0,0,1-.29.15L17.13,4.55a.17.17,0,0,0-.2,0l-1.44.76A.18.18,0,0,1,15.26,5L16,3.54a.18.18,0,0,0,0-.21L14.82,2.15"/><path class="cls-4" d="M28.41,8.49a.45.45,0,0,1-.21-.05L16,3C19,4.09,28.77,7.7,28.82,7.81a.48.48,0,0,1,0,.46.46.46,0,0,1-.38.21Z"/><path class="cls-5" d="M16.06,3S28.75,7.71,28.8,7.82a.45.45,0,0,1-.39.64.42.42,0,0,1-.2,0L16.06,3m0-.05a.05.05,0,0,0,0,.1l12.15,5.4a.47.47,0,0,0,.22.05.48.48,0,0,0,.4-.23.5.5,0,0,0,0-.49c0-.11-7-2.69-12.77-4.84Z"/><path class="cls-4" d="M14.74,2.23a.18.18,0,0,1,.15-.3l1.6.26a.17.17,0,0,0,.18-.1L17.41.6a.17.17,0,0,1,.32.05L18,2.31a.18.18,0,0,0,.14.15l1.6.26a.18.18,0,0,1,.05.34l-1.44.76a.18.18,0,0,0-.09.19l.25,1.66a.17.17,0,0,1-.29.15L17.06,4.63a.17.17,0,0,0-.2,0l-1.44.76a.18.18,0,0,1-.23-.24l.74-1.49a.18.18,0,0,0,0-.21L14.74,2.23"/><path class="cls-6" d="M14.74,2.23a.18.18,0,0,1,.15-.3l1.6.26a.17.17,0,0,0,.18-.1L17.41.6a.17.17,0,0,1,.32.05L18,2.31a.18.18,0,0,0,.14.15l1.6.26a.18.18,0,0,1,.05.34l-1.44.76a.18.18,0,0,0-.09.19l.25,1.66a.17.17,0,0,1-.29.15L17.06,4.63a.17.17,0,0,0-.2,0l-1.44.76a.18.18,0,0,1-.23-.24l.74-1.49a.18.18,0,0,0,0-.21L14.74,2.23"/><path id="Wand_Hand" data-name="Wand Hand" class="cls-7" d="M40.84,18.29c-.29-.11,0,.09-2.45-2.85C38.06,15,32.29,4.7,31.07,3.22l-.36-.45c-.2-.27-.26-.27-.28-.08a.9.9,0,0,0,0,.21.82.82,0,0,0,.11.32l1.5,2.23c0,.12-.09.13-.18.07L29.73,2.71c-.05-.07-.26-.31-.35-.28s0,.45,0,.45l2.16,2.91c.08.23-.13.14-.16.11-.43-.47-2.17-1.83-2.57-2.26s-.49-.16-.5,0,.21.24.28.35l2.46,2.18a.08.08,0,0,1-.09.12l-1.59-.41c-.38-.1-1.76,1.33-1.76,1.33l.23.11c.33-.1.84-1.17,1.72-.77s1.1.22,1.08,1.34c0,.33-2,.52-2.14.49s-.7-.15-.87-.05,0,.13.19.23c.41.27,1.82.09,2.3.08A15,15,0,0,1,33.07,9c.32.08.44.26.6.65C34.23,11,37,16.84,37,16.86c1.45,2,3.36,4.61,3.54,5.07A5.72,5.72,0,0,1,40.84,18.29Z"/><path id="Legs" class="cls-8" d="M46.83,83.84a1.41,1.41,0,0,0,.05-.59l.05-.12a3.13,3.13,0,0,0,1-2.69L46.55,70.05h0l-.26,1.31c-.37,1.85.43,10.52.43,11.47s-2.38.22-2.38.22-.28.19.36-3.75c.67-4.11-.43-17.24-.79-19.61s.11-2.47.11-2.47c3.31,1.31,4.51.88,4.51.88s-.13.72-.42,2.18c.62,1.53.63,5.06.87,6.7l.52,12.4A8,8,0,0,0,50,81.92S50.49,83,46.83,83.84Z"/><path class="cls-2" d="M45.78,59.3c-.92,1-1.55.76-2,.25,0,0-3.31-18.26-1-23.45.46-1,6-8.56,6.83-4.22.06.34,2.13,3.35,2.3,3.65,0,0,.81,1.12,1.06,4.37A31.6,31.6,0,0,1,52.42,47c-.15.75-2.18,1.68-2.4,2.47l.27,4.52-1.88,5.48S46.92,58.11,45.78,59.3Z"/><g id="Bags_Back" data-name="Bags Back"><path class="cls-9" d="M51,49.21a1.92,1.92,0,0,0,2.16-.41l4.87,11-2.61,0-1.94.6Z"/><path d="M55.37,59.82l.42,0h1.86l.42,0-.42,0H55.79Z"/><line class="cls-10" x1="53.3" y1="48.63" x2="57.46" y2="58.1"/><path class="cls-3" d="M53.21,48.91l5,11.24,1.22-1.46,2.3-.07,3.93-7.26-7.26-7.56-3.86,5S53.75,49.29,53.21,48.91Z"/><path class="cls-4" d="M51.83,60.26l-1.51.08c0-.13-.09-10.07-.4-11.07h0c.06,0,.29.25.55.25h0c.21,0,.38-.15.52-.44L53.53,60.4l1.89-.61-1.72,1.3h0Z"/><path d="M51,49.09,53.5,60.4l1.93-.59-1.74,1.25-1.84-.82-1.52.07s-.06-10-.38-11.05a.83.83,0,0,0,.53.28c.18,0,.38-.11.55-.45m4.41,10.72h0M51,49a0,0,0,0,0,0,0c-.14.28-.31.42-.5.42a.79.79,0,0,1-.49-.26l0,0h0a0,0,0,0,0,0,.06c.31,1,.37,10.94.37,11a.05.05,0,0,0,0,0h0l1.51-.07,1.83.81h0l1.74-1.25a.05.05,0,0,0,0,0,0,0,0,0,0,0,0h0l-1.87.58L51.07,49.08a0,0,0,0,0,0,0Z"/><path class="cls-9" d="M49.95,49.26l5.34-5a1.31,1.31,0,0,0,.89-.08l-5.16,5S50.73,50.12,49.95,49.26Z"/><path class="cls-3" d="M53.21,48.91,57,44.37s-.72.06-.79-.17L51,49.27A2.17,2.17,0,0,0,53.21,48.91Z"/><path class="cls-4" d="M53.75,49.06a.85.85,0,0,1-.52-.16L57,44.31a.25.25,0,0,0,.24.1,2.51,2.51,0,0,0,1.16-.56,61.46,61.46,0,0,1-3.88,4.91,1.32,1.32,0,0,1-.79.3Z"/><path d="M58.19,44a44,44,0,0,1-3.67,4.7,1.3,1.3,0,0,1-.78.3.87.87,0,0,1-.46-.13L57,44.36a.43.43,0,0,0,.25.07,2,2,0,0,0,.93-.39m.22-.22a2.59,2.59,0,0,1-1.15.56.36.36,0,0,1-.26-.09l-3.79,4.62a.88.88,0,0,0,.54.17,1.34,1.34,0,0,0,.81-.31,50.14,50.14,0,0,0,3.86-5Z"/><path d="M54.67,48.67l1.14,1.56,2.46,3.45,2.46,3.45,1.09,1.58-1.14-1.56L58.22,53.7l-2.46-3.45Z"/><path class="cls-4" d="M54,49.06l.87,1.5,1.87,3.32,1.87,3.32.83,1.52-.87-1.5L56.7,53.89l-1.87-3.32Z"/><path d="M53.2,49,54,50.7l1.73,3.85,1.73,3.85.76,1.76-.81-1.74-1.73-3.85L54,50.72Z"/><path class="cls-2" d="M52.18,49.39,52.71,51l1.12,3.58,1.12,3.58.48,1.64-.53-1.62L53.78,54.6,52.66,51Z"/><path class="cls-11" d="M51.84,60.24l-.22-1.65-.43-3.64-.43-3.64-.17-1.66.22,1.65.43,3.64.43,3.64Z"/><path d="M51,49.27c.45,1.85.83,3.71,1.24,5.56l1.22,5.57,0,0,1.95-.57-1.93.62h0v0l-1.22-5.57C51.84,53,51.41,51.14,51,49.27Z"/><path d="M58,59.76l.18.41h0l1.21-1.48h2.37l3.86-7.33v0c-2.41-2.52-4.85-5-7.24-7.58,2.45,2.49,4.85,5,7.28,7.54h0v0l-3.86,7.33H59.46l-1.24,1.45h0Z"/><path d="M49.95,49.26c.21,1.83.25,3.68.31,5.52l.1,5.53,0,0,1.54-.07h0l1.82.83h0l1.75-1.24-1.74,1.26h0l-1.83-.81h0l-1.53.08a0,0,0,0,1,0,0h0c0-.93,0-1.84,0-2.77l0-2.76C50.18,52.94,50.14,51.09,49.95,49.26Z"/></g><path class="cls-12" d="M49.58,17.51c-.46-.64-.48-3.23-.41-4.19,0-.2.14,0,.14-.25,0-.06,0-.44.07-.21.12.42.54-.19.54-.19.77-1.44.39-1.73.21-2a.34.34,0,0,0-.23-.16.5.5,0,0,0-.53.27,9.46,9.46,0,0,0-.63,1.38v0a2.73,2.73,0,0,0-.06-.27,4.74,4.74,0,0,0-4.85-3.2c-.25,0-.56-1.45-.56-1.45a5.63,5.63,0,0,0-.79,3.41A4.47,4.47,0,0,0,42.73,12c.05.15-.1.61-.12,1.17a1.72,1.72,0,0,0,0,.26A2.76,2.76,0,0,0,43,14.52a17.61,17.61,0,0,0,1.52,2.25c.55.57,1.39,0,1.39,0l.15-.1c-.09,1.83-4.44,3.2-3.81,3.09,0,0,1,1.47,4.36,1.47,4.77,0,6.3-1.68,6.3-1.68S50.41,18.65,49.58,17.51Z"/><path id="Dress_Front" data-name="Dress Front" class="cls-2" d="M50,44.92c0-.5,3-1.31,3-1.77a21.45,21.45,0,0,0-1.06-7.63,9,9,0,0,1-.59-1.68c-.79-4.35,1.12-4.66,1.37-9.49,0-.1.12-.11.18,0a9.06,9.06,0,0,0,1,1.37,4.6,4.6,0,0,0,2.05-1.49s-.65-3.63-1.6-4.3a2.6,2.6,0,0,0-1.77-.48c-.59.95-2.22,2.05-5.9,1.74a5.32,5.32,0,0,1-3-2.12s-1.21.73-1.58.32-2-2-2-2a2.67,2.67,0,0,0-1.84,1.29,13,13,0,0,0,1.85,3c1.1,1,1.12,1.78.71,3.23-.3,1.06-1.12,3.13.68,4.38,1,.68,1.95,5.13,1.49,6.14-2.35,5.19.77,24.13.77,24.13.49.51,1.12.71,2-.25,1.14-1.18,2.63.13,2.63.13l1.74-5.28L44.89,45Z"/><path id="Bag_Hand_Back" data-name="Bag Hand Back" class="cls-13" d="M54.1,43.16c-.06.23-.4.09-.6,0l-.08-.24c0-.1.26-.27.26-.27S54.26,42.51,54.1,43.16Z"/><g id="Bag_Handles" data-name="Bag Handles"><path class="cls-11" d="M51.87,47.62a1.27,1.27,0,0,1,.26-.37,9.4,9.4,0,0,0,.7-1,2.09,2.09,0,0,0,.3-.73.56.56,0,0,0-.08-.41,3.76,3.76,0,0,1-.27-.37,1.11,1.11,0,0,1-.13-.93,1.62,1.62,0,0,1,.61-.77,4.06,4.06,0,0,1,.85-.5.76.76,0,0,1,.91.11.82.82,0,0,1,.18.85,5.6,5.6,0,0,1-.36.72c-.51.86-.89,1.39-.89,1.39h0s.38-.54.87-1.41a5.57,5.57,0,0,0,.35-.72.79.79,0,0,0-.17-.81.72.72,0,0,0-.86-.1,4,4,0,0,0-.85.49,1.59,1.59,0,0,0-.6.75,1.08,1.08,0,0,0,.12.91,3.74,3.74,0,0,0,.27.37.59.59,0,0,1,.09.43,2.11,2.11,0,0,1-.31.74,9.41,9.41,0,0,1-.71,1,1.28,1.28,0,0,0-.26.37Z"/><path class="cls-11" d="M52.22,47.94l.1-.05a.58.58,0,0,0,.16-.27,4.22,4.22,0,0,0,.12-1.13l0-1.61a7.38,7.38,0,0,1,0-.91,1.11,1.11,0,0,1,.46-.8,2.84,2.84,0,0,1,1.65-.78.68.68,0,0,1,.67.47,2.75,2.75,0,0,1,.14.75,2.87,2.87,0,0,1-.17,1.12,1.92,1.92,0,0,1-.19.39h0a1.92,1.92,0,0,0,.18-.39,2.85,2.85,0,0,0,.15-1.12,2.71,2.71,0,0,0-.15-.74.64.64,0,0,0-.62-.44,2.81,2.81,0,0,0-1.63.76,1.07,1.07,0,0,0-.45.77,7.35,7.35,0,0,0,0,.91c0,.59,0,1.14,0,1.61a4.23,4.23,0,0,1-.13,1.13.42.42,0,0,1-.26.32Z"/><path class="cls-11" d="M52.77,47.51s0,0-.06-.09a1.88,1.88,0,0,1,0-.32c0-.28,0-.68,0-1.16s0-1,.11-1.64a2.14,2.14,0,0,1,.24-.89,2.93,2.93,0,0,1,.71-.64,3,3,0,0,1,.87-.41.85.85,0,0,1,.89.16,1.31,1.31,0,0,1,.26.82,2.66,2.66,0,0,1-.12.77,4.13,4.13,0,0,1-.5,1,3.88,3.88,0,0,1-.26.35h0a3.86,3.86,0,0,0,.25-.36,4.1,4.1,0,0,0,.48-1,2.63,2.63,0,0,0,.1-.76,1.31,1.31,0,0,0-.25-.79.81.81,0,0,0-.84-.15,3,3,0,0,0-.85.4,2.91,2.91,0,0,0-.71.62,2.11,2.11,0,0,0-.24.88c-.08.59-.11,1.15-.12,1.63s0,.88,0,1.16a1.88,1.88,0,0,0,0,.32c0,.08.06.09.06.08Z"/><path class="cls-4" d="M54.05,47.88s0,0-.05-.1a2.79,2.79,0,0,1,0-.34l0-1.22c0-.25,0-.52,0-.81a2.57,2.57,0,0,0-.19-.87.64.64,0,0,0-.35-.3.67.67,0,0,1-.24-.43,1,1,0,0,1,.34-.92,1.33,1.33,0,0,1,1-.25,3.25,3.25,0,0,1,.94.24,1.94,1.94,0,0,1,.78.47,1.11,1.11,0,0,1,.19.78,3.5,3.5,0,0,1-.36,1.16,4.37,4.37,0,0,1-.22.41h0a4.34,4.34,0,0,0,.21-.41,3.48,3.48,0,0,0,.34-1.16,1.08,1.08,0,0,0-.19-.76,1.9,1.9,0,0,0-.77-.45,3.2,3.2,0,0,0-.93-.24,1.29,1.29,0,0,0-.93.23,1,1,0,0,0-.33.88.63.63,0,0,0,.22.41.67.67,0,0,1,.36.31,2.59,2.59,0,0,1,.19.89c0,.29,0,.56,0,.81l0,1.22a2.76,2.76,0,0,0,0,.34c0,.08,0,.1,0,.1Z"/><path class="cls-2" d="M54.32,47.55a.81.81,0,0,0,0-.38,1.05,1.05,0,0,0-.59-.76,1.17,1.17,0,0,1-.49-.47,2,2,0,0,1-.24-.72,4,4,0,0,1,.12-1.62,3,3,0,0,1,.14-.39c0-.12.14-.29.31-.25a1.43,1.43,0,0,1,.6.54c.31.42.58.83.83,1.16a2.35,2.35,0,0,0,.7.7.38.38,0,0,0,.36,0h0a.39.39,0,0,1-.37,0,2.37,2.37,0,0,1-.73-.69c-.26-.33-.52-.74-.83-1.16-.16-.19-.32-.45-.57-.53s-.22.11-.27.22a3,3,0,0,0-.15.39,3.52,3.52,0,0,0-.12,1.61,1.53,1.53,0,0,0,.71,1.16,1.08,1.08,0,0,1,.58.79.81.81,0,0,1,0,.38Z"/><path class="cls-4" d="M55.77,47.42a.81.81,0,0,0,0-.43,1,1,0,0,0-.23-.44,1.86,1.86,0,0,0-.53-.37,4.44,4.44,0,0,1-1.19-1.12,3.5,3.5,0,0,1-.46-.8,1.51,1.51,0,0,1-.12-.93.63.63,0,0,1,.26-.4.68.68,0,0,1,.47-.06,3,3,0,0,1,.85.35,9.81,9.81,0,0,1,1.33,1c.73.62,1.18,1.07,1.18,1.07h0s-.46-.45-1.2-1a11.9,11.9,0,0,0-1.33-.94,3,3,0,0,0-.84-.35.64.64,0,0,0-.44.05.6.6,0,0,0-.25.37,1.49,1.49,0,0,0,.1.92,3.35,3.35,0,0,0,.47.78,5,5,0,0,0,1.18,1.1,1.9,1.9,0,0,1,.52.39,1,1,0,0,1,.22.45.81.81,0,0,1,0,.44Z"/></g><path class="cls-14" d="M52.64,25c0-1.4.43-.33.52-.21a6.06,6.06,0,0,0,1.23.76s1.52-1.07,1.52-1.34a11.54,11.54,0,0,0-1.25-3.91,2.42,2.42,0,0,0-2.08-.89"/><g id="Necklac"><path class="cls-15" d="M47.57,20.27a2.66,2.66,0,0,1-2.47-2.2,2.82,2.82,0,0,0,2.47,1.07,4.16,4.16,0,0,0,2.27-1.07l.11-.07a2.16,2.16,0,0,1-.76,1.48A2.49,2.49,0,0,1,47.57,20.27Z"/><path class="cls-5" d="M49.95,18h0a2.82,2.82,0,0,1-2.37,2.23,2.65,2.65,0,0,1-2.44-2.18,2.56,2.56,0,0,0,2.44,1.09A5,5,0,0,0,49.95,18m0-.05s0,0-.12.08a4.13,4.13,0,0,1-2.25,1.07A2.54,2.54,0,0,1,45.18,18a.05.05,0,0,0,0,0h0a0,0,0,0,0,0,0,2.69,2.69,0,0,0,2.49,2.23A2.85,2.85,0,0,0,50,18a.05.05,0,0,0-.05-.05Z"/></g><g id="Hair"><path class="cls-16" d="M43.06,7.39a4,4,0,0,0-.6,2,3,3,0,0,1,1.38-.66S42.76,8.13,43.06,7.39Z"/><path class="cls-16" d="M51.11,22.07a18.64,18.64,0,0,0,.48-4.61c0-1.66-1.32-5.33-.87-7.69a18.45,18.45,0,0,0,.1-3.36c-.51-2.52-1.51-1.32-1.54-1.3-.4.29-1.18.8-1.18.8h0C45.71,4.87,45.2,5,43.3,7a1,1,0,0,0,.35,1.62.63.63,0,0,0,.35.07,4.77,4.77,0,0,1,3.32,1.17,8.21,8.21,0,0,1,1.46,3.34A20.36,20.36,0,0,1,49.3,11a.51.51,0,0,1,.88-.15c.18.39-.3,1.76-.75,1.86-.06,0-.16-.28-.16-.22s-.22.71-.23,1.12a24.7,24.7,0,0,1-2.41,10A19.07,19.07,0,0,0,45,27.75c-.69,2.7.21,3,.26,3.13,1.35,1.12.43-1.83,5.59-.8a.21.21,0,0,0,.22-.32c-1.52-2.56-1.5-3-1-4.56A19.7,19.7,0,0,0,51.11,22.07Z"/></g><g id="Face"><path d="M44.91,11.44s0-.09.07-.11a2.45,2.45,0,0,1,2.13-.2c0,.08-1.24-.37-2,.41C45,11.57,44.91,11.44,44.91,11.44Z"/><path d="M43.95,11.29a2.65,2.65,0,0,0-1.63-.18,2,2,0,0,1,1.57.4C43.94,11.56,44,11.3,43.95,11.29Z"/><path class="cls-2" d="M44.39,12.29s0,.44-.11.87l0,.16c0,.06-.07.1-.07.14a.19.19,0,0,0,.1.22.35.35,0,0,0,.26,0,.36.36,0,0,1-.27,0,.21.21,0,0,1-.13-.24c0-.07.06-.09.07-.14l0-.16C44.33,12.73,44.39,12.29,44.39,12.29Z"/><path class="cls-2" d="M43.8,14.73s.46-.21.66,0l.05.07a.05.05,0,0,0,.08,0l.08-.09s.1-.11.83.08a1.85,1.85,0,0,0,.63,0s-.86.74-1.08.74l-.16,0a1.27,1.27,0,0,0-.45,0h0S43.94,15.55,43.8,14.73Z"/><path class="cls-2" d="M45.94,16.72a13.94,13.94,0,0,0,1.47-1.13,5.55,5.55,0,0,0,.87-.93,1.18,1.18,0,0,0,.19-.38.62.62,0,0,0,0-.16.62.62,0,0,1,0,.16,1.19,1.19,0,0,1-.18.38,5.56,5.56,0,0,1-.86.95A14,14,0,0,1,46,16.76Z"/></g><g id="Pop_Lines" data-name="Pop Lines"><path class="cls-2" d="M48.31,59.35s-.08.36-.18,1L47.72,63c-.35,2.2-.76,5.14-1.29,8.07a9.75,9.75,0,0,0-.17,2.2c0,.73,0,1.45,0,2.15,0,1.39.14,2.69.21,3.8l.27,3.7h0l-.3-3.7c-.08-1.11-.18-2.41-.22-3.8,0-.7,0-1.42,0-2.15a9.72,9.72,0,0,1,.17-2.21c.53-2.92,1-5.86,1.31-8.06l.42-2.66c.1-.64.18-1,.18-1Z"/><path class="cls-2" d="M46.75,82.9a1,1,0,0,1,.07.61,4.4,4.4,0,0,1-.12.61,11.53,11.53,0,0,1-.39,1.18,14.54,14.54,0,0,1-1.07,2.24.49.49,0,0,1-.1.12c-.07,0-.07-.08-.1-.11l-.12-.28c-.08-.19-.15-.39-.22-.58-.14-.39-.26-.79-.36-1.19a8.06,8.06,0,0,1-.22-1.22A2.29,2.29,0,0,1,44.27,83h0l.34-2.9.17-1.45c.05-.48.07-1,.08-1.46,0-1.95,0-3.9-.13-5.84s-.19-3.89-.31-5.84l-.21-2.91c-.08-1-.16-1.94-.31-2.9h0c.16,1,.24,1.93.33,2.9l.22,2.91q.2,2.92.32,5.84c.08,1.95.14,3.89.12,5.84,0,.49,0,1-.09,1.46l-.17,1.45L44.3,83h0a2.27,2.27,0,0,0-.15,1.21,8.08,8.08,0,0,0,.21,1.22c.1.4.22.8.35,1.19.07.2.14.39.22.58l.12.28s0,.12.08.1a.5.5,0,0,0,.1-.11,14.53,14.53,0,0,0,1.07-2.24,11.49,11.49,0,0,0,.4-1.18,4.36,4.36,0,0,0,.12-.61,1,1,0,0,0-.07-.6Z"/><path class="cls-2" d="M46.85,83.14a4.87,4.87,0,0,0,.39-.42,3.16,3.16,0,0,0,.71-1.3,4.51,4.51,0,0,0,0-1l-.12-1.11-.31-2.41-.91-6.57h0s.53,3.27.95,6.56l.3,2.42.12,1.11a4.44,4.44,0,0,1,0,1,3.17,3.17,0,0,1-.72,1.3,4.87,4.87,0,0,1-.39.42Z"/><path class="cls-2" d="M49.89,81.72a1.16,1.16,0,0,1-.08-.23c0-.15-.08-.38-.13-.67-.09-.58-.17-1.42-.24-2.42-.15-2-.16-4.7-.26-7.38s-.24-5.37-.45-7.37c-.1-1-.22-1.83-.33-2.41a4.74,4.74,0,0,0-.17-.66,1,1,0,0,0-.1-.22,1,1,0,0,1,.1.22,4.73,4.73,0,0,1,.17.66c.12.58.24,1.41.34,2.41.21,2,.38,4.69.48,7.37s.09,5.37.23,7.38c.06,1,.14,1.84.23,2.42,0,.29.09.52.13.67A1.16,1.16,0,0,0,49.89,81.72Z"/></g><path d="M46.78,82.9a.66.66,0,0,1,.09.41,4.5,4.5,0,0,1-.23,1.1,15,15,0,0,1-.56,1.49,12.43,12.43,0,0,1-.83,1.63l-.07.09s0,0-.08,0,0,0,0-.05l-.1-.21L44.77,87c-.11-.29-.21-.57-.3-.85a10.47,10.47,0,0,1-.37-1.55,3.58,3.58,0,0,1,0-1.13,1.49,1.49,0,0,1,.13-.41,1.48,1.48,0,0,0-.13.41,3.57,3.57,0,0,0,0,1.12,10.45,10.45,0,0,0,.39,1.54c.09.28.19.56.3.85l.18.43.1.2c0,.1.06,0,.11-.07A12.43,12.43,0,0,0,46,85.9a15,15,0,0,0,.58-1.49,4.49,4.49,0,0,0,.24-1.1A.66.66,0,0,0,46.78,82.9Z"/><path d="M38.25,18.65a1.13,1.13,0,0,0,.14.34l.18.33L39,20l.79,1.27h0l.6.67a2.31,2.31,0,0,1,.5.74,3,3,0,0,1,.1,1.77c-.14.58-.36,1.14-.49,1.73a2.76,2.76,0,0,0,0,1.76,4.3,4.3,0,0,0,1.06,1.43,3.36,3.36,0,0,1,.87,1.55,12.5,12.5,0,0,1,.45,1.74l.3,1.77h0a4.63,4.63,0,0,1-.36,1.54c-.17.5-.3,1-.42,1.53A14.76,14.76,0,0,0,42,40.6c-.05,2.12,0,4.23.2,6.34.31,4.22.87,8.42,1.53,12.61h0a1.15,1.15,0,0,0,1.17.35c.43-.12.69-.51,1.05-.76a1.53,1.53,0,0,1,1.26-.29,3.65,3.65,0,0,1,1.19.58h0a5.3,5.3,0,0,1,.2-.6l.21-.62L49.25,57c.28-.83.54-1.66.84-2.49a2.26,2.26,0,0,0,.11-.3c0-.11,0-.22,0-.33v-.65l-.05-1.31-.08-1.31L50,49.92a4.33,4.33,0,0,0-.09-.64v0h0l2.47-2.35h0L53,43.24h0l0-1.14A10.81,10.81,0,0,0,53,41c0-.38,0-.76,0-1.14a10.91,10.91,0,0,0-.09-1.13,8.51,8.51,0,0,0-.59-2.19q-.4-1.07-.82-2.12h0a11.85,11.85,0,0,1-.31-3,4.44,4.44,0,0,1,.3-1.49q.26-.72.49-1.44a15.33,15.33,0,0,0,.68-3c0-.25,0-.51,0-.76a.78.78,0,0,1,.08-.38c.05-.07.14,0,.18,0a1.05,1.05,0,0,1,.12.15,10.23,10.23,0,0,0,.9,1.22h0a15.94,15.94,0,0,0,1.85-1.29.52.52,0,0,0,.16-.21,2.57,2.57,0,0,0,0-.28l-.11-.55c-.08-.37-.17-.73-.27-1.09a6.58,6.58,0,0,0-.89-2.06,2.35,2.35,0,0,0-2-.81h0a5.93,5.93,0,0,1-2.05,1.49,5.05,5.05,0,0,1-1.25.25,12.51,12.51,0,0,1-1.27.08,7.25,7.25,0,0,1-1.27-.09,3.31,3.31,0,0,1-1.19-.44,8,8,0,0,1-1.09-.67,2.7,2.7,0,0,1-.78-1h0a2.55,2.55,0,0,1-1,.46,1.29,1.29,0,0,1-.54-.16,4.05,4.05,0,0,1-.42-.39l-1.62-1.61h0A2.5,2.5,0,0,0,38.25,18.65Zm0,0a2.51,2.51,0,0,1,1.84-1.29h0L41.7,19a4.06,4.06,0,0,0,.42.39,1.28,1.28,0,0,0,.54.16,2.54,2.54,0,0,0,1-.46h0a2.69,2.69,0,0,0,.78,1,8,8,0,0,0,1.09.67,3.3,3.3,0,0,0,1.19.44,7.24,7.24,0,0,0,1.27.09,12.49,12.49,0,0,0,1.27-.08,5,5,0,0,0,1.25-.25,5.91,5.91,0,0,0,2-1.49h0a2.37,2.37,0,0,1,2,.82,6.6,6.6,0,0,1,.9,2.06c.1.36.2.73.28,1.1l.11.55a2.57,2.57,0,0,1,0,.28.5.5,0,0,1-.17.23,16,16,0,0,1-1.85,1.3h0A10.25,10.25,0,0,1,53,24.52c-.06-.08-.16-.27-.25-.19a.78.78,0,0,0-.07.36c0,.25,0,.51,0,.76a15.34,15.34,0,0,1-.68,3q-.23.73-.49,1.45a4.41,4.41,0,0,0-.3,1.48,11.83,11.83,0,0,0,.31,3h0q.43,1.05.83,2.12a8.55,8.55,0,0,1,.59,2.19A11,11,0,0,1,53,39.83c0,.38,0,.76,0,1.14a10.79,10.79,0,0,1,0,1.14l0,1.14h0l-.55,3.68h0L50,49.28v0a3.74,3.74,0,0,1,.09.66l.05.65.08,1.31.05,1.31v.66c0,.11,0,.22,0,.33a2.17,2.17,0,0,1-.11.31c-.29.82-.56,1.65-.84,2.48l-.41,1.24-.21.62a2,2,0,0,1-.27.62h0a3.61,3.61,0,0,0-1.17-.57,1.49,1.49,0,0,0-1.23.28c-.36.24-.62.64-1.07.76a1.2,1.2,0,0,1-1.22-.37h0c-.66-4.18-1.22-8.38-1.53-12.61-.15-2.11-.25-4.23-.19-6.35a14.8,14.8,0,0,1,.34-3.15c.12-.52.25-1,.42-1.53a4.6,4.6,0,0,0,.36-1.53h0l-.3-1.77a12.49,12.49,0,0,0-.44-1.73,3.33,3.33,0,0,0-.86-1.54,4.32,4.32,0,0,1-1.06-1.43,2.78,2.78,0,0,1,0-1.77c.13-.59.35-1.14.49-1.73a2.94,2.94,0,0,0-.1-1.76,2.3,2.3,0,0,0-.49-.74l-.6-.67h0L38.95,20l-.38-.64L38.38,19A1.12,1.12,0,0,1,38.24,18.65Z"/><path class="cls-7" d="M53.86,25.71s1.79-1.19,2-1.44c.2.75,1.3,7.37,1.27,7.53h0a1.26,1.26,0,0,1-.09.27c-.4.88-2.66,6-2.73,7.37a6.66,6.66,0,0,0,0,.67A6.38,6.38,0,0,0,55,41.9c.35.61.83,1.4.27,1.81a3.12,3.12,0,0,1-1.81.39c-.16-.09-.15-.58-.11-.72v0a.19.19,0,0,0-.28-.19l-.34.17c0,.1.25-3.22.28-3.34s.09-.36.13-.53c.28-1.36,1.48-7.06,2.17-7.85A46.43,46.43,0,0,0,53.9,25.7"/><path class="cls-17" d="M53.86,25.71s.57-.31,1.1-.67a5,5,0,0,0,.72-.52.89.89,0,0,0,.25-.31.9.9,0,0,1-.24.33,5,5,0,0,1-.7.55C54.44,25.42,53.86,25.71,53.86,25.71Z"/><line class="cls-18" x1="35.91" y1="87.82" x2="56.65" y2="87.82"/></g></g></svg>