<svg xmlns="http://www.w3.org/2000/svg" viewBox="0 0 95 95.27"><defs><style>.cls-1{fill:none;stroke:#f16162;}.cls-1,.cls-2,.cls-3{stroke-miterlimit:10;}.cls-2,.cls-3{stroke:#fff;stroke-width:0.5px;}.cls-3{fill:#ffcd05;}.cls-4{fill:#f16162;}</style></defs><title>makeup-icon</title><g id="Layer_2" data-name="Layer 2"><g id="Makeup_Icon" data-name="Makeup Icon"><polygon class="cls-1" points="94.29 47.63 47.5 94.56 0.71 47.63 47.5 0.71 94.29 47.63"/><path class="cls-2" d="M50.73,47.6s-2.15,1-2.19,1.93,7,26,7,26,7.63,1.85,8.27,1.63a15.27,15.27,0,0,0,5.88-5.66L62.84,45.33a6.9,6.9,0,0,0-3-.14l-4.17,3.14-4.67,0Z"/><path class="cls-2" d="M41.36,28.89A6.11,6.11,0,0,0,39,27.79c-.9,0-26,7.06-26,7.06s-1.84,7.66-1.62,8.3A15.28,15.28,0,0,0,17.09,49l26.14-6.91s1.8-2.53,1.45-3.74l-.75-5.49Z"/><path class="cls-3" d="M47.38,30.82l.34.81a.32.32,0,0,0,.31.19c1.39.1,6.85-.91,6.1-2.67,0,0,1.15-.45,1.43.26S60,46,60,46,56.91,49.53,51,48.27L46.47,32a.72.72,0,0,1,.16-.68A1.55,1.55,0,0,1,47.38,30.82Z"/><path class="cls-4" d="M46.08,21.22s-1.1.19-.87,2.31c.21,1.91,2.13,7,2.51,8a.24.24,0,0,0,.25.16c1-.07,6-.53,6.11-2.38L52.44,24.7a7.75,7.75,0,0,0-4-3.37A3,3,0,0,0,46.08,21.22Z"/></g></g></svg>