<svg xmlns="http://www.w3.org/2000/svg" viewBox="0 0 95 95.01"><defs><style>.cls-1{fill:none;stroke:#f16162;}.cls-1,.cls-2,.cls-4{stroke-miterlimit:10;}.cls-2,.cls-7{fill:#f15f63;}.cls-2,.cls-4{stroke:#fff;stroke-width:0.25px;}.cls-3{fill:#fdc581;}.cls-4,.cls-8{fill:#a51e22;}.cls-5{fill:#f9ef66;}.cls-6{fill:#fff;}</style></defs><title>shopping-icon</title><g id="Layer_2" data-name="Layer 2"><g id="Personal_Shopping_Icon" data-name="Personal Shopping Icon"><rect class="cls-1" x="14.41" y="14.41" width="66.18" height="66.18" transform="translate(-19.68 47.5) rotate(-45)"/><g id="Bags_Back" data-name="Bags Back"><path class="cls-2" d="M32.67,31.91s3.07,2.84,7.75.41l7.43,41.75-9-2.12-7.16.41Z"/><line class="cls-3" x1="41" y1="31.85" x2="47.26" y2="67.82"/><path class="cls-4" d="M40.45,32.73l7.69,42.78,5.42-4,7.95,1.7L81.1,51.69l-18.51-32L45.16,33.39S42,34.49,40.45,32.73Z"/><path class="cls-5" d="M31.83,74.89a.12.12,0,0,1-.08,0L26.13,70.5l-5.23-1a.13.13,0,0,1-.08-.06.12.12,0,0,1,0-.1c.08-.34,8.25-34.48,8-38.17a.13.13,0,0,1,.09-.13h0a.13.13,0,0,1,.11.07s.73,1.37,1.85,1.37h0a2.48,2.48,0,0,0,1.79-1.08.13.13,0,0,1,.1,0h0a.13.13,0,0,1,.08.12l-1,40.74,7-.4a.13.13,0,0,1,0,.24l-7,2.82Z"/><path class="cls-6" d="M29,31.16s.75,1.44,2,1.44a2.56,2.56,0,0,0,1.88-1.13l-1,40.88,7.1-.41-7,2.82L26.21,70.4l-5.28-1s8.26-34.45,8-38.21m3.84.31h0m6.06,40.47h0M29,30.91H28.9a.25.25,0,0,0-.18.26c.22,3.68-7.94,37.79-8,38.14a.25.25,0,0,0,.2.3l5.22,1L31.68,75a.25.25,0,0,0,.15.05l.09,0,7-2.82a.25.25,0,0,0,.17-.24.25.25,0,0,0-.25-.25h0l-6.83.4,1-40.57a.24.24,0,0,0,0,0,.25.25,0,0,0-.25-.25h0a.25.25,0,0,0-.13,0l0,0h0a2.37,2.37,0,0,1-1.69,1c-1,0-1.73-1.29-1.74-1.3a.25.25,0,0,0-.22-.13Z"/><path class="cls-5" d="M31.09,33.16c-.79,0-1.54-.65-2.24-1.94a.13.13,0,0,1,0-.17L51.38,18.57l.06,0,.06,0a5.49,5.49,0,0,0,2.23.61,2.36,2.36,0,0,0,.79-.13h0a.13.13,0,0,1,.06.23L32.7,32.15A2.14,2.14,0,0,1,31.09,33.16Z"/><path class="cls-6" d="M51.44,18.68a5.58,5.58,0,0,0,2.29.62,2.48,2.48,0,0,0,.83-.13L32.63,32a2.15,2.15,0,0,1-1.55,1c-.61,0-1.35-.43-2.12-1.87L51.44,18.68m0-.25a.25.25,0,0,0-.12,0L28.84,30.94a.25.25,0,0,0-.1.34c.72,1.33,1.51,2,2.34,2a2.32,2.32,0,0,0,1.72-1.05L54.7,19.38a.25.25,0,0,0-.13-.47h-.08a2.23,2.23,0,0,1-.75.12,5.36,5.36,0,0,1-2.18-.59.25.25,0,0,0-.12,0Z"/><path class="cls-2" d="M40.45,32.73,57.2,20.32s-2.51-.4-2.56-1.23l-22,13A7.67,7.67,0,0,0,40.45,32.73Z"/><path class="cls-4" d="M40.45,32.73s1.48,2,4.71.66S62.58,19.64,62.58,19.64s-4.2,2-5.23.43Z"/><path class="cls-6" d="M45.65,33.13s.24.64.7,1.73,1.15,2.65,1.88,4.55l5.51,13.89L59.28,67.2c.77,1.89,1.32,3.5,1.75,4.61l.65,1.75L61,71.83c-.45-1.1-1.16-2.65-1.9-4.54L53.51,53.4,48,39.51c-.77-1.89-1.31-3.5-1.73-4.62S45.65,33.13,45.65,33.13Z"/><path class="cls-6" d="M43,33.88l.47,1.61c.29,1,.79,2.48,1.26,4.25l3.61,12.95L52,65.63c.51,1.76.84,3.25,1.12,4.29l.41,1.63-.5-1.61c-.3-1-.8-2.47-1.28-4.24L48.15,52.76,44.54,39.81c-.51-1.76-.83-3.26-1.1-4.29Z"/><path class="cls-6" d="M40.36,32.86l.38,1.83c.23,1.16.62,2.82,1,4.82l2.67,14.66L47,68.83c.38,2,.6,3.67.8,4.84l.29,1.84-.38-1.83c-.23-1.16-.61-2.82-1-4.82L44.12,54.2,41.45,39.54c-.38-2-.6-3.67-.8-4.84Z"/><path class="cls-6" d="M36.52,33.48l.14,1.65c.08,1.05.26,2.55.35,4.35l.81,13.22.81,13.22c.13,1.8.13,3.31.18,4.36l.06,1.66-.14-1.65c-.08-1.05-.25-2.55-.35-4.35l-.81-13.22-.81-13.22c-.13-1.8-.13-3.31-.18-4.36Z"/><path class="cls-6" d="M26.21,70.4l.15-1.61c.11-1,.2-2.5.44-4.25l1.58-12.85L30,38.84c.2-1.75.47-3.2.62-4.22l.26-1.6-.17,1.61c-.12,1-.22,2.49-.45,4.24L28.63,51.72,27.05,64.58c-.2,1.76-.46,3.21-.6,4.23Z"/><path class="cls-6" d="M32.74,32.14l0,5c0,1.68-.08,3.35-.11,5l-.26,10.05-.52,20.11-.13-.13c1.19-.08,2.39-.12,3.58-.16l3.58-.13-3.58.28c-1.19.1-2.38.2-3.58.25h-.14v-.13l.52-20.11.26-10.06c.05-1.68.07-3.35.15-5Z"/><path class="cls-6" d="M47.86,74l.27,1.54h0l5.38-4.06,0,0h0c2.72.62,5.42,1.32,8.14,2l-.12,0L81,51.6v.15l-9.26-16-4.62-8-4.53-8.07,4.73,8,4.64,8,9.26,16,0,.08-.06.07L61.78,73.64l-.05.06-.07,0c-2.71-.68-5.43-1.31-8.13-2l.08,0-5.48,3.92,0,0v0Z"/><path class="cls-6" d="M29,31.16c-.2,1.62-.44,3.22-.7,4.83s-.56,3.21-.87,4.8q-.94,4.79-2,9.56l-2.15,9.53-1.11,4.76L21.58,67c-.18.79-.38,1.59-.53,2.37l-.1-.14,5.32,1.06,0,0,5.56,4.37H31.8l7.06-2.75-7,2.89a.07.07,0,0,1-.07,0l-5.59-4.33,0,0-5.33-1a.12.12,0,0,1-.1-.14c.15-.82.35-1.6.53-2.39l.56-2.38L23,59.84l2.19-9.51q1.07-4.76,2-9.55c.33-1.59.63-3.19.93-4.79S28.74,32.78,29,31.16Z"/></g><g id="Bag_Handles" data-name="Bag Handles"><path class="cls-7" d="M36.95,27.15s.06-.15.27-.32.52-.43.93-.75a33.39,33.39,0,0,0,3.22-2.74A7.49,7.49,0,0,0,43,21.08a2,2,0,0,0,.07-1.46,9.37,9.37,0,0,1-.63-1.49,4,4,0,0,1,.34-3.32,5.74,5.74,0,0,1,2.75-2.15,14.41,14.41,0,0,1,3.36-1,4.07,4.07,0,0,1,1.75.06A2.11,2.11,0,0,1,52,12.8a4.18,4.18,0,0,1,.38,1.61c0,.14,0,.24,0,.42a1.87,1.87,0,0,1-.1.38,3.59,3.59,0,0,1-.41.7A19.75,19.75,0,0,1,50,18.07c-1.22,1.26-2.29,2.26-3.06,2.94l-1.21,1.06,0,0,1.16-1.11c.73-.72,1.79-1.72,3-3a19.59,19.59,0,0,0,1.79-2.17,4,4,0,0,0,.36-.62,1.65,1.65,0,0,0,.1-.37l0-.36a3.94,3.94,0,0,0-.35-1.51,1.86,1.86,0,0,0-1.18-1,4,4,0,0,0-1.65-.06,14.21,14.21,0,0,0-3.31,1,5.56,5.56,0,0,0-2.68,2.05,3.79,3.79,0,0,0-.34,3.19,9.31,9.31,0,0,0,.62,1.48,2.1,2.1,0,0,1-.09,1.55,7.58,7.58,0,0,1-1.69,2.28,33.44,33.44,0,0,1-3.26,2.71c-.41.31-.73.55-.93.73s-.27.3-.27.31Z"/><path class="cls-7" d="M37.86,28.56a1,1,0,0,0,.38-.09,2,2,0,0,0,.76-.79,15,15,0,0,0,1.35-3.77c.42-1.61.8-3.52,1.27-5.55a27.69,27.69,0,0,1,.87-3.1,3.35,3.35,0,0,1,.86-1.44,7.11,7.11,0,0,1,1.4-.93,13.55,13.55,0,0,1,3.12-1.18,7,7,0,0,1,3.24-.12A2.41,2.41,0,0,1,53,13.81a10.85,10.85,0,0,1-.17,2.71,9.93,9.93,0,0,1-1.54,3.72,6.8,6.8,0,0,1-1,1.17l0,0a6.75,6.75,0,0,0,.93-1.2,10.28,10.28,0,0,0,1.44-3.7,10.67,10.67,0,0,0,.11-2.65,2.43,2.43,0,0,0-.52-1.27A2.31,2.31,0,0,0,51,11.84a7,7,0,0,0-3.12.11,13.33,13.33,0,0,0-3.08,1.13,6.93,6.93,0,0,0-1.37.9,3.18,3.18,0,0,0-.83,1.36,27.57,27.57,0,0,0-.89,3.07c-.49,2-.89,3.93-1.33,5.54A15.05,15.05,0,0,1,39,27.7a2,2,0,0,1-.79.8,1,1,0,0,1-.39.08Z"/><path class="cls-7" d="M40.13,27.56s0,0-.08-.06a.57.57,0,0,1-.06-.3,6.65,6.65,0,0,1,.11-1.14c.16-1,.47-2.36.91-4s1-3.54,1.76-5.52c.19-.5.4-1,.63-1.49a3.68,3.68,0,0,1,1-1.38,10.6,10.6,0,0,1,3-1.59,10.79,10.79,0,0,1,3.32-.69,4.55,4.55,0,0,1,1.67.24,2.34,2.34,0,0,1,1.28,1.06A3.05,3.05,0,0,1,54,14.26a7.17,7.17,0,0,1-.16,1.51,9.45,9.45,0,0,1-1.06,2.55,12.77,12.77,0,0,1-1.37,1.88,14.63,14.63,0,0,1-1.25,1.28,13.66,13.66,0,0,1-1.21,1v0a13.62,13.62,0,0,0,1.16-1,15,15,0,0,0,2.52-3.18,9.24,9.24,0,0,0,1-2.51,8.11,8.11,0,0,0,.14-1.46,2.81,2.81,0,0,0-.31-1.44,2.89,2.89,0,0,0-2.73-1.19,10.58,10.58,0,0,0-3.26.65,10.44,10.44,0,0,0-3,1.54,3.52,3.52,0,0,0-.92,1.31c-.24.49-.44,1-.64,1.47-.77,2-1.35,3.86-1.81,5.49s-.78,3-1,4A6.63,6.63,0,0,0,40,27.2a.6.6,0,0,0,0,.28c0,.06.09,0,.08.05Z"/><path class="cls-5" d="M44.21,29.91a.09.09,0,0,1-.09-.07.83.83,0,0,1,0-.32,9.9,9.9,0,0,1,.25-1.18c.26-1,.68-2.43,1.1-4.15.21-.86.42-1.8.58-2.8a9,9,0,0,0,.07-3.16,2,2,0,0,0-.32-.74c-.15-.22-.42-.33-.61-.58a2.37,2.37,0,0,1-.47-1.69,3.51,3.51,0,0,1,1.94-2.89,4.71,4.71,0,0,1,3.53,0,11.51,11.51,0,0,1,3,1.62c.45.33.88.68,1.28,1a3.48,3.48,0,0,1,1,1.25,3.94,3.94,0,0,1,0,2.87,9.71,9.71,0,0,1-1.09,2.18,15.67,15.67,0,0,1-1.12,1.5,15.39,15.39,0,0,1-1.11,1.2l0,0a15.36,15.36,0,0,0,1.07-1.23,16.9,16.9,0,0,0,1.08-1.52,9.58,9.58,0,0,0,1-2.16,3.77,3.77,0,0,0,0-2.74,3.24,3.24,0,0,0-1-1.16c-.41-.34-.84-.67-1.29-1a11.27,11.27,0,0,0-3-1.59,4.53,4.53,0,0,0-3.36,0,3.3,3.3,0,0,0-1.85,2.7,2.21,2.21,0,0,0,.42,1.57c.15.21.44.34.62.59a2.18,2.18,0,0,1,.34.8,9.12,9.12,0,0,1-.09,3.21c-.17,1-.4,1.95-.62,2.81-.45,1.72-.89,3.14-1.15,4.14a9.87,9.87,0,0,0-.26,1.17.81.81,0,0,0,0,.31c0,.06.07.05.07.05Z"/><path class="cls-8" d="M45.41,29a2.17,2.17,0,0,0,.15-.32,3.28,3.28,0,0,0,.22-1,3.31,3.31,0,0,0-.22-1.49,4.38,4.38,0,0,0-1.14-1.59,4.13,4.13,0,0,1-1.27-2A7.2,7.2,0,0,1,42.95,20a13.12,13.12,0,0,1,.61-2.78,13,13,0,0,1,1.17-2.69,10.53,10.53,0,0,1,.82-1.23,2.06,2.06,0,0,1,.52-.54.76.76,0,0,1,.79-.07,2.58,2.58,0,0,1,1,1.1A13.54,13.54,0,0,1,48.48,15c.72,1.7,1.3,3.32,1.86,4.68a8.38,8.38,0,0,0,1.8,3,1.51,1.51,0,0,0,.87.4,2.39,2.39,0,0,0,.35,0v0a2.36,2.36,0,0,1-.35,0,1.58,1.58,0,0,1-.93-.37,8.31,8.31,0,0,1-1.93-3c-.63-1.34-1.16-3-1.88-4.67a13.32,13.32,0,0,0-.61-1.25,2.48,2.48,0,0,0-.88-1c-.39-.24-.81.16-1.08.53a10.38,10.38,0,0,0-.84,1.19A12.2,12.2,0,0,0,43.09,20a7.07,7.07,0,0,0,.25,2.6,4.42,4.42,0,0,0,1.21,1.95,4.55,4.55,0,0,1,1.14,1.68,3.23,3.23,0,0,1,.18,1.55,3.35,3.35,0,0,1-.28,1,2.19,2.19,0,0,1-.17.31Z"/><path class="cls-5" d="M50.49,29.77a2.25,2.25,0,0,0,.17-.36,3.21,3.21,0,0,0,.22-1.1,3.4,3.4,0,0,0-.41-1.67A6.56,6.56,0,0,0,49,24.91a15.56,15.56,0,0,1-3.13-4.85A12.45,12.45,0,0,1,45,16.94a5.33,5.33,0,0,1,.39-3.31,2.34,2.34,0,0,1,1.23-1.18,2.55,2.55,0,0,1,1.69.2,10,10,0,0,1,2.65,1.93A33.45,33.45,0,0,1,54.67,19c2,2.73,3.11,4.69,3.11,4.69h0l-.87-1.28c-.56-.81-1.36-2-2.39-3.3a41.78,41.78,0,0,0-3.75-4.35,10.06,10.06,0,0,0-2.57-1.9,2.36,2.36,0,0,0-1.55-.23A1.6,1.6,0,0,0,46,13a4.76,4.76,0,0,0-.49.66A5.23,5.23,0,0,0,45,16.93,11.74,11.74,0,0,0,46,20a17.73,17.73,0,0,0,3.13,4.76,6.73,6.73,0,0,1,1.48,1.78A3.36,3.36,0,0,1,51,28.3a3.29,3.29,0,0,1-.28,1.12,2.27,2.27,0,0,1-.19.36Z"/></g></g></g></svg>