<svg xmlns="http://www.w3.org/2000/svg" viewBox="0 0 95 95.01"><defs><style>.cls-1,.cls-11,.cls-5{fill:none;}.cls-1{stroke:#f16162;}.cls-1,.cls-11,.cls-5,.cls-6,.cls-7,.cls-8{stroke-miterlimit:10;}.cls-2{fill:#0d0d0d;}.cls-12,.cls-3,.cls-6{fill:#fff;}.cls-4{fill:#f9ef66;}.cls-11,.cls-5,.cls-7,.cls-8{stroke:#fff;}.cls-11,.cls-5{stroke-width:0.25px;}.cls-6{stroke:#020202;}.cls-6,.cls-8{stroke-width:0.1px;}.cls-7,.cls-8,.cls-9{fill:#020202;}.cls-7{stroke-width:0.05px;}.cls-10{fill:#231f20;}.cls-11{stroke-linecap:round;}.cls-12{font-size:8px;font-family:BlessedDay, Blessed Day;}.cls-13{letter-spacing:-0.03em;}</style></defs><title>style-lesson</title><g id="Layer_2" data-name="Layer 2"><g id="style-lesson"><rect class="cls-1" x="14.41" y="14.41" width="66.18" height="66.18" transform="translate(-19.68 47.5) rotate(-45)"/><rect class="cls-2" x="19.29" y="17.26" width="56.42" height="60.48"/><path class="cls-3" d="M74.46,18.51v58H20.54v-58H74.46M77,16H18V79H77V16Z"/><path class="cls-4" d="M74.46,18.51v58H20.54v-58H74.46m2.1-2.1H18.44V78.6H76.56V16.41Z"/><path class="cls-3" d="M40.52,20.47q0,.27-.46.64l-.27.25-.32.32a.65.65,0,0,1-.13-.24.52.52,0,0,1,0-.26,1,1,0,0,1,.17-.2,1.14,1.14,0,0,0,.4-.64q0-.31-.37-.52a1.13,1.13,0,0,0-.36-.09h-.2a1,1,0,0,0-.72.28.88.88,0,0,0-.31.68,1,1,0,0,0,.25.66l.93,1a1.88,1.88,0,0,1,.58,1.23q0,.83-1.09,1.38a4.75,4.75,0,0,1-2.16.46,4.34,4.34,0,0,1-1.34-.2q-.93-.3-1-1a.44.44,0,0,1,0-.11,1.42,1.42,0,0,1,.76-1.14,3.3,3.3,0,0,1,1.91-.56,1.82,1.82,0,0,1,.71.14.58.58,0,0,1,.41.52q0,.26-.35.41a1,1,0,0,1-.37.09H37a.54.54,0,0,0,.21-.38l0-.09a.79.79,0,0,0-.67-.31,1.58,1.58,0,0,0-1.63.75,1,1,0,0,0-.12.64q.13.92,1.8.92a2,2,0,0,0,2-1.15,1,1,0,0,0,.08-.35,1.85,1.85,0,0,0-.55-1.11q-.45-.54-.82-1a1.28,1.28,0,0,1-.19-.64,1.36,1.36,0,0,1,.32-.85,1.75,1.75,0,0,1,1.42-.59,1.9,1.9,0,0,1,1.33.39A.74.74,0,0,1,40.52,20.47Z"/><path class="cls-3" d="M42.4,22.25l0,.09a.07.07,0,0,1-.07.06h-.69l-1.13,1.84a5.7,5.7,0,0,0-.31.54q.12,0,.42-.13l.42-.23c.12,0,.18,0,.18.1s-.14.22-.43.38a1.66,1.66,0,0,1-1,.26c-.11,0-.16-.1-.13-.27a3,3,0,0,1,.33-.63l1.12-1.86h-.45s0,0,0-.06l0-.09a.09.09,0,0,1,.08-.06h.45a2.94,2.94,0,0,1,.38-.57.33.33,0,0,1,.29-.06.21.21,0,0,1,.1,0,.07.07,0,0,1,0,.07,3.09,3.09,0,0,1-.28.53l0,0s0,0,0,0h.67S42.42,22.21,42.4,22.25Z"/><path class="cls-3" d="M43.69,24.51q0,.14-.19.25a4.86,4.86,0,0,1-1.09.48L42,26q-.25.43-.52.84c-.31.42-.55.61-.72.56s-.2-.16-.2-.39a1.61,1.61,0,0,1,.24-.77,2.54,2.54,0,0,1,.5-.66,2.59,2.59,0,0,1,.73-.46l.16-.26a1.71,1.71,0,0,1-.76.31l-.2,0a.58.58,0,0,1-.25,0q-.1-.06-.06-.22a1.94,1.94,0,0,1,.2-.41L42,23s.11-.07.23-.07a.3.3,0,0,1,.16,0,.08.08,0,0,1,0,.09,9.37,9.37,0,0,1-.72,1.22l-.12.22-.18.32h.09a1.16,1.16,0,0,0,.48-.17,1.61,1.61,0,0,0,.64-.57L43.27,23c0-.07.14-.09.3-.06s.13,0,.12.11a.61.61,0,0,1,0,.11,3.36,3.36,0,0,1-.27.5l-.73,1.2a3.58,3.58,0,0,0,.86-.43C43.62,24.39,43.68,24.42,43.69,24.51Zm-2,1.2.13-.24a2,2,0,0,0-.7.57,1.65,1.65,0,0,0-.36.79.31.31,0,0,0,0,.13s0,0,0,0,.35-.33.65-.86Z"/><path class="cls-3" d="M46,21.25a4.64,4.64,0,0,1-.5,1.33,6,6,0,0,1-1.55,1.91,1.05,1.05,0,0,0-.11.24.05.05,0,0,0,0,.05,1,1,0,0,0,.56-.16l.4-.19q.18,0,.18.1s0,.08-.06.15a2.25,2.25,0,0,1-1.28.49.32.32,0,0,1-.28-.11c-.07-.08-.06-.23,0-.45l.2-.46a16,16,0,0,1,.74-1.49q.45-.77.5-.83.61-1,1-1c.13,0,.19.08.19.25S46,21.15,46,21.25Zm-.25.16,0-.12a.1.1,0,0,0,0-.05,12,12,0,0,0-1.34,2.21l-.28.58a4.23,4.23,0,0,0,.76-.9,6.48,6.48,0,0,0,.79-1.53A1.45,1.45,0,0,1,45.72,21.4Z"/><path class="cls-3" d="M47.07,24.51c0,.09-.06.18-.22.27a2.85,2.85,0,0,1-1.3.41c-.47,0-.73-.16-.78-.53a1.45,1.45,0,0,1,.31-1,2.33,2.33,0,0,1,.55-.58,1,1,0,0,1,.62-.27.49.49,0,0,1,.41.18.53.53,0,0,1,.1.45,1.13,1.13,0,0,1-.18.41,1.17,1.17,0,0,1-.88.5.48.48,0,0,1-.38-.1q0,.5.48.54a1.59,1.59,0,0,0,.91-.28l.18-.1C47,24.39,47.06,24.42,47.07,24.51Zm-.66-.93h0a.88.88,0,0,0,0-.13q0-.2-.26-.2a.8.8,0,0,0-.51.31q-.29.31-.28.48s.07.07.18.08A.85.85,0,0,0,45.9,24,.89.89,0,0,0,46.41,23.59Z"/><path class="cls-3" d="M52.78,20.35h0s0,0,0,0h0s0,.06.05.06a2.31,2.31,0,0,1-.17.31L49.8,25.28a.09.09,0,0,1-.06,0l-.84.1a.1.1,0,0,1-.08,0,.1.1,0,0,1,0-.09l2.36-3.64a12,12,0,0,1-1.31.54h-.23a.1.1,0,0,1-.08-.11h0l0,0v0s0-.08.13-.13a19,19,0,0,0,2.82-1.5l.21-.1s0,0,0,.06a.32.32,0,0,1,0,.1Z"/><path class="cls-3" d="M52.34,24.06a4.43,4.43,0,0,1,.09-.54,5,5,0,0,1,2.4-2.93A1.79,1.79,0,0,1,56,20.26l.23,0h.08a1.07,1.07,0,0,1,.68.82s0,.08,0,.17a1.34,1.34,0,0,1,0,.18,3.65,3.65,0,0,1-.63,1.94A4.79,4.79,0,0,1,55,24.89l-.72.48a4.28,4.28,0,0,1-.84.15,1.09,1.09,0,0,1-.86-.45A1.52,1.52,0,0,1,52.34,24.06Zm3.31-3.2h0a2.76,2.76,0,0,0-.77.24,3.3,3.3,0,0,0-1.24,1.31,3.5,3.5,0,0,0-.52,1.74q0,.82.54.84a2,2,0,0,0,1.45-.74A4.34,4.34,0,0,0,56,22.82a3.37,3.37,0,0,0,.26-1.21l0-.29L56.11,21A.5.5,0,0,0,55.65,20.85Z"/><path class="cls-3" d="M60.86,20.35h0s0,0,0,0h0s0,.06.05.06a2.31,2.31,0,0,1-.17.31l-2.88,4.52a.09.09,0,0,1-.06,0l-.84.1a.1.1,0,0,1-.08,0,.1.1,0,0,1,0-.09l2.36-3.64A12,12,0,0,1,58,22.2h-.23a.1.1,0,0,1-.08-.11h0l0,0v0s0-.08.13-.13a19,19,0,0,0,2.82-1.5l.21-.1s0,0,0,.06a.32.32,0,0,1,0,.1Z"/><line class="cls-5" x1="33.73" y1="26.75" x2="59.71" y2="26.75"/><g id="CLIENT"><path class="cls-6" d="M57.22,30.76a3.55,3.55,0,0,0-.89,3.71,1.47,1.47,0,0,0,2.25.85,20.4,20.4,0,0,1,.63,6.91s1.57,0,1.74-.69a1.19,1.19,0,0,1,1-.92H62c.4,0,.26-.44.44-.8s1.72-.33,1.8-.68c.28-.23-3.64-.44-3.48-3.58.08-1.54-2.26-2.48-1.6-3.9,1.1-2.35-1.68-4.56-3.11-2.43C56.06,29.23,56.56,30,57.22,30.76Z"/><g id="Body"><path class="cls-7" d="M57.8,34.05a2.39,2.39,0,0,0,1.34,1,6.24,6.24,0,0,1,1.91.19c.72.28.72.28,1.08,1.08a36.78,36.78,0,0,0,3.08,5.12,30.1,30.1,0,0,0,3.14,2.05,2.6,2.6,0,0,0,1,.28,6.77,6.77,0,0,0,1.22-.08c.32-.06.34.15.05.16-.45,0-1,.07-1.29.08,0,0,0,.08,0,.08.32,0,1.25.08,1.57.07.06,0,.1,0,.09.07a.08.08,0,0,1-.09.07c-.4,0-1.36-.1-1.61-.08,0,0-.05.06,0,.06.28.08,1.82.39,1.78.6A4.35,4.35,0,0,1,70,44.48a4.36,4.36,0,0,0-.75-.12s-.06,0-.05,0,.47.28.45.38-.37,1-.46.94.23-.46.23-.89c0-.08-.27-.23-.39-.32a.29.29,0,0,0-.25,0c-.07,0-.11.17-.13.25a2.89,2.89,0,0,0,.41.62c.08.08,0,.18-.08.16A2.32,2.32,0,0,1,68.13,44c-1.31-1.16-2.28-1.38-3.72-2.41-2-1.42-3.16-5.84-3.88-4.54-.14.24.34.9.56,1.42a4.79,4.79,0,0,1-.21,2.42,4.14,4.14,0,0,0,.06,3.25c.18.62.93,2.09,1.12,2.62.78,2.17,1.16,3.69-2,13.87-.1.33,1.13.72,4,7a9.24,9.24,0,0,0,2.14,2.55c.58.49-.38,2.63-.75,1.66-.62-1.62-5.25-7.45-6.34-9.74,0,0,0,0,0,0,.12.4.14,7.27.41,8.19a7.06,7.06,0,0,1,.58,2.26c-.2,1.89-1.22.6-1.32-.35-.09-.77-.11-1.67-.25-2.43-.66-3.54-1.36-9.53-1.44-10.31C57,58.3,57,55.41,57,55c0-2.37-.17-3.82-.23-4.67,0-.17,0-.32,0-.44,0-1.06.33-4,.55-6.05.15-1.39-.76-1.47-1.5-2.66-.11-.18-.2-.3-.23-.3s-1.37-.62-.69-2.5c.49-1.35-2,4-2,4s-.33.84-.93.84a28.17,28.17,0,0,0-4.14,1,2.73,2.73,0,0,0-.56.21c-.07.07-.62.91-.62.91h0l-.45.42a.42.42,0,0,1-.34.07l0,0a.12.12,0,0,1,0-.09c0-.07.13,0,.27-.09a1.89,1.89,0,0,0,.34-.43c.16-.22-.11-.38-.21-.45a1.65,1.65,0,0,0-.87.13s0,.1,0,.1h0a2.22,2.22,0,0,0,.25.59c.05.08,0,.23-.17.06a1.52,1.52,0,0,1-.36-.71c0-.24.51-.34.9-.41a0,0,0,0,0,0-.09,7.08,7.08,0,0,1-1,0c-.48-.06-1.09-.13-1.11-.27s.47,0,1.11.11a5,5,0,0,0,1.09,0,0,0,0,0,0,0-.08c-.2,0-.54-.08-.88-.13s-1.1-.25-1-.34.49.07,1.06.19a8.17,8.17,0,0,0,.91.12s0-.08,0-.09l-.78-.19c-.41-.1-.8-.25-.81-.37s.35,0,.87.2a8.68,8.68,0,0,0,.84.24,2.84,2.84,0,0,0,.75.07,7,7,0,0,0,.77-.12,21.12,21.12,0,0,0,4.1-1.57c.5-.49,1.49-4,2.19-5.57a1.32,1.32,0,0,1,.26-.38,5.88,5.88,0,0,1,1.39-1.07c.42-.23,1-.23.21-2l-.41-.55a2.26,2.26,0,0,1-.3-2.1,2.32,2.32,0,0,1,2.06-1.68c1.53-.12,2,1.13,2,2.9a3.57,3.57,0,0,1-.65,1.76.4.4,0,0,1-.37.1,3.64,3.64,0,0,1-1.32-.43"/></g><g id="Shoes"><path class="cls-8" d="M60.1,73.23a3.2,3.2,0,0,1-.65,1.46,1.81,1.81,0,0,1-.55-1A10.89,10.89,0,0,1,58.74,72l0,.07c.33.93,1.07.54,1.18-.57A2.75,2.75,0,0,1,60.1,73.23Z"/><path class="cls-8" d="M65.47,72c-.06,0,.09.46.17.77a5.38,5.38,0,0,1,.09,2c-.08,0,1-.3.67-1.7-.27-1.1.65-1.4.9-.07a0,0,0,0,0,.07,0l.12-.12a0,0,0,0,0,0-.05A11.15,11.15,0,0,1,66.77,71c-.26-.9-.74-1-.74-1S66.3,72.34,65.47,72Z"/></g><path class="cls-3" d="M56.93,61.6c-.75,0-1.62-.51-3.69-1.78A2.53,2.53,0,0,0,52,59.58H50.64A3.59,3.59,0,0,1,48.33,59a3.77,3.77,0,0,1-1.39-2.56,3.63,3.63,0,0,0-1-2.13c-3.89-3.86-3-5.71-.27-8.74a2.86,2.86,0,0,0,.61,1.89,2.24,2.24,0,0,0,1.79.89,4.07,4.07,0,0,0,2.47-1.05,3,3,0,0,1,2-.65,9,9,0,0,1,1.15.1,7.46,7.46,0,0,0,.93.08,1.35,1.35,0,0,0,1.06-.38c.5-.52.7-1.68.62-3.63a2.5,2.5,0,0,0-.78-1.52,2.59,2.59,0,0,1-.65-3,25,25,0,0,0,.42-3l.5-.33c-.08,1.94.08,3.17.57,3.7a.81.81,0,0,0,.61.28,1.27,1.27,0,0,0,.62-.19c.1,1,.23,1,.23,1s.2-.32.24-1.06h0a3.54,3.54,0,0,0,.71.17.73.73,0,0,0,.58-.27c.45-.52.53-1.75.25-3.64l.84-.06c0,.1-.33.37.8,3.53a4.08,4.08,0,0,1-.09,2,6.51,6.51,0,0,0,1.2,6.21c1.54,1.85,2.87,2.79,4,2.79a2,2,0,0,0,1.57-.84A6,6,0,0,0,69,45.31c1.17.32,3.71,3.91,3.83,6.84a3.15,3.15,0,0,1-1.87,3.27c-.76.34-1,1.25-1.28,2.22C69.22,59.19,68.74,61,66,61h-.32a2.59,2.59,0,0,1-1.33-.47A2.86,2.86,0,0,0,62.73,60a9,9,0,0,0-2.82.61c-.64.22-1.12.43-1.51.59A3.86,3.86,0,0,1,56.93,61.6Z"/><path class="cls-9" d="M60.42,35s-.46.11.75,3.49a4.07,4.07,0,0,1-.09,1.92,6.52,6.52,0,0,0,1.21,6.25c1.72,2.08,3,2.81,4,2.81,2.23,0,2.78-3.76,2.69-4.16,1.65.57,6.3,8.12,1.89,10.08-2,.9-.5,5.52-4.85,5.52h-.32c-1.26-.06-1.45-1-3-1a9,9,0,0,0-2.84.62c-1.64.57-2.25,1-3,1s-1.54-.47-3.66-1.78a2.53,2.53,0,0,0-1.3-.24c-.42,0-.87,0-1.33,0A3.53,3.53,0,0,1,48.36,59c-1.92-1.55-.85-3.19-2.36-4.69-3.82-3.78-3.1-5.55-.27-8.67a2.46,2.46,0,0,0,2.36,2.79,4.09,4.09,0,0,0,2.5-1.07,3,3,0,0,1,2-.64c.75,0,1.46.18,2.07.18,1.12,0,1.87-.61,1.73-4.06-.07-1.65-2.38-2-1.43-4.53a24.86,24.86,0,0,0,.42-3l.47-.29c-.28,3.37.53,4,1.16,4a1.3,1.3,0,0,0,.64-.19c0,.73.11,1,.21,1s.25-.44.29-1.11a1.4,1.4,0,0,0,.68.21c.62,0,1.37-.62.87-4h.79m0-.1h-.79a.1.1,0,0,0-.1.11c.35,2.34.07,3.25-.24,3.6a.68.68,0,0,1-.54.25,1.31,1.31,0,0,1-.63-.19l-.05,0h0a.1.1,0,0,0-.05.08,2.68,2.68,0,0,1-.18,1,2.79,2.79,0,0,1-.11-.91.1.1,0,0,0-.05-.09h0l-.06,0a1.21,1.21,0,0,1-.59.18.76.76,0,0,1-.57-.26c-.33-.36-.68-1.27-.48-3.61a.1.1,0,0,0,0-.09h-.1l-.47.29a.1.1,0,0,0,0,.08,25,25,0,0,1-.41,2.95,2.66,2.66,0,0,0,.66,3.08,2.46,2.46,0,0,1,.77,1.49c.08,1.94-.11,3.08-.61,3.59a1.31,1.31,0,0,1-1,.36,7.46,7.46,0,0,1-.92-.08,8.94,8.94,0,0,0-1.15-.1,3.05,3.05,0,0,0-2,.67,4,4,0,0,1-2.43,1,2.19,2.19,0,0,1-1.75-.87,2.28,2.28,0,0,1-.51-1.8.1.1,0,0,0-.05-.11h0a.1.1,0,0,0-.07,0c-2.77,3.06-3.65,4.93.27,8.81a3.58,3.58,0,0,1,1,2.1A3.82,3.82,0,0,0,48.3,59a3.63,3.63,0,0,0,2.35.63l.7,0H52a2.5,2.5,0,0,1,1.25.23c2.08,1.27,3,1.79,3.72,1.79a3.89,3.89,0,0,0,1.48-.43c.39-.16.87-.37,1.51-.59A9,9,0,0,1,62.73,60a2.82,2.82,0,0,1,1.64.5,2.67,2.67,0,0,0,1.36.47H66c2.73,0,3.22-1.78,3.65-3.35.26-1,.51-1.86,1.25-2.19a3.19,3.19,0,0,0,1.9-3.32,10,10,0,0,0-1.51-4.41A6.33,6.33,0,0,0,69,45.2h0l-.07,0a.1.1,0,0,0,0,.1,5.9,5.9,0,0,1-1.06,3.21,1.92,1.92,0,0,1-1.53.82c-1.09,0-2.41-.93-3.94-2.78a6.46,6.46,0,0,1-1.2-6.16,4.16,4.16,0,0,0,.09-2c-1-2.88-.83-3.33-.8-3.37a.1.1,0,0,0,0-.19Z"/><path class="cls-3" d="M62,53.77l-.76,2.77-.78,2.84-.22.79a3.36,3.36,0,0,0-.1.4c0,.11.12.23.19.34l1,1.42c.62,1,1.2,2,1.7,2.91s.92,1.87,1.26,2.66a12.21,12.21,0,0,0,1.86,2.18,12.19,12.19,0,0,1-1.89-2.16c-.36-.79-.78-1.7-1.29-2.64s-1.11-1.93-1.73-2.89L60.24,61c-.07-.12-.19-.22-.2-.39a3.09,3.09,0,0,1,.1-.41l.23-.79.81-2.83Z"/><path class="cls-3" d="M58.14,60.22l.1-1.18.25-2.6.3-2.59.15-1.18-.1,1.18-.25,2.6L58.29,59Z"/><path class="cls-3" d="M65.51,72a5.59,5.59,0,0,0-.24-.52c-.17-.32-.44-.77-.78-1.3-.68-1.05-1.68-2.39-2.67-3.73S60,63.69,59.36,62.61l-.74-1.32-.29-.49s.45.7,1.09,1.78,1.52,2.5,2.51,3.84,2,2.7,2.64,3.76a14,14,0,0,1,.75,1.32A5.61,5.61,0,0,1,65.51,72Z"/><path class="cls-3" d="M60,71.55l-.15-.37a5.72,5.72,0,0,1-.34-1,18.58,18.58,0,0,1-.23-3.23l-.06-3.24V62.23l.07,1.47.11,3.23a18.53,18.53,0,0,0,.19,3.22,6.7,6.7,0,0,0,.3,1Z"/><path class="cls-9" d="M56.33,52.3c-.05-.71.5,6.08,1.71,14.75.08.59.21,1.17.31,1.76a28.76,28.76,0,0,1,.41,3.28"/><path class="cls-3" d="M56.33,52.3v0l0,.17.06.63.23,2.26c.2,1.87.49,4.36.81,6.84l.45,3.65c.13,1.17.35,2.24.49,3.17l.37,3.11L58.36,69c-.15-.93-.37-2-.52-3.17l-.49-3.65c-.3-2.49-.56-5-.74-6.85l-.21-2.26-.06-.63V52.3Z"/><path d="M61.67,45.8a7.33,7.33,0,0,1,.46.82,8,8,0,0,1,.64,2,7.09,7.09,0,0,1,0,2.08,5.24,5.24,0,0,1-.22.92,6.78,6.78,0,0,0,.16-.93,7,7,0,0,0-.07-2.05,7.93,7.93,0,0,0-.59-2C61.85,46.13,61.67,45.8,61.67,45.8Z"/><path class="cls-9" d="M56.26,45.27a35.42,35.42,0,0,0-.08,5.66"/><path class="cls-3" d="M56.26,45.27a4.22,4.22,0,0,0-.07.88c0,.53,0,1.24,0,1.95,0,1.42,0,2.83,0,2.83s-.05-.35-.08-.88,0-1.24,0-2,0-1.42.08-2c0-.27,0-.49.07-.64A1.1,1.1,0,0,1,56.26,45.27Z"/><g id="Belt"><path class="cls-9" d="M60.79,43a4.18,4.18,0,0,1-2.08.28,9.36,9.36,0,0,1-2.39-.16v1.06s3,.63,4.64-.17Z"/><path class="cls-8" d="M58.26,43.07a.87.87,0,1,0,.88.87A.87.87,0,0,0,58.26,43.07Zm0,1.38c-.24,0-.45-.29-.5-.51,0,0,.55,0,.55,0s-.55,0-.53-.06a.6.6,0,0,1,.48-.41.51.51,0,1,1,0,1Z"/><path class="cls-3" d="M58.27,44.78a.89.89,0,1,1,.9-.89A.9.9,0,0,1,58.27,44.78Zm-.16-1c.16,0,.23,0,.23.06s-.05,0-.31,0h-.25c.06.18.25.47.49.47a.48.48,0,1,0,0-1,.57.57,0,0,0-.45.39h.29Z"/><path class="cls-9" d="M58.27,43a.87.87,0,1,1-.88.87.87.87,0,0,1,.88-.87m-.31.79h.15c.11,0,.21,0,.21,0s-.56,0-.55,0c.05.23.26.51.5.51a.51.51,0,1,0,0-1,.6.6,0,0,0-.48.41s.07,0,.17,0m.31-.84a.92.92,0,1,0,.93.92.92.92,0,0,0-.93-.92Zm-.41.79a.53.53,0,0,1,.41-.33.46.46,0,1,1,0,.92c-.21,0-.38-.23-.44-.43H58c.26,0,.33,0,.33-.07s-.13-.08-.26-.08h-.25Z"/></g><path id="Finger_Top" data-name="Finger Top" class="cls-7" d="M69.18,44.41c.07.09.45.27.45.38s-.37,1-.46.94.26-.67.19-.89-.23-.23-.35-.32"/><path class="cls-3" d="M57.65,32.61h.17a.67.67,0,0,1,.16,0l.19,0a.28.28,0,0,0,.19,0c.06,0,.11-.05.16,0a.63.63,0,0,1,.17,0h0a.37.37,0,0,1-.15.09c-.1.05-.24,0-.37,0a.58.58,0,0,1-.38,0,.31.31,0,0,1-.15-.11Z"/><path class="cls-6" d="M58.47,31.14c-.78.63-.63,1.15-.41,2.09a3.65,3.65,0,0,1-.81,3.28c-1.1,1.3.7,2.15-.19,3s-.12,2-.38,2.89c-1.31-2.15-2.61-1.1-3.3-1.27-1.45-.35-1.68-1.32-1.7-1.54,2-.17.57-1.11,1.39-1.85,1.17-1.06.67-1.72,1.19-2.43,2.22-3-.48-3,1.44-6.26a2.28,2.28,0,0,1,1.84-.83C58.26,28.27,60.31,29.66,58.47,31.14Z"/><path class="cls-10" d="M61.9,53.77l-.27,1L61,57.12l-.66,2.29-.32,1,.27-1,.62-2.3.67-2.29Z"/><path class="cls-10" d="M58.86,52.67l-.51,4.89-.2,1.79-.08.83a1,1,0,0,0,.16.69c.11.2.21.39.31.54l.14.22a1.21,1.21,0,0,1-.09-.18c-.11-.24-.19-.38-.19-.38s.08.13.2.37c0,.06.08.13.07.19l-.15-.22c-.1-.16-.23-.33-.34-.53a1.07,1.07,0,0,1-.18-.72l.07-.83.18-1.8.4-3.36Z"/></g><line class="cls-11" x1="23.96" y1="36.85" x2="34.15" y2="36.85"/><line class="cls-11" x1="23.96" y1="45.5" x2="40.77" y2="45.5"/><line class="cls-11" x1="23.96" y1="54.15" x2="42.1" y2="54.15"/><line class="cls-11" x1="23.96" y1="62.8" x2="46.56" y2="62.8"/><line class="cls-11" x1="23.96" y1="71.45" x2="46.16" y2="71.45"/><text class="cls-12" transform="translate(23.7 37.75)">Hair</text><text class="cls-12" transform="translate(23.73 46.45)">Makeup</text><path class="cls-11" d="M24,45.5"/><text class="cls-12" transform="translate(23.25 55.08)">Ward<tspan class="cls-13" x="11.19" y="0">r</tspan><tspan x="12.78" y="0">obe</tspan></text><text class="cls-12" transform="translate(23.65 63.6)">Accessories</text><text class="cls-12" transform="translate(23.86 72.35)">Being Elite</text></g></g></svg>