<svg xmlns="http://www.w3.org/2000/svg" viewBox="0 0 95 95.01"><defs><style>.cls-1,.cls-11,.cls-5{fill:none;}.cls-1{stroke:#f16162;}.cls-1,.cls-11,.cls-5,.cls-6,.cls-7,.cls-8{stroke-miterlimit:10;}.cls-2{fill:#0d0d0d;}.cls-3,.cls-6{fill:#fff;}.cls-4{fill:#f9ef66;}.cls-11,.cls-5,.cls-7,.cls-8{stroke:#fff;}.cls-11,.cls-5{stroke-width:0.25px;}.cls-6{stroke:#020202;}.cls-6,.cls-8{stroke-width:0.1px;}.cls-7,.cls-8,.cls-9{fill:#020202;}.cls-7{stroke-width:0.05px;}.cls-10{fill:#231f20;}.cls-11{stroke-linecap:round;}</style></defs><title>style-lesson</title><g id="Layer_2" data-name="Layer 2"><g id="style-lesson"><rect class="cls-1" x="14.41" y="14.41" width="66.18" height="66.18" transform="translate(-19.68 47.5) rotate(-45)"/><rect class="cls-2" x="19.29" y="17.26" width="56.42" height="60.48"/><path class="cls-3" d="M74.46,18.51v58H20.54v-58H74.46M77,16H18V79H77V16Z"/><path class="cls-4" d="M74.46,18.51v58H20.54v-58H74.46m2.1-2.1H18.44V78.6H76.56V16.41Z"/><path class="cls-3" d="M40.52,20.47q0,.27-.46.64l-.27.25-.32.32a.65.65,0,0,1-.13-.24.52.52,0,0,1,0-.26,1,1,0,0,1,.17-.2,1.14,1.14,0,0,0,.4-.64q0-.31-.37-.52a1.13,1.13,0,0,0-.36-.09h-.2a1,1,0,0,0-.72.28.88.88,0,0,0-.31.68,1,1,0,0,0,.25.66l.93,1a1.88,1.88,0,0,1,.58,1.23q0,.83-1.09,1.38a4.75,4.75,0,0,1-2.16.46,4.34,4.34,0,0,1-1.34-.2q-.93-.3-1-1a.44.44,0,0,1,0-.11,1.42,1.42,0,0,1,.76-1.14,3.3,3.3,0,0,1,1.91-.56,1.82,1.82,0,0,1,.71.14.58.58,0,0,1,.41.52q0,.26-.35.41a1,1,0,0,1-.37.09H37a.54.54,0,0,0,.21-.38l0-.09a.79.79,0,0,0-.67-.31,1.58,1.58,0,0,0-1.63.75,1,1,0,0,0-.12.64q.13.92,1.8.92a2,2,0,0,0,2-1.15,1,1,0,0,0,.08-.35,1.85,1.85,0,0,0-.55-1.11q-.45-.54-.82-1a1.28,1.28,0,0,1-.19-.64,1.36,1.36,0,0,1,.32-.85,1.75,1.75,0,0,1,1.42-.59,1.9,1.9,0,0,1,1.33.39A.74.74,0,0,1,40.52,20.47Z"/><path class="cls-3" d="M42.4,22.25l0,.09a.07.07,0,0,1-.07.06h-.69l-1.13,1.84a5.7,5.7,0,0,0-.31.54q.12,0,.42-.13l.42-.23c.12,0,.18,0,.18.1s-.14.22-.43.38a1.66,1.66,0,0,1-1,.26c-.11,0-.16-.1-.13-.27a3,3,0,0,1,.33-.63l1.12-1.86h-.45s0,0,0-.06l0-.09a.09.09,0,0,1,.08-.06h.45a2.94,2.94,0,0,1,.38-.57.33.33,0,0,1,.29-.06.21.21,0,0,1,.1,0,.07.07,0,0,1,0,.07,3.09,3.09,0,0,1-.28.53l0,0s0,0,0,0h.67S42.42,22.21,42.4,22.25Z"/><path class="cls-3" d="M43.69,24.51q0,.14-.19.25a4.86,4.86,0,0,1-1.09.48L42,26q-.25.43-.52.84c-.31.42-.55.61-.72.56s-.2-.16-.2-.39a1.61,1.61,0,0,1,.24-.77,2.54,2.54,0,0,1,.5-.66,2.59,2.59,0,0,1,.73-.46l.16-.26a1.71,1.71,0,0,1-.76.31l-.2,0a.58.58,0,0,1-.25,0q-.1-.06-.06-.22a1.94,1.94,0,0,1,.2-.41L42,23s.11-.07.23-.07a.3.3,0,0,1,.16,0,.08.08,0,0,1,0,.09,9.37,9.37,0,0,1-.72,1.22l-.12.22-.18.32h.09a1.16,1.16,0,0,0,.48-.17,1.61,1.61,0,0,0,.64-.57L43.27,23c0-.07.14-.09.3-.06s.13,0,.12.11a.61.61,0,0,1,0,.11,3.36,3.36,0,0,1-.27.5l-.73,1.2a3.58,3.58,0,0,0,.86-.43C43.62,24.39,43.68,24.42,43.69,24.51Zm-2,1.2.13-.24a2,2,0,0,0-.7.57,1.65,1.65,0,0,0-.36.79.31.31,0,0,0,0,.13s0,0,0,0,.35-.33.65-.86Z"/><path class="cls-3" d="M46,21.25a4.64,4.64,0,0,1-.5,1.33,6,6,0,0,1-1.55,1.91,1.05,1.05,0,0,0-.11.24.05.05,0,0,0,0,.05,1,1,0,0,0,.56-.16l.4-.19q.18,0,.18.1s0,.08-.06.15a2.25,2.25,0,0,1-1.28.49.32.32,0,0,1-.28-.11c-.07-.08-.06-.23,0-.45l.2-.46a16,16,0,0,1,.74-1.49q.45-.77.5-.83.61-1,1-1c.13,0,.19.08.19.25S46,21.15,46,21.25Zm-.25.16,0-.12a.1.1,0,0,0,0-.05,12,12,0,0,0-1.34,2.21l-.28.58a4.23,4.23,0,0,0,.76-.9,6.48,6.48,0,0,0,.79-1.53A1.45,1.45,0,0,1,45.72,21.4Z"/><path class="cls-3" d="M47.07,24.51c0,.09-.06.18-.22.27a2.85,2.85,0,0,1-1.3.41c-.47,0-.73-.16-.78-.53a1.45,1.45,0,0,1,.31-1,2.33,2.33,0,0,1,.55-.58,1,1,0,0,1,.62-.27.49.49,0,0,1,.41.18.53.53,0,0,1,.1.45,1.13,1.13,0,0,1-.18.41,1.17,1.17,0,0,1-.88.5.48.48,0,0,1-.38-.1q0,.5.48.54a1.59,1.59,0,0,0,.91-.28l.18-.1C47,24.39,47.06,24.42,47.07,24.51Zm-.66-.93h0a.88.88,0,0,0,0-.13q0-.2-.26-.2a.8.8,0,0,0-.51.31q-.29.31-.28.48s.07.07.18.08A.85.85,0,0,0,45.9,24,.89.89,0,0,0,46.41,23.59Z"/><path class="cls-3" d="M52.78,20.35h0s0,0,0,0h0s0,.06.05.06a2.31,2.31,0,0,1-.17.31L49.8,25.28a.09.09,0,0,1-.06,0l-.84.1a.1.1,0,0,1-.08,0,.1.1,0,0,1,0-.09l2.36-3.64a12,12,0,0,1-1.31.54h-.23a.1.1,0,0,1-.08-.11h0l0,0v0s0-.08.13-.13a19,19,0,0,0,2.82-1.5l.21-.1s0,0,0,.06a.32.32,0,0,1,0,.1Z"/><path class="cls-3" d="M52.34,24.06a4.43,4.43,0,0,1,.09-.54,5,5,0,0,1,2.4-2.93A1.79,1.79,0,0,1,56,20.26l.23,0h.08a1.07,1.07,0,0,1,.68.82s0,.08,0,.17a1.34,1.34,0,0,1,0,.18,3.65,3.65,0,0,1-.63,1.94A4.79,4.79,0,0,1,55,24.89l-.72.48a4.28,4.28,0,0,1-.84.15,1.09,1.09,0,0,1-.86-.45A1.52,1.52,0,0,1,52.34,24.06Zm3.31-3.2h0a2.76,2.76,0,0,0-.77.24,3.3,3.3,0,0,0-1.24,1.31,3.5,3.5,0,0,0-.52,1.74q0,.82.54.84a2,2,0,0,0,1.45-.74A4.34,4.34,0,0,0,56,22.82a3.37,3.37,0,0,0,.26-1.21l0-.29L56.11,21A.5.5,0,0,0,55.65,20.85Z"/><path class="cls-3" d="M60.86,20.35h0s0,0,0,0h0s0,.06.05.06a2.31,2.31,0,0,1-.17.31l-2.88,4.52a.09.09,0,0,1-.06,0l-.84.1a.1.1,0,0,1-.08,0,.1.1,0,0,1,0-.09l2.36-3.64A12,12,0,0,1,58,22.2h-.23a.1.1,0,0,1-.08-.11h0l0,0v0s0-.08.13-.13a19,19,0,0,0,2.82-1.5l.21-.1s0,0,0,.06a.32.32,0,0,1,0,.1Z"/><line class="cls-5" x1="33.73" y1="26.75" x2="59.71" y2="26.75"/><g id="CLIENT"><path class="cls-6" d="M57.22,30.76a3.55,3.55,0,0,0-.89,3.71,1.47,1.47,0,0,0,2.25.85,20.4,20.4,0,0,1,.63,6.91s1.57,0,1.74-.69a1.19,1.19,0,0,1,1-.92H62c.4,0,.26-.44.44-.8s1.72-.33,1.8-.68c.28-.23-3.64-.44-3.48-3.58.08-1.54-2.26-2.48-1.6-3.9,1.1-2.35-1.68-4.56-3.11-2.43C56.06,29.23,56.56,30,57.22,30.76Z"/><g id="Body"><path class="cls-7" d="M57.8,34.05a2.39,2.39,0,0,0,1.34,1,6.24,6.24,0,0,1,1.91.19c.72.28.72.28,1.08,1.08a36.78,36.78,0,0,0,3.08,5.12,30.1,30.1,0,0,0,3.14,2.05,2.6,2.6,0,0,0,1,.28,6.77,6.77,0,0,0,1.22-.08c.32-.06.34.15.05.16-.45,0-1,.07-1.29.08,0,0,0,.08,0,.08.32,0,1.25.08,1.57.07.06,0,.1,0,.09.07a.08.08,0,0,1-.09.07c-.4,0-1.36-.1-1.61-.08,0,0-.05.06,0,.06.28.08,1.82.39,1.78.6A4.35,4.35,0,0,1,70,44.48a4.36,4.36,0,0,0-.75-.12s-.06,0-.05,0,.47.28.45.38-.37,1-.46.94.23-.46.23-.89c0-.08-.27-.23-.39-.32a.29.29,0,0,0-.25,0c-.07,0-.11.17-.13.25a2.89,2.89,0,0,0,.41.62c.08.08,0,.18-.08.16A2.32,2.32,0,0,1,68.13,44c-1.31-1.16-2.28-1.38-3.72-2.41-2-1.42-3.16-5.84-3.88-4.54-.14.24.34.9.56,1.42a4.79,4.79,0,0,1-.21,2.42,4.14,4.14,0,0,0,.06,3.25c.18.62.93,2.09,1.12,2.62.78,2.17,1.16,3.69-2,13.87-.1.33,1.13.72,4,7a9.24,9.24,0,0,0,2.14,2.55c.58.49-.38,2.63-.75,1.66-.62-1.62-5.25-7.45-6.34-9.74,0,0,0,0,0,0,.12.4.14,7.27.41,8.19a7.06,7.06,0,0,1,.58,2.26c-.2,1.89-1.22.6-1.32-.35-.09-.77-.11-1.67-.25-2.43-.66-3.54-1.36-9.53-1.44-10.31C57,58.3,57,55.41,57,55c0-2.37-.17-3.82-.23-4.67,0-.17,0-.32,0-.44,0-1.06.33-4,.55-6.05.15-1.39-.76-1.47-1.5-2.66-.11-.18-.2-.3-.23-.3s-1.37-.62-.69-2.5c.49-1.35-2,4-2,4s-.33.84-.93.84a28.17,28.17,0,0,0-4.14,1,2.73,2.73,0,0,0-.56.21c-.07.07-.62.91-.62.91h0l-.45.42a.42.42,0,0,1-.34.07l0,0a.12.12,0,0,1,0-.09c0-.07.13,0,.27-.09a1.89,1.89,0,0,0,.34-.43c.16-.22-.11-.38-.21-.45a1.65,1.65,0,0,0-.87.13s0,.1,0,.1h0a2.22,2.22,0,0,0,.25.59c.05.08,0,.23-.17.06a1.52,1.52,0,0,1-.36-.71c0-.24.51-.34.9-.41a0,0,0,0,0,0-.09,7.08,7.08,0,0,1-1,0c-.48-.06-1.09-.13-1.11-.27s.47,0,1.11.11a5,5,0,0,0,1.09,0,0,0,0,0,0,0-.08c-.2,0-.54-.08-.88-.13s-1.1-.25-1-.34.49.07,1.06.19a8.17,8.17,0,0,0,.91.12s0-.08,0-.09l-.78-.19c-.41-.1-.8-.25-.81-.37s.35,0,.87.2a8.68,8.68,0,0,0,.84.24,2.84,2.84,0,0,0,.75.07,7,7,0,0,0,.77-.12,21.12,21.12,0,0,0,4.1-1.57c.5-.49,1.49-4,2.19-5.57a1.32,1.32,0,0,1,.26-.38,5.88,5.88,0,0,1,1.39-1.07c.42-.23,1-.23.21-2l-.41-.55a2.26,2.26,0,0,1-.3-2.1,2.32,2.32,0,0,1,2.06-1.68c1.53-.12,2,1.13,2,2.9a3.57,3.57,0,0,1-.65,1.76.4.4,0,0,1-.37.1,3.64,3.64,0,0,1-1.32-.43"/></g><g id="Shoes"><path class="cls-8" d="M60.1,73.23a3.2,3.2,0,0,1-.65,1.46,1.81,1.81,0,0,1-.55-1A10.89,10.89,0,0,1,58.74,72l0,.07c.33.93,1.07.54,1.18-.57A2.75,2.75,0,0,1,60.1,73.23Z"/><path class="cls-8" d="M65.47,72c-.06,0,.09.46.17.77a5.38,5.38,0,0,1,.09,2c-.08,0,1-.3.67-1.7-.27-1.1.65-1.4.9-.07a0,0,0,0,0,.07,0l.12-.12a0,0,0,0,0,0-.05A11.15,11.15,0,0,1,66.77,71c-.26-.9-.74-1-.74-1S66.3,72.34,65.47,72Z"/></g><path class="cls-3" d="M56.93,61.6c-.75,0-1.62-.51-3.69-1.78A2.53,2.53,0,0,0,52,59.58H50.64A3.59,3.59,0,0,1,48.33,59a3.77,3.77,0,0,1-1.39-2.56,3.63,3.63,0,0,0-1-2.13c-3.89-3.86-3-5.71-.27-8.74a2.86,2.86,0,0,0,.61,1.89,2.24,2.24,0,0,0,1.79.89,4.07,4.07,0,0,0,2.47-1.05,3,3,0,0,1,2-.65,9,9,0,0,1,1.15.1,7.46,7.46,0,0,0,.93.08,1.35,1.35,0,0,0,1.06-.38c.5-.52.7-1.68.62-3.63a2.5,2.5,0,0,0-.78-1.52,2.59,2.59,0,0,1-.65-3,25,25,0,0,0,.42-3l.5-.33c-.08,1.94.08,3.17.57,3.7a.81.81,0,0,0,.61.28,1.27,1.27,0,0,0,.62-.19c.1,1,.23,1,.23,1s.2-.32.24-1.06h0a3.54,3.54,0,0,0,.71.17.73.73,0,0,0,.58-.27c.45-.52.53-1.75.25-3.64l.84-.06c0,.1-.33.37.8,3.53a4.08,4.08,0,0,1-.09,2,6.51,6.51,0,0,0,1.2,6.21c1.54,1.85,2.87,2.79,4,2.79a2,2,0,0,0,1.57-.84A6,6,0,0,0,69,45.31c1.17.32,3.71,3.91,3.83,6.84a3.15,3.15,0,0,1-1.87,3.27c-.76.34-1,1.25-1.28,2.22C69.22,59.19,68.74,61,66,61h-.32a2.59,2.59,0,0,1-1.33-.47A2.86,2.86,0,0,0,62.73,60a9,9,0,0,0-2.82.61c-.64.22-1.12.43-1.51.59A3.86,3.86,0,0,1,56.93,61.6Z"/><path class="cls-9" d="M60.42,35s-.46.11.75,3.49a4.07,4.07,0,0,1-.09,1.92,6.52,6.52,0,0,0,1.21,6.25c1.72,2.08,3,2.81,4,2.81,2.23,0,2.78-3.76,2.69-4.16,1.65.57,6.3,8.12,1.89,10.08-2,.9-.5,5.52-4.85,5.52h-.32c-1.26-.06-1.45-1-3-1a9,9,0,0,0-2.84.62c-1.64.57-2.25,1-3,1s-1.54-.47-3.66-1.78a2.53,2.53,0,0,0-1.3-.24c-.42,0-.87,0-1.33,0A3.53,3.53,0,0,1,48.36,59c-1.92-1.55-.85-3.19-2.36-4.69-3.82-3.78-3.1-5.55-.27-8.67a2.46,2.46,0,0,0,2.36,2.79,4.09,4.09,0,0,0,2.5-1.07,3,3,0,0,1,2-.64c.75,0,1.46.18,2.07.18,1.12,0,1.87-.61,1.73-4.06-.07-1.65-2.38-2-1.43-4.53a24.86,24.86,0,0,0,.42-3l.47-.29c-.28,3.37.53,4,1.16,4a1.3,1.3,0,0,0,.64-.19c0,.73.11,1,.21,1s.25-.44.29-1.11a1.4,1.4,0,0,0,.68.21c.62,0,1.37-.62.87-4h.79m0-.1h-.79a.1.1,0,0,0-.1.11c.35,2.34.07,3.25-.24,3.6a.68.68,0,0,1-.54.25,1.31,1.31,0,0,1-.63-.19l-.05,0h0a.1.1,0,0,0-.05.08,2.68,2.68,0,0,1-.18,1,2.79,2.79,0,0,1-.11-.91.1.1,0,0,0-.05-.09h0l-.06,0a1.21,1.21,0,0,1-.59.18.76.76,0,0,1-.57-.26c-.33-.36-.68-1.27-.48-3.61a.1.1,0,0,0,0-.09h-.1l-.47.29a.1.1,0,0,0,0,.08,25,25,0,0,1-.41,2.95,2.66,2.66,0,0,0,.66,3.08,2.46,2.46,0,0,1,.77,1.49c.08,1.94-.11,3.08-.61,3.59a1.31,1.31,0,0,1-1,.36,7.46,7.46,0,0,1-.92-.08,8.94,8.94,0,0,0-1.15-.1,3.05,3.05,0,0,0-2,.67,4,4,0,0,1-2.43,1,2.19,2.19,0,0,1-1.75-.87,2.28,2.28,0,0,1-.51-1.8.1.1,0,0,0-.05-.11h0a.1.1,0,0,0-.07,0c-2.77,3.06-3.65,4.93.27,8.81a3.58,3.58,0,0,1,1,2.1A3.82,3.82,0,0,0,48.3,59a3.63,3.63,0,0,0,2.35.63l.7,0H52a2.5,2.5,0,0,1,1.25.23c2.08,1.27,3,1.79,3.72,1.79a3.89,3.89,0,0,0,1.48-.43c.39-.16.87-.37,1.51-.59A9,9,0,0,1,62.73,60a2.82,2.82,0,0,1,1.64.5,2.67,2.67,0,0,0,1.36.47H66c2.73,0,3.22-1.78,3.65-3.35.26-1,.51-1.86,1.25-2.19a3.19,3.19,0,0,0,1.9-3.32,10,10,0,0,0-1.51-4.41A6.33,6.33,0,0,0,69,45.2h0l-.07,0a.1.1,0,0,0,0,.1,5.9,5.9,0,0,1-1.06,3.21,1.92,1.92,0,0,1-1.53.82c-1.09,0-2.41-.93-3.94-2.78a6.46,6.46,0,0,1-1.2-6.16,4.16,4.16,0,0,0,.09-2c-1-2.88-.83-3.33-.8-3.37a.1.1,0,0,0,0-.19Z"/><path class="cls-3" d="M62,53.77l-.76,2.77-.78,2.84-.22.79a3.36,3.36,0,0,0-.1.4c0,.11.12.23.19.34l1,1.42c.62,1,1.2,2,1.7,2.91s.92,1.87,1.26,2.66a12.21,12.21,0,0,0,1.86,2.18,12.19,12.19,0,0,1-1.89-2.16c-.36-.79-.78-1.7-1.29-2.64s-1.11-1.93-1.73-2.89L60.24,61c-.07-.12-.19-.22-.2-.39a3.09,3.09,0,0,1,.1-.41l.23-.79.81-2.83Z"/><path class="cls-3" d="M58.14,60.22l.1-1.18.25-2.6.3-2.59.15-1.18-.1,1.18-.25,2.6L58.29,59Z"/><path class="cls-3" d="M65.51,72a5.59,5.59,0,0,0-.24-.52c-.17-.32-.44-.77-.78-1.3-.68-1.05-1.68-2.39-2.67-3.73S60,63.69,59.36,62.61l-.74-1.32-.29-.49s.45.7,1.09,1.78,1.52,2.5,2.51,3.84,2,2.7,2.64,3.76a14,14,0,0,1,.75,1.32A5.61,5.61,0,0,1,65.51,72Z"/><path class="cls-3" d="M60,71.55l-.15-.37a5.72,5.72,0,0,1-.34-1,18.58,18.58,0,0,1-.23-3.23l-.06-3.24V62.23l.07,1.47.11,3.23a18.53,18.53,0,0,0,.19,3.22,6.7,6.7,0,0,0,.3,1Z"/><path class="cls-9" d="M56.33,52.3c-.05-.71.5,6.08,1.71,14.75.08.59.21,1.17.31,1.76a28.76,28.76,0,0,1,.41,3.28"/><path class="cls-3" d="M56.33,52.3v0l0,.17.06.63.23,2.26c.2,1.87.49,4.36.81,6.84l.45,3.65c.13,1.17.35,2.24.49,3.17l.37,3.11L58.36,69c-.15-.93-.37-2-.52-3.17l-.49-3.65c-.3-2.49-.56-5-.74-6.85l-.21-2.26-.06-.63V52.3Z"/><path d="M61.67,45.8a7.33,7.33,0,0,1,.46.82,8,8,0,0,1,.64,2,7.09,7.09,0,0,1,0,2.08,5.24,5.24,0,0,1-.22.92,6.78,6.78,0,0,0,.16-.93,7,7,0,0,0-.07-2.05,7.93,7.93,0,0,0-.59-2C61.85,46.13,61.67,45.8,61.67,45.8Z"/><path class="cls-9" d="M56.26,45.27a35.42,35.42,0,0,0-.08,5.66"/><path class="cls-3" d="M56.26,45.27a4.22,4.22,0,0,0-.07.88c0,.53,0,1.24,0,1.95,0,1.42,0,2.83,0,2.83s-.05-.35-.08-.88,0-1.24,0-2,0-1.42.08-2c0-.27,0-.49.07-.64A1.1,1.1,0,0,1,56.26,45.27Z"/><g id="Belt"><path class="cls-9" d="M60.79,43a4.18,4.18,0,0,1-2.08.28,9.36,9.36,0,0,1-2.39-.16v1.06s3,.63,4.64-.17Z"/><path class="cls-8" d="M58.26,43.07a.87.87,0,1,0,.88.87A.87.87,0,0,0,58.26,43.07Zm0,1.38c-.24,0-.45-.29-.5-.51,0,0,.55,0,.55,0s-.55,0-.53-.06a.6.6,0,0,1,.48-.41.51.51,0,1,1,0,1Z"/><path class="cls-3" d="M58.27,44.78a.89.89,0,1,1,.9-.89A.9.9,0,0,1,58.27,44.78Zm-.16-1c.16,0,.23,0,.23.06s-.05,0-.31,0h-.25c.06.18.25.47.49.47a.48.48,0,1,0,0-1,.57.57,0,0,0-.45.39h.29Z"/><path class="cls-9" d="M58.27,43a.87.87,0,1,1-.88.87.87.87,0,0,1,.88-.87m-.31.79h.15c.11,0,.21,0,.21,0s-.56,0-.55,0c.05.23.26.51.5.51a.51.51,0,1,0,0-1,.6.6,0,0,0-.48.41s.07,0,.17,0m.31-.84a.92.92,0,1,0,.93.92.92.92,0,0,0-.93-.92Zm-.41.79a.53.53,0,0,1,.41-.33.46.46,0,1,1,0,.92c-.21,0-.38-.23-.44-.43H58c.26,0,.33,0,.33-.07s-.13-.08-.26-.08h-.25Z"/></g><path id="Finger_Top" data-name="Finger Top" class="cls-7" d="M69.18,44.41c.07.09.45.27.45.38s-.37,1-.46.94.26-.67.19-.89-.23-.23-.35-.32"/><path class="cls-3" d="M57.65,32.61h.17a.67.67,0,0,1,.16,0l.19,0a.28.28,0,0,0,.19,0c.06,0,.11-.05.16,0a.63.63,0,0,1,.17,0h0a.37.37,0,0,1-.15.09c-.1.05-.24,0-.37,0a.58.58,0,0,1-.38,0,.31.31,0,0,1-.15-.11Z"/><path class="cls-6" d="M58.47,31.14c-.78.63-.63,1.15-.41,2.09a3.65,3.65,0,0,1-.81,3.28c-1.1,1.3.7,2.15-.19,3s-.12,2-.38,2.89c-1.31-2.15-2.61-1.1-3.3-1.27-1.45-.35-1.68-1.32-1.7-1.54,2-.17.57-1.11,1.39-1.85,1.17-1.06.67-1.72,1.19-2.43,2.22-3-.48-3,1.44-6.26a2.28,2.28,0,0,1,1.84-.83C58.26,28.27,60.31,29.66,58.47,31.14Z"/><path class="cls-10" d="M61.9,53.77l-.27,1L61,57.12l-.66,2.29-.32,1,.27-1,.62-2.3.67-2.29Z"/><path class="cls-10" d="M58.86,52.67l-.51,4.89-.2,1.79-.08.83a1,1,0,0,0,.16.69c.11.2.21.39.31.54l.14.22a1.21,1.21,0,0,1-.09-.18c-.11-.24-.19-.38-.19-.38s.08.13.2.37c0,.06.08.13.07.19l-.15-.22c-.1-.16-.23-.33-.34-.53a1.07,1.07,0,0,1-.18-.72l.07-.83.18-1.8.4-3.36Z"/></g><line class="cls-11" x1="23.96" y1="36.85" x2="34.15" y2="36.85"/><line class="cls-11" x1="23.96" y1="45.5" x2="40.77" y2="45.5"/><line class="cls-11" x1="23.96" y1="54.15" x2="42.1" y2="54.15"/><line class="cls-11" x1="23.96" y1="62.8" x2="46.56" y2="62.8"/><line class="cls-11" x1="23.96" y1="71.45" x2="46.16" y2="71.45"/><path class="cls-3" d="M30.53,32.2a5.88,5.88,0,0,0-.62.86q-.56.88-1.79,3.25-.28.52-.62.56a.21.21,0,0,1-.14,0l0-.08.06-.13c.06-.12.17-.37.32-.76a1.65,1.65,0,0,0-.39-1.13q-.19.36-.59,1a2.81,2.81,0,0,1-.81.79,2,2,0,0,1-.75.21,1.91,1.91,0,0,1-.42,0,1.61,1.61,0,0,1-.62-.16c-.14-.06-.21-.11-.23-.15a.88.88,0,0,1-.3-.67,1.1,1.1,0,0,1,.79-1.08.86.86,0,0,1,.45-.05.79.79,0,0,1,.45.21.52.52,0,0,1,.16.42.82.82,0,0,0-1.27-.13.8.8,0,0,0-.27.62.62.62,0,0,0,.33.57,1.06,1.06,0,0,0,.67.14,1.76,1.76,0,0,0,1.3-.91q.21-.31.69-1.22a1,1,0,0,0-.59-.13,1.56,1.56,0,0,0-1,.44.44.44,0,0,1,0-.08q0-.23.41-.44a1.68,1.68,0,0,1,.69-.19,1.33,1.33,0,0,1,.68.13l.38-.7a3.88,3.88,0,0,1,.38-.55l-.21,0-1-.18-.26,0h-.21a1.57,1.57,0,0,0-.65.19.61.61,0,0,0-.35.53.35.35,0,0,0,.23.33.87.87,0,0,0,.43.05.81.81,0,0,0,.7-.5.12.12,0,0,0,0-.06.05.05,0,0,0,0,0,.15.15,0,0,0-.11-.07.29.29,0,0,0-.26.1.23.23,0,0,0-.07.09q-.09,0,0-.18a.44.44,0,0,1,.21-.19.48.48,0,0,1,.28,0,.33.33,0,0,1,.23.14.31.31,0,0,1,0,.28,1.25,1.25,0,0,1-1,.72,1.21,1.21,0,0,1-.53-.07.72.72,0,0,1-.4-.34.51.51,0,0,1,0-.37,1,1,0,0,1,.3-.46,1.42,1.42,0,0,1,.46-.31,2.55,2.55,0,0,1,1.15-.17L28,32.3l.32,0,.16,0,.32-.05h0c.14,0,.2,0,.2,0v0a5.21,5.21,0,0,0-1.14,1.63l-.23.45a2.36,2.36,0,0,1,.5,1,25.69,25.69,0,0,1,1.38-2.46q.52-.79.89-.79l.13,0S30.54,32.18,30.53,32.2Z"/><path class="cls-3" d="M31.06,36q0,.11-.34.3a1.35,1.35,0,0,1-.79.21c-.09,0-.12-.08-.1-.21a.83.83,0,0,1-.52.23q-.41,0-.41-.53a1.44,1.44,0,0,1,.49-1,1,1,0,0,1,.69-.37q.39,0,.38.48l.18-.27a.3.3,0,0,1,.29-.1c.07,0,.11,0,.1.09s-.19.35-.54.94l-.25.43c.06,0,.17,0,.34-.1l.33-.18Q31.06,35.85,31.06,36Zm-.82-.5a.69.69,0,0,0,0-.33.2.2,0,0,0-.21-.19.63.63,0,0,0-.47.3,1,1,0,0,0-.21.57q0,.33.26.33a.56.56,0,0,0,.4-.24l.08-.15.14-.25Z"/><path class="cls-3" d="M32,36q0,.11-.34.3a1.31,1.31,0,0,1-.77.21c-.1,0-.14-.08-.11-.21a3.37,3.37,0,0,1,.27-.5l.21-.37a5.74,5.74,0,0,1,.41-.65.27.27,0,0,1,.23,0l.08,0a0,0,0,0,1,0,.05s-.19.36-.57,1l-.14.24-.08.15,0,0c.07,0,.18,0,.34-.1l.33-.18C31.93,35.86,32,35.88,32,36Zm.54-2a.51.51,0,0,1-.09.23q-.23.34-.47.34c-.07,0-.11,0-.11-.11a.47.47,0,0,1,.09-.23q.23-.34.47-.34A.1.1,0,0,1,32.51,34Z"/><path class="cls-3" d="M33.88,35.78q0,.11-.27.37l-.18.13a1,1,0,0,1-.54.24q-.31,0-.36-.34a1.07,1.07,0,0,1,.18-.57l.2-.36L33,35.1a1.28,1.28,0,0,0-.3-.11l-.3.59a1.41,1.41,0,0,1-.26.33q-.22.23-.3.25a.16.16,0,0,1-.11,0,.13.13,0,0,1,0-.11l0,0,.49-.52a1.61,1.61,0,0,0,.16-.3,3.14,3.14,0,0,0,.14-.45l0-.16,0-.14a.15.15,0,0,1,.11-.08.13.13,0,0,1,.15.08.29.29,0,0,1,0,.21l0,.11.1,0,0,0,.25.11.19,0a.15.15,0,0,1,.07.11.81.81,0,0,1-.13.28l-.2.34a1.52,1.52,0,0,0-.23.55.07.07,0,0,0,0,.05s.13,0,.29-.08l.51-.41.07,0A.1.1,0,0,1,33.88,35.78Z"/><path class="cls-3" d="M32.49,46.56q.18.45-.43.72a1.38,1.38,0,0,1-.54.12q-.82,0-1.26-1A3.71,3.71,0,0,1,30,44.93a6.43,6.43,0,0,1,1.08-3.44,11.67,11.67,0,0,0-2.57,3.57c0,.07-.07.1-.11.1h-.34Q28,45.16,28,45l0-.12.52-2.7-.65.84a7.77,7.77,0,0,1-1.75,1.8,2,2,0,0,1-1,.34l-.35,0a1.22,1.22,0,0,1-.88-.6,1,1,0,0,1-.12-.53,1.15,1.15,0,0,1,.34-.76,1.14,1.14,0,0,1,.75-.36.9.9,0,0,1,.44.05.44.44,0,0,1,.3.22.66.66,0,0,1,.14.37.48.48,0,0,1-.07.23q-.25-.63-.79-.58a.85.85,0,0,0-.56.27A.88.88,0,0,0,24,44a.69.69,0,0,0,.08.37,1,1,0,0,0,.9.47,2.61,2.61,0,0,0,1.79-1.13q.28-.32.78-1,.33-.41.86-1.24l-1.35-.23a1.79,1.79,0,0,0-.53,0,1.26,1.26,0,0,0-.62.21.58.58,0,0,0-.25.57.56.56,0,0,0,.31.45.93.93,0,0,0,.56.09.7.7,0,0,0,.41-.2.64.64,0,0,0,.2-.4.18.18,0,0,0-.19-.21.25.25,0,0,0-.25.12c0,.06,0,.1,0,.12a.18.18,0,0,1-.09-.22.35.35,0,0,1,.17-.23.38.38,0,0,1,.29-.06.43.43,0,0,1,.39.51.92.92,0,0,1-.34.65,1.08,1.08,0,0,1-.71.24,1.21,1.21,0,0,1-.83-.34.87.87,0,0,1-.3-.59,1,1,0,0,1,.12-.47q.37-.75,1.66-.7a9.29,9.29,0,0,1,.94.11,4.46,4.46,0,0,0,.93.05.72.72,0,0,0,.35-.09l.1,0s.07,0,.08.05l-.08.23,0,.05q-.13.41-.39,1.52-.16.65-.26,1.28a8.81,8.81,0,0,1,2.88-3.21,1.36,1.36,0,0,1,.27-.12c.14,0,.22,0,.26,0s0,.06,0,.11a4.23,4.23,0,0,1-.32.37A6.61,6.61,0,0,0,30.82,43a6,6,0,0,0-.39,2,3.15,3.15,0,0,0,.25,1.28q.32.77.93.77a1.07,1.07,0,0,0,.52-.14A.89.89,0,0,0,32.49,46.56Z"/><path class="cls-3" d="M32.87,44.66q0,.11-.34.3a1.35,1.35,0,0,1-.79.21c-.09,0-.12-.08-.1-.21a.83.83,0,0,1-.52.23q-.41,0-.41-.53a1.44,1.44,0,0,1,.49-1,1,1,0,0,1,.69-.37q.39,0,.38.48l.18-.27a.3.3,0,0,1,.29-.1c.07,0,.11,0,.1.09s-.19.35-.54.94l-.25.43c.06,0,.17,0,.34-.1l.33-.18Q32.87,44.55,32.87,44.66Zm-.82-.5a.69.69,0,0,0,0-.33.2.2,0,0,0-.21-.19.63.63,0,0,0-.47.3,1,1,0,0,0-.21.57q0,.33.26.33a.56.56,0,0,0,.4-.24l.08-.15.14-.25Z"/><path class="cls-3" d="M35,42a1,1,0,0,1-.12.43,1.55,1.55,0,0,1-.7.73l-.3.13-.11.18a.87.87,0,0,1,.47-.18q.38,0,.38.34a.59.59,0,0,1-.1.3.76.76,0,0,1-.38.35l0,0,.1.07,0,0s0,0,0,0a.38.38,0,0,1-.1.2.61.61,0,0,0-.11.16s0,0,0,0a3,3,0,0,0,.5-.27h.06c.05,0,.08,0,.08.09s-.17.24-.5.39l-.25.1c-.26.05-.41,0-.45-.05s0-.16.09-.28l.18-.25,0-.05s0,0-.13,0H33.2l-.21.35-.08.14a.37.37,0,0,1-.38.22s-.07,0-.07,0,0-.06,0-.14l.33-.57.64-1.09q-.25,0-.28-.18l.13,0a1.05,1.05,0,0,0,.26,0L34.31,42q.26-.35.48-.3T35,42Zm-.85,1.81c0-.11-.06-.17-.18-.17a.64.64,0,0,0-.44.24l-.23.38Q34.16,44.25,34.16,43.84Zm.7-1.8c0-.08,0-.11-.05-.11s-.23.19-.39.51h0l0,.06-.07.13-.09.16-.14.24a1.46,1.46,0,0,0,.56-.41A.88.88,0,0,0,34.87,42Z"/><path class="cls-3" d="M36.37,44.66c0,.07-.05.15-.18.22a2.28,2.28,0,0,1-1,.33q-.57,0-.62-.43a1.16,1.16,0,0,1,.25-.8,1.87,1.87,0,0,1,.44-.46.84.84,0,0,1,.5-.21.4.4,0,0,1,.33.15.42.42,0,0,1,.08.36.88.88,0,0,1-.14.33.94.94,0,0,1-.71.4.38.38,0,0,1-.3-.08q0,.4.38.43a1.28,1.28,0,0,0,.73-.23l.14-.08C36.32,44.56,36.36,44.58,36.37,44.66Zm-.53-.74h0a.63.63,0,0,0,0-.11c0-.11-.07-.16-.21-.16a.65.65,0,0,0-.41.25q-.23.25-.22.38s.06.05.14.06a.69.69,0,0,0,.27-.05A.72.72,0,0,0,35.84,43.92Z"/><path class="cls-3" d="M38.55,43.46a1.62,1.62,0,0,1-.22.42l-.36.56-.21.33c0,.06-.05.1,0,.1s.17,0,.34-.1l.34-.18c.1,0,.14,0,.14.08s-.11.18-.34.3a1.34,1.34,0,0,1-.79.21.16.16,0,0,1-.1-.06.11.11,0,0,1,0,0,.63.63,0,0,1,.11-.27l-.16.14-.25.12a1,1,0,0,1-.59.12c-.1,0-.14-.08-.11-.21s.1-.19.27-.5l.19-.34a4.08,4.08,0,0,1,.46-.69.22.22,0,0,1,.23,0c.08,0,.11,0,.11.09a1.62,1.62,0,0,1-.22.42l-.36.56-.21.33c0,.06-.05.1,0,.1s.28,0,.61-.25a1.18,1.18,0,0,0,.34-.37l.28-.46q.13-.21.26-.37a.21.21,0,0,1,.15-.06.35.35,0,0,1,.15,0A.06.06,0,0,1,38.55,43.46Z"/><path class="cls-3" d="M40.43,44.66s0,.11-.13.18L40.1,45a2.05,2.05,0,0,1-1,.23.59.59,0,0,1-.21,0q-.27,0-.27-.45v0L37.87,46a.78.78,0,0,1-.14.19.37.37,0,0,1-.24,0l-.07,0s0-.06,0-.13L38.66,44a6,6,0,0,1,.41-.63.27.27,0,0,1,.24-.05c.07,0,.1,0,.09.09a.63.63,0,0,1-.07.18.91.91,0,0,1,.55-.24q.32,0,.34.38a1.43,1.43,0,0,1-.6,1.18.6.6,0,0,0,.34-.11l.33-.18C40.39,44.56,40.43,44.58,40.43,44.66Zm-.62-.73c0-.18,0-.27-.19-.27a.75.75,0,0,0-.55.36,1.09,1.09,0,0,0-.27.64q0,.18.18.18a.7.7,0,0,0,.45-.22A1.08,1.08,0,0,0,39.82,43.93Z"/><path class="cls-11" d="M24,45.5"/><path class="cls-3" d="M33.62,50.73a1.28,1.28,0,0,0-1.34-1,3.44,3.44,0,0,0-2.56,1.18,12,12,0,0,0-1.55,1.92L28,53l-.21.32-.23.34v0a.09.09,0,0,1-.1.05h-.34c-.08,0-.1,0-.08-.12l.47-1.36A9.18,9.18,0,0,1,28.08,51,19.22,19.22,0,0,0,26,53.7l0,0a.12.12,0,0,1-.09.05h-.34q-.12,0-.08-.12.54-1.87,1.2-3.52H26.6a6.85,6.85,0,0,1-1.44-.21,1.74,1.74,0,0,0-.52,0q-1,.08-1,.78a.48.48,0,0,0,.26.45.85.85,0,0,0,.54.09.81.81,0,0,0,.44-.2.73.73,0,0,0,.24-.4c0-.13,0-.21-.14-.21a.35.35,0,0,0-.22.07.21.21,0,0,0-.11.17c-.07,0-.09-.12-.05-.22a.48.48,0,0,1,.5-.29.35.35,0,0,1,.34.36,1,1,0,0,1-.36.73,1.17,1.17,0,0,1-.63.29,1.2,1.2,0,0,1-.63-.09.9.9,0,0,1-.46-.38.72.72,0,0,1-.11-.45,1.08,1.08,0,0,1,.19-.47,1.79,1.79,0,0,1,1.75-.7l1,.12.56,0h.45l.13,0c.06,0,.1,0,.11,0a0,0,0,0,1,0,0,.81.81,0,0,1-.06.17v0h0l0,.07q-.45,1.19-1,2.66a15,15,0,0,1,2.15-2.37l.27-.24s0,0,0,0V50a1.8,1.8,0,0,1-.11.34q-.36.92-.78,2.18A12,12,0,0,1,29.6,50.6a3.9,3.9,0,0,1,2.74-1.18,1.56,1.56,0,0,1,1.23.54.87.87,0,0,1,.21.5A.28.28,0,0,1,33.62,50.73Z"/><path class="cls-3" d="M30.7,53.28q0,.11-.34.3a1.34,1.34,0,0,1-.79.21c-.09,0-.12-.08-.1-.21a.83.83,0,0,1-.52.23q-.41,0-.41-.53a1.44,1.44,0,0,1,.49-1,1,1,0,0,1,.69-.37q.39,0,.38.48l.18-.27a.3.3,0,0,1,.29-.1c.07,0,.11,0,.1.09s-.19.35-.54.94l-.25.43c.06,0,.17,0,.34-.1l.33-.18C30.65,53.18,30.7,53.21,30.7,53.28Zm-.82-.5a.69.69,0,0,0,0-.33.2.2,0,0,0-.21-.19.63.63,0,0,0-.47.3,1,1,0,0,0-.21.57q0,.33.26.33a.55.55,0,0,0,.4-.24l.08-.15.14-.25Z"/><path class="cls-3" d="M32.57,53.11q0,.11-.27.37l-.18.13a1,1,0,0,1-.54.24q-.31,0-.36-.34a1.07,1.07,0,0,1,.18-.57l.2-.36.07-.15a1.33,1.33,0,0,0-.3-.11l-.3.59a1.39,1.39,0,0,1-.26.33q-.22.23-.3.25a.16.16,0,0,1-.11,0,.13.13,0,0,1,0-.11l0,0c.14-.14.31-.32.49-.52a1.61,1.61,0,0,0,.16-.3,3.14,3.14,0,0,0,.14-.45l0-.16,0-.14a.15.15,0,0,1,.11-.08.13.13,0,0,1,.15.08.29.29,0,0,1,0,.21l0,.11.1,0,0,0,.25.11.19,0a.15.15,0,0,1,.07.11.81.81,0,0,1-.13.28l-.2.34a1.52,1.52,0,0,0-.23.55.07.07,0,0,0,0,.05s.13,0,.29-.08.21-.16.51-.41l.07,0A.1.1,0,0,1,32.57,53.11Z"/><path class="cls-3" d="M35.22,51a1.83,1.83,0,0,1-.22.42l-1,1.63a4.51,4.51,0,0,0-.25.43c.06,0,.17,0,.34-.1l.33-.18c.09,0,.14,0,.15.08s-.11.17-.34.3a1.34,1.34,0,0,1-.79.21c-.09,0-.12-.08-.1-.21v0a.8.8,0,0,1-.53.25q-.41,0-.41-.53a1.44,1.44,0,0,1,.49-1,1,1,0,0,1,.69-.37q.43,0,.38.55l.53-.88a6.72,6.72,0,0,1,.41-.64.26.26,0,0,1,.23,0C35.19,50.93,35.22,51,35.22,51Zm-1.49,1.78a.69.69,0,0,0,0-.33.2.2,0,0,0-.21-.19.63.63,0,0,0-.47.3,1,1,0,0,0-.21.57q0,.33.26.33t.46-.32l0-.07A2.32,2.32,0,0,0,33.73,52.79Z"/><path class="cls-3" d="M36.47,53.11q0,.11-.27.37L36,53.6a1,1,0,0,1-.54.24q-.31,0-.36-.34a1.07,1.07,0,0,1,.18-.57l.2-.36.07-.15a1.33,1.33,0,0,0-.3-.11l-.3.59a1.39,1.39,0,0,1-.26.33q-.22.23-.3.25a.16.16,0,0,1-.11,0,.13.13,0,0,1,0-.11l0,0c.14-.14.31-.32.49-.52a1.61,1.61,0,0,0,.16-.3,3.14,3.14,0,0,0,.14-.45l0-.16,0-.14a.15.15,0,0,1,.11-.08.13.13,0,0,1,.15.08.29.29,0,0,1,0,.21l0,.11.1,0,0,0,.25.11.19,0a.15.15,0,0,1,.07.11.81.81,0,0,1-.13.28l-.2.34a1.52,1.52,0,0,0-.23.55.07.07,0,0,0,0,.05s.13,0,.29-.08.21-.16.51-.41l.07,0A.1.1,0,0,1,36.47,53.11Z"/><path class="cls-3" d="M38,53.28q0,.12-.34.3a.83.83,0,0,1-.47.09l-.16,0a1.09,1.09,0,0,1-.37.16.74.74,0,0,1-.5,0,.39.39,0,0,1-.24-.4,1.57,1.57,0,0,1,.58-1.1,1,1,0,0,1,.72-.34.43.43,0,0,1,.5.48,1.5,1.5,0,0,1-.41,1l.09,0a.45.45,0,0,0,.22-.06l.24-.14C38,53.18,38,53.21,38,53.28Zm-.6-.83a.21.21,0,0,0-.23-.18.7.7,0,0,0-.47.28,1,1,0,0,0-.28.6c0,.23.1.34.31.31a.56.56,0,0,1-.08-.2.5.5,0,0,1,.21-.48.68.68,0,0,0,.23.48A.88.88,0,0,0,37.44,52.45Z"/><path class="cls-3" d="M40,53.28q0,.22-.57.39a3,3,0,0,1-.74.14.5.5,0,0,1-.2,0q-.31,0-.27-.44l0,.08-.09.14a.76.76,0,0,1-.14.19.33.33,0,0,1-.24,0,.1.1,0,0,1-.07,0,3.78,3.78,0,0,1,.38-.71l.87-1.48q.19-.32.41-.64a.26.26,0,0,1,.23-.05l.08,0a.05.05,0,0,1,0,.05,1.69,1.69,0,0,1-.22.43l-.45.73a.85.85,0,0,1,.5-.2q.31,0,.34.38a1.44,1.44,0,0,1-.59,1.18.6.6,0,0,0,.34-.11l.33-.18C39.93,53.18,40,53.21,40,53.28Zm-.62-.73c0-.18,0-.27-.18-.27a.76.76,0,0,0-.53.33l-.25.41a.78.78,0,0,0,0,.26c0,.12.06.18.18.18a.71.71,0,0,0,.45-.22A1,1,0,0,0,39.35,52.56Z"/><path class="cls-3" d="M41.69,53.28c0,.07-.05.15-.18.22a2.28,2.28,0,0,1-1,.33q-.57,0-.62-.43a1.16,1.16,0,0,1,.25-.8,1.89,1.89,0,0,1,.44-.46.84.84,0,0,1,.5-.21.4.4,0,0,1,.33.15.42.42,0,0,1,.08.36.88.88,0,0,1-.14.33.94.94,0,0,1-.71.4.38.38,0,0,1-.3-.08q0,.4.38.43a1.27,1.27,0,0,0,.73-.23l.14-.08C41.63,53.18,41.68,53.21,41.69,53.28Zm-.53-.74h0a.62.62,0,0,0,0-.11c0-.11-.07-.16-.21-.16a.65.65,0,0,0-.41.25q-.23.25-.22.38s.06.05.14.06a.67.67,0,0,0,.27-.05A.71.71,0,0,0,41.16,52.54Z"/><path class="cls-3" d="M30.51,58.16l-.22.37a19.12,19.12,0,0,0-.91,1.76,15,15,0,0,0-.73,1.86.62.62,0,0,1-.11.2l-.09,0-.46.05c-.06,0-.09,0-.1,0v-.13a2.35,2.35,0,0,0-.37-1.4,7.25,7.25,0,0,1-2.06,1.39,2.12,2.12,0,0,1-.69.12,2,2,0,0,1-.38,0q-.75-.18-.75-.83a1.27,1.27,0,0,1,.32-.81,1.84,1.84,0,0,1,.7-.53,1.67,1.67,0,0,1,.46-.12.71.71,0,0,1,.46.11.48.48,0,0,1,.23.37.62.62,0,0,1-.13.43q-.06-.64-.63-.6a1.23,1.23,0,0,0-.64.25,1.39,1.39,0,0,0-.36.43.73.73,0,0,0-.09.54q.13.49.79.49a4.43,4.43,0,0,0,2.51-1.44,1.05,1.05,0,0,0-.6-.17,1.26,1.26,0,0,0-.64.16q0-.25.4-.35a1.5,1.5,0,0,1,.59,0,1.07,1.07,0,0,1,.44.18L28,60l1.38-1.39-1.19-.21-.25,0h-.23a1.42,1.42,0,0,0-.65.19.61.61,0,0,0-.35.53.35.35,0,0,0,.23.32.83.83,0,0,0,.42.06.86.86,0,0,0,.41-.16A.84.84,0,0,0,28,59a.09.09,0,0,0,0-.1.12.12,0,0,0-.11-.07.27.27,0,0,0-.33.19c-.06,0-.07-.1,0-.18a.44.44,0,0,1,.5-.23.28.28,0,0,1,.22.42,1.16,1.16,0,0,1-.47.53,1.32,1.32,0,0,1-.7.2.8.8,0,0,1-.76-.41.51.51,0,0,1,0-.37,1.16,1.16,0,0,1,.77-.79A2.66,2.66,0,0,1,28.26,58l.78.1a5.42,5.42,0,0,0,.78.07l.34,0a1,1,0,0,1,.27,0c.06,0,.09,0,.09.06A.12.12,0,0,1,30.51,58.16Zm-1.77,2.26L29.57,59,27.73,60.7a2.3,2.3,0,0,1,.49.86A7.46,7.46,0,0,1,28.74,60.41Z"/><path class="cls-3" d="M31,61.81a.16.16,0,0,1,0,.12l-.29.18a2,2,0,0,1-.89.24q-.56,0-.62-.43a1.43,1.43,0,0,1,.48-1.1,1,1,0,0,1,.7-.37.38.38,0,0,1,.43.35.47.47,0,0,1-.24.44.65.65,0,0,1-.3.13.57.57,0,0,0,.26-.41q0-.18-.2-.18a.63.63,0,0,0-.43.28,1,1,0,0,0-.25.59q0,.35.38.37a1.64,1.64,0,0,0,.88-.3C31,61.7,31,61.73,31,61.81Z"/><path class="cls-3" d="M32.72,61.81a.16.16,0,0,1,0,.12l-.29.18a2,2,0,0,1-.89.24q-.56,0-.62-.43a1.43,1.43,0,0,1,.48-1.1,1,1,0,0,1,.7-.37.38.38,0,0,1,.43.35.47.47,0,0,1-.24.44.65.65,0,0,1-.3.13A.57.57,0,0,0,32.2,61q0-.18-.2-.18a.63.63,0,0,0-.43.28,1,1,0,0,0-.25.59q0,.35.38.37a1.64,1.64,0,0,0,.88-.3C32.67,61.7,32.72,61.73,32.72,61.81Z"/><path class="cls-3" d="M34.39,61.81c0,.07-.05.15-.18.22a2.28,2.28,0,0,1-1,.33q-.57,0-.62-.43a1.16,1.16,0,0,1,.25-.8,1.87,1.87,0,0,1,.44-.46.83.83,0,0,1,.5-.21.4.4,0,0,1,.33.15.42.42,0,0,1,.08.36.88.88,0,0,1-.14.33.94.94,0,0,1-.71.4.38.38,0,0,1-.3-.08q0,.4.38.43a1.27,1.27,0,0,0,.73-.23l.14-.08C34.34,61.7,34.38,61.73,34.39,61.81Zm-.53-.74h0a.62.62,0,0,0,0-.11c0-.11-.07-.16-.21-.16a.64.64,0,0,0-.41.25q-.23.25-.22.38s.06.05.14.06a.69.69,0,0,0,.27-.05A.72.72,0,0,0,33.87,61.06Z"/><path class="cls-3" d="M36.2,61.63c0,.08-.07.2-.27.37a3.16,3.16,0,0,1-.51.31,1.56,1.56,0,0,1-.55.1h0a.73.73,0,0,1-.34-.09.34.34,0,0,1-.19-.27.5.5,0,0,1,0-.18.87.87,0,0,1-.18.13Q34,62,34,61.86l0,0a4.69,4.69,0,0,0,.48-.52,2.17,2.17,0,0,0,.3-.75l.06-.3a.17.17,0,0,1,.12-.07.14.14,0,0,1,.13.09.33.33,0,0,1,0,.2l0,0q0,.09.26.13h.06a.09.09,0,0,1,0,.07.67.67,0,0,0-.09.38l.13.53,0,.12a.63.63,0,0,1,0,.3,4.52,4.52,0,0,0,.58-.44.12.12,0,0,1,.11,0A.07.07,0,0,1,36.2,61.63ZM35.12,62a.81.81,0,0,0,0-.36L35,61l0,0a5,5,0,0,1-.38.6.13.13,0,0,1,.13,0,.15.15,0,0,1,0,.14.44.44,0,0,1-.07.12.39.39,0,0,0-.07.11.13.13,0,0,0,.07.11.3.3,0,0,0,.3,0A.25.25,0,0,0,35.12,62Z"/><path class="cls-3" d="M37.94,61.63c0,.08-.07.2-.27.37a3.16,3.16,0,0,1-.51.31,1.56,1.56,0,0,1-.55.1h0a.73.73,0,0,1-.34-.09A.34.34,0,0,1,36,62a.5.5,0,0,1,0-.18.87.87,0,0,1-.18.13q-.15,0-.14-.14l0,0a4.69,4.69,0,0,0,.48-.52,2.17,2.17,0,0,0,.3-.75l.06-.3a.17.17,0,0,1,.12-.07.14.14,0,0,1,.13.09.33.33,0,0,1,0,.2l0,0q0,.09.26.13h.06a.09.09,0,0,1,0,.07.67.67,0,0,0-.09.38l.13.53,0,.12a.63.63,0,0,1,0,.3,4.52,4.52,0,0,0,.58-.44.12.12,0,0,1,.11,0A.07.07,0,0,1,37.94,61.63ZM36.85,62a.81.81,0,0,0,0-.36L36.69,61l0,0a5,5,0,0,1-.38.6.13.13,0,0,1,.13,0,.15.15,0,0,1,0,.14.44.44,0,0,1-.07.12.39.39,0,0,0-.07.11.13.13,0,0,0,.07.11.3.3,0,0,0,.3,0A.25.25,0,0,0,36.85,62Z"/><path class="cls-3" d="M39.74,61.81q0,.12-.34.3a.84.84,0,0,1-.47.09l-.16,0a1.11,1.11,0,0,1-.37.16.75.75,0,0,1-.5,0,.39.39,0,0,1-.24-.4,1.57,1.57,0,0,1,.58-1.1,1,1,0,0,1,.72-.34.43.43,0,0,1,.5.48,1.5,1.5,0,0,1-.41,1l.09,0a.45.45,0,0,0,.22-.06l.24-.14C39.69,61.7,39.74,61.73,39.74,61.81Zm-.6-.83a.21.21,0,0,0-.23-.18.7.7,0,0,0-.47.28,1,1,0,0,0-.28.6q0,.35.31.31a.56.56,0,0,1-.08-.2.5.5,0,0,1,.21-.48.68.68,0,0,0,.23.48A.88.88,0,0,0,39.14,61Z"/><path class="cls-3" d="M41.6,61.63q0,.11-.27.37l-.18.13a1,1,0,0,1-.54.24q-.31,0-.36-.34a1.07,1.07,0,0,1,.18-.57l.2-.36.07-.15a1.33,1.33,0,0,0-.3-.11l-.3.59a1.39,1.39,0,0,1-.26.33q-.22.23-.3.25a.16.16,0,0,1-.11,0,.13.13,0,0,1,0-.11l0,0,.49-.52a1.61,1.61,0,0,0,.16-.3,3.14,3.14,0,0,0,.14-.45l0-.16,0-.14a.15.15,0,0,1,.11-.08.12.12,0,0,1,.15.08.29.29,0,0,1,0,.21l0,.11.1,0,0,0,.25.11.19,0a.15.15,0,0,1,.07.11.82.82,0,0,1-.13.28l-.2.34a1.52,1.52,0,0,0-.23.55.07.07,0,0,0,0,.05s.13,0,.29-.08l.51-.41.07,0A.1.1,0,0,1,41.6,61.63Z"/><path class="cls-3" d="M42.51,61.81q0,.11-.34.3a1.32,1.32,0,0,1-.77.21c-.1,0-.14-.08-.11-.21a3.43,3.43,0,0,1,.27-.5l.21-.37a5.7,5.7,0,0,1,.41-.65.27.27,0,0,1,.23,0l.08,0a.05.05,0,0,1,0,.05s-.19.36-.57,1l-.14.24-.08.15,0,0c.07,0,.18,0,.34-.1l.33-.18C42.46,61.7,42.51,61.73,42.51,61.81Zm.54-2a.5.5,0,0,1-.09.23q-.23.34-.47.34c-.07,0-.11,0-.11-.11a.48.48,0,0,1,.09-.23q.23-.34.47-.34C43,59.72,43,59.76,43,59.83Z"/><path class="cls-3" d="M44.2,61.81c0,.07-.05.15-.18.22a2.28,2.28,0,0,1-1,.33q-.57,0-.62-.43a1.16,1.16,0,0,1,.25-.8,1.87,1.87,0,0,1,.44-.46.83.83,0,0,1,.5-.21.4.4,0,0,1,.33.15.42.42,0,0,1,.08.36.88.88,0,0,1-.14.33.94.94,0,0,1-.71.4.38.38,0,0,1-.3-.08q0,.4.38.43a1.27,1.27,0,0,0,.73-.23l.14-.08C44.15,61.7,44.19,61.73,44.2,61.81Zm-.53-.74h0a.62.62,0,0,0,0-.11c0-.11-.07-.16-.21-.16a.64.64,0,0,0-.41.25q-.23.25-.22.38s.06.05.14.06a.69.69,0,0,0,.27-.05A.72.72,0,0,0,43.67,61.06Z"/><path class="cls-3" d="M46,61.63c0,.08-.07.2-.27.37a3.16,3.16,0,0,1-.51.31,1.56,1.56,0,0,1-.55.1h0a.73.73,0,0,1-.34-.09.34.34,0,0,1-.19-.27.5.5,0,0,1,0-.18A.87.87,0,0,1,44,62q-.15,0-.14-.14l0,0a4.69,4.69,0,0,0,.48-.52,2.17,2.17,0,0,0,.3-.75l.06-.3a.17.17,0,0,1,.12-.07.14.14,0,0,1,.13.09.33.33,0,0,1,0,.2l0,0q0,.09.26.13h.06a.09.09,0,0,1,0,.07.67.67,0,0,0-.09.38l.13.53,0,.12a.63.63,0,0,1,0,.3,4.52,4.52,0,0,0,.58-.44.12.12,0,0,1,.11,0A.07.07,0,0,1,46,61.63ZM44.93,62a.81.81,0,0,0,0-.36L44.77,61l0,0a5,5,0,0,1-.38.6.13.13,0,0,1,.13,0,.15.15,0,0,1,0,.14.44.44,0,0,1-.07.12.39.39,0,0,0-.07.11.13.13,0,0,0,.07.11.3.3,0,0,0,.3,0A.25.25,0,0,0,44.93,62Z"/><path class="cls-3" d="M30.23,67.65q0,.37-.57.76a2.81,2.81,0,0,1-.9.4h0q1,.39,1,1a.87.87,0,0,1-.32.64,2.82,2.82,0,0,1-1.28.65,4.61,4.61,0,0,1-1.06.1,4.73,4.73,0,0,1-1.17-.14,2.62,2.62,0,0,1-.44.1A2,2,0,0,1,24.4,71c-.15-.07-.22-.12-.23-.16a.91.91,0,0,1-.31-.7,1.11,1.11,0,0,1,.82-1.11,1,1,0,0,1,.47,0,.78.78,0,0,1,.45.2.58.58,0,0,1,.17.46.88.88,0,0,0-.64-.38.9.9,0,0,0-.66.24.83.83,0,0,0-.27.64.68.68,0,0,0,.21.5.87.87,0,0,0,.64.25l.18,0,.17,0a1.26,1.26,0,0,1-.37-.31.7.7,0,0,1-.19-.45.54.54,0,0,1,.16-.34.35.35,0,0,1,.19-.1,1.21,1.21,0,0,0,0,.16,1,1,0,0,0,.63.89,2.31,2.31,0,0,0,.77-.77q.1-.15.74-1.3l.08-.15.09-.16a2.15,2.15,0,0,1,1.18-1.12l.13,0,.17,0A5.69,5.69,0,0,0,27.74,69a6.45,6.45,0,0,1-1,1.54,1.92,1.92,0,0,1-.42.34l.5,0a3.09,3.09,0,0,0,1.7-.47,1,1,0,0,0,.54-.82q0-.71-1-.77c-.09,0-.14,0-.14-.11a.15.15,0,0,1,.06-.09l.15,0A2.9,2.9,0,0,0,29.5,68a.57.57,0,0,0,.25-.51q-.11-.51-1.2-.59l-.37,0a2.83,2.83,0,0,0-1.62.43c-.21.14-.32.29-.32.44a.6.6,0,0,0,0,.14c.06.1.2.16.41.16a1,1,0,0,0,.46-.12.7.7,0,0,0,.31-.31.11.11,0,0,0,0-.1.13.13,0,0,0-.12-.05.4.4,0,0,0-.18.05c-.07,0-.11.07-.12.12a.08.08,0,0,1,0-.06.18.18,0,0,1,0-.09l0,0a.44.44,0,0,1,.44-.17c.14,0,.21.09.21.21a.6.6,0,0,1-.23.41,1.29,1.29,0,0,1-.91.37.7.7,0,0,1-.68-.33.39.39,0,0,1,0-.25q0-.32.45-.6a3.32,3.32,0,0,1,1.81-.44,4,4,0,0,1,1.25.19Q30.23,67.14,30.23,67.65Z"/><path class="cls-3" d="M31.52,70.56c0,.07-.05.15-.18.22a2.28,2.28,0,0,1-1,.33q-.57,0-.62-.43a1.16,1.16,0,0,1,.25-.8,1.87,1.87,0,0,1,.44-.46.83.83,0,0,1,.5-.21.4.4,0,0,1,.33.15.42.42,0,0,1,.08.36.88.88,0,0,1-.14.33.94.94,0,0,1-.71.4.38.38,0,0,1-.3-.08q0,.4.38.43a1.27,1.27,0,0,0,.73-.23l.14-.08C31.46,70.45,31.51,70.48,31.52,70.56ZM31,69.81h0a.62.62,0,0,0,0-.11c0-.11-.07-.16-.21-.16a.64.64,0,0,0-.41.25q-.23.25-.22.38s.06.05.14.06a.69.69,0,0,0,.27-.05A.72.72,0,0,0,31,69.81Z"/><path class="cls-3" d="M32.46,70.56q0,.11-.34.3a1.32,1.32,0,0,1-.77.21c-.1,0-.14-.08-.11-.21a3.43,3.43,0,0,1,.27-.5l.21-.37a5.7,5.7,0,0,1,.41-.65.27.27,0,0,1,.23,0l.08,0a.05.05,0,0,1,0,.05s-.19.36-.57,1l-.14.24-.08.15,0,0c.07,0,.18,0,.34-.1l.33-.18C32.41,70.45,32.46,70.48,32.46,70.56Zm.54-2a.5.5,0,0,1-.09.23q-.23.34-.47.34c-.07,0-.11,0-.11-.11a.48.48,0,0,1,.09-.23q.23-.34.47-.34C33,68.47,33,68.51,33,68.58Z"/><path class="cls-3" d="M34.37,70.56a.6.6,0,0,1-.06.13,2.66,2.66,0,0,1-.74.38q-.4.08-.44-.05c0-.07.07-.26.29-.56a2.56,2.56,0,0,0,.38-.63c0-.18,0-.27-.13-.27s-.33.13-.55.39l-.57.93a.37.37,0,0,1-.38.22s-.06,0-.07,0,0-.07,0-.12l.61-1a6,6,0,0,1,.41-.64.23.23,0,0,1,.24,0c.07,0,.11,0,.1.09a.6.6,0,0,1,0,.12A1,1,0,0,1,34,69.2q.32,0,.31.38a1.1,1.1,0,0,1-.23.62l-.28.39a.32.32,0,0,0-.08.16s0,0,0,0l.54-.28C34.33,70.46,34.37,70.49,34.37,70.56Z"/><path class="cls-3" d="M36.34,70.56a.16.16,0,0,1-.05.12,3.45,3.45,0,0,1-.77.39l-.24.08-.44.73-.34.53-.2.24q-.19.22-.36.18c-.11,0-.16-.13-.16-.31a1.3,1.3,0,0,1,.2-.62,2.12,2.12,0,0,1,.4-.53A2,2,0,0,1,35,71l0-.08a.73.73,0,0,1-.41.15q-.36,0-.41-.41a1.42,1.42,0,0,1,.49-1.1,1,1,0,0,1,.66-.38q.41,0,.4.48a2.34,2.34,0,0,1,.18-.27.3.3,0,0,1,.28-.1c.08,0,.11,0,.11.09a1.83,1.83,0,0,1-.23.43l-.37.6-.24.4a2.28,2.28,0,0,0,.72-.34C36.29,70.45,36.34,70.48,36.34,70.56Zm-1.67,1,.1-.19a1.55,1.55,0,0,0-.56.46,1.33,1.33,0,0,0-.29.64.2.2,0,0,0,0,.1s0,0,0,0,.23-.21.44-.57Zm.86-1.46a.5.5,0,0,0,0-.43.22.22,0,0,0-.18-.08.6.6,0,0,0-.46.31,1,1,0,0,0-.21.56q0,.33.26.33a.52.52,0,0,0,.4-.25A1.28,1.28,0,0,0,35.52,70.05Z"/><path class="cls-3" d="M42.4,66.88q.06.38,0,.48a1.09,1.09,0,0,1-.84.32,2.67,2.67,0,0,1-.86-.18l-.21-.1a.7.7,0,0,0-.29.5.45.45,0,0,0,.21.35.65.65,0,0,0,.42.14l.51,0h.06q0,.3-.54.3h-.21a5.55,5.55,0,0,0-2.33.82.87.87,0,0,0-.41.5q0,.39.59.6a2.1,2.1,0,0,0,.63.1,2.7,2.7,0,0,0,.93-.18,1.51,1.51,0,0,0,.75-.56l0-.07a.09.09,0,0,1,.05.06,1.47,1.47,0,0,1-.24.73A1.39,1.39,0,0,1,40,71a2.43,2.43,0,0,1-.93.18,1.67,1.67,0,0,1-1.46-.63.92.92,0,0,1-.17-.52,1.39,1.39,0,0,1,.79-1.18,4.31,4.31,0,0,1,1.23-.41l.43-.06a.57.57,0,0,1-.23-.51.87.87,0,0,1,.41-.71L40,67.12a.5.5,0,0,1-.17-.36q0-.41.35-.37c.19,0,.29.08.29.21a.27.27,0,0,1,0,.07.23.23,0,0,0-.24-.15.18.18,0,0,0-.19.16q-.06.24.33.36l.14-.09a2.51,2.51,0,0,1,1.29-.44Q42.34,66.5,42.4,66.88Zm-.15,0s-.07,0-.18-.05a2.43,2.43,0,0,0-.83.12,5.09,5.09,0,0,0-.55.21q0,.11.72.1T42.25,66.91Z"/><path class="cls-3" d="M42.94,67.93a3.72,3.72,0,0,1-.4,1.07,4.83,4.83,0,0,1-1.24,1.54.82.82,0,0,0-.09.19,0,0,0,0,0,0,0,.78.78,0,0,0,.45-.13l.32-.15c.09,0,.14,0,.14.08s0,.07,0,.12a1.8,1.8,0,0,1-1,.39.26.26,0,0,1-.22-.09c-.05-.07,0-.18,0-.36l.16-.37a12.88,12.88,0,0,1,.59-1.2c.24-.41.37-.64.4-.66q.49-.82.78-.82c.1,0,.15.07.15.2A1.29,1.29,0,0,1,42.94,67.93Zm-.2.13,0-.09a.07.07,0,0,0,0,0,9.6,9.6,0,0,0-1.07,1.77l-.23.46a3.41,3.41,0,0,0,.61-.72,5.2,5.2,0,0,0,.63-1.23A1,1,0,0,1,42.74,68.06Z"/><path class="cls-3" d="M43.08,70.56q0,.11-.34.3a1.32,1.32,0,0,1-.77.21c-.1,0-.14-.08-.11-.21a3.43,3.43,0,0,1,.27-.5l.21-.37a5.7,5.7,0,0,1,.41-.65.27.27,0,0,1,.23,0l.08,0a.05.05,0,0,1,0,.05s-.19.36-.57,1l-.14.24-.08.15,0,0c.07,0,.18,0,.34-.1l.33-.18C43,70.45,43.08,70.48,43.08,70.56Zm.54-2a.5.5,0,0,1-.09.23q-.23.34-.47.34c-.07,0-.11,0-.11-.11a.48.48,0,0,1,.09-.23q.23-.34.47-.34C43.58,68.47,43.62,68.51,43.62,68.58Z"/><path class="cls-3" d="M45,68.74l0,.07a.05.05,0,0,1-.05,0h-.55l-.9,1.47a4.36,4.36,0,0,0-.25.43c.06,0,.17,0,.34-.1l.34-.18c.1,0,.14,0,.14.08s-.11.18-.34.3a1.34,1.34,0,0,1-.79.21c-.09,0-.12-.08-.1-.21a2.38,2.38,0,0,1,.26-.5l.9-1.49h-.36s0,0,0,0l0-.07a.07.07,0,0,1,.06,0H44a2.36,2.36,0,0,1,.3-.46.27.27,0,0,1,.23,0l.08,0a.05.05,0,0,1,0,.05,2.42,2.42,0,0,1-.22.42l0,0s0,0,0,0H45S45,68.71,45,68.74Z"/><path class="cls-3" d="M45.73,70.56c0,.07-.05.15-.18.22a2.28,2.28,0,0,1-1,.33q-.57,0-.62-.43a1.16,1.16,0,0,1,.25-.8,1.87,1.87,0,0,1,.44-.46.83.83,0,0,1,.5-.21.4.4,0,0,1,.33.15.42.42,0,0,1,.08.36.88.88,0,0,1-.14.33.94.94,0,0,1-.71.4.38.38,0,0,1-.3-.08q0,.4.38.43a1.27,1.27,0,0,0,.73-.23l.14-.08C45.67,70.45,45.72,70.48,45.73,70.56Zm-.53-.74h0a.62.62,0,0,0,0-.11c0-.11-.07-.16-.21-.16a.64.64,0,0,0-.41.25q-.23.25-.22.38s.06.05.14.06a.69.69,0,0,0,.27-.05A.72.72,0,0,0,45.2,69.81Z"/></g></g></svg>