<svg xmlns="http://www.w3.org/2000/svg" viewBox="0 0 95 95.01"><defs><style>.cls-1,.cls-12{fill:none;}.cls-1{stroke:#f16162;}.cls-1,.cls-10,.cls-11,.cls-12,.cls-2,.cls-3,.cls-4,.cls-5,.cls-9{stroke-miterlimit:10;}.cls-2,.cls-3,.cls-8{fill:#ffcd05;}.cls-10,.cls-11,.cls-12,.cls-2,.cls-3,.cls-4,.cls-5,.cls-9{stroke:#fff;}.cls-2{stroke-width:0.2px;}.cls-3,.cls-4,.cls-5{stroke-width:0.25px;}.cls-10,.cls-11,.cls-4{fill:#a51e22;}.cls-5,.cls-9{fill:#f15f63;}.cls-6{fill:#f9ef66;}.cls-7{fill:#fff;}.cls-9{stroke-width:0.15px;}.cls-10,.cls-12{stroke-width:0.05px;}.cls-11{stroke-width:0.1px;}</style></defs><title>wardrobe</title><g id="Layer_2" data-name="Layer 2"><g id="Layer_7" data-name="Layer 7"><rect class="cls-1" x="14.41" y="14.41" width="66.18" height="66.18" transform="translate(-19.68 47.5) rotate(-45)"/><path class="cls-2" d="M39.22,80.74a1.8,1.8,0,0,0-1.56-.9H36.49l.06,0a7.69,7.69,0,0,1-.25-3.11,15.06,15.06,0,0,0,0-4l-.28-2a9.34,9.34,0,0,1,0-2.86,18.32,18.32,0,0,0,0-6.14,9.34,9.34,0,0,1,0-2.86l.28-2a15.06,15.06,0,0,0,0-4,7.69,7.69,0,0,1,.25-3.11H34a7.62,7.62,0,0,1,.24,3.09,14.86,14.86,0,0,0,0,3.94l.29,2a8.61,8.61,0,0,1,0,2.86,18.32,18.32,0,0,0,0,6.14,9.34,9.34,0,0,1,0,2.86l-.29,2.05a14.77,14.77,0,0,0,0,3.91A7.69,7.69,0,0,1,34,79.82l.06,0H32.91a1.8,1.8,0,0,0-1.56.9l-2.89,5h.29a1.8,1.8,0,0,0,1.56-.9L32,81.92a1.8,1.8,0,0,1,1.56-.9H37a1.8,1.8,0,0,1,1.56.9l1.69,2.93a1.8,1.8,0,0,0,1.56.9h.29Z"/><path class="cls-3" d="M36.21,18.12a12.71,12.71,0,0,1,0-3.43l.31-2.45a20.62,20.62,0,0,0,0-4.83,7.66,7.66,0,0,0-.2-1,.92.92,0,0,0-1.81,0,7.72,7.72,0,0,0-.21,1,20.34,20.34,0,0,0,0,4.8l.31,2.48a11.78,11.78,0,0,1,0,3.48Z"/><path class="cls-4" d="M27.7,20.48a3.61,3.61,0,0,1,.85-3.24c1.12-1.2,3.23-2.45,6.87-2.45s5.74,1.25,6.87,2.45a3.61,3.61,0,0,1,.85,3.24L40.22,31.92c-.41,1.79,2.86,8.12,3.64,12l1.24,6.3c.3,1.5-.5.6-1.73.87l-.56.12a34.57,34.57,0,0,1-14.66,0l-.67-.15c-1.23-.27-2,.64-1.73-.87L27,44c.77-3.92,4.07-10.25,3.66-12Z"/><path class="cls-5" d="M47,51.94c-.46-.3-3.08-.41-3.46.36h0a3.11,3.11,0,0,1-3.19.35h0c-1-.36-2.17.34-3.19.71h0a4.81,4.81,0,0,1-3.19,0h0c-1-.36-2.17-1.07-3.19-.71h0c-1,.36-2.17.87-3.19-.35h0c-1-1.2-3.14-.74-3.15-.38l4.22-12.79c2.62.18,3.88,1,6.68,1s4.15-.81,6.88-1Z"/><path class="cls-6" d="M32.9,39.13l-3.64-.78a.12.12,0,0,1-.1-.13l.27-2.83c.07-.75.58-4,.71-4.7s-1.33-5-1.87-5.92a3.87,3.87,0,0,1,.08-4.06l2-4.65a1.27,1.27,0,0,1,.9-.64.44.44,0,0,1,.39.24l2.19,4.89a2,2,0,0,0,1.78,1.23,1.94,1.94,0,0,0,1.75-1.16l2.23-5a.44.44,0,0,1,.4-.25,1.27,1.27,0,0,1,.89.62l2,4.58a4,4,0,0,1,.07,4.11c-.54,1-2,5.27-1.87,6s.65,4,.74,4.77L42,38.21a.12.12,0,0,1-.1.13l-3.64.78Z"/><path class="cls-7" d="M40,15.53a1.15,1.15,0,0,1,.79.56l1.95,4.56,0,.07a3.84,3.84,0,0,1,0,3.93c-.5.89-2,5.28-1.88,6s.65,4,.73,4.76l.28,2.76L38.29,39H32.9l-3.61-.78.27-2.83c.08-.76.58-4,.71-4.69s-1.37-5.14-1.88-6a3.77,3.77,0,0,1,.08-3.93l2-4.67a1.15,1.15,0,0,1,.79-.57.31.31,0,0,1,.29.17L33.7,20.6a2.13,2.13,0,0,0,1.9,1.3h.08a2,2,0,0,0,1.79-1.23l2.23-5a.31.31,0,0,1,.28-.17m0-.25h0a.56.56,0,0,0-.5.3l-2.24,5a1.79,1.79,0,0,1-1.57,1.08h-.07a1.87,1.87,0,0,1-1.67-1.15l-2.19-4.88a.57.57,0,0,0-.51-.32,1.37,1.37,0,0,0-1,.69l-2,4.7a4,4,0,0,0-.06,4.15c.53.9,2,5.15,1.85,5.83s-.64,4-.72,4.71L29,38.2a.25.25,0,0,0,.2.27l3.61.78h5.5L42,38.47a.25.25,0,0,0,.2-.27l-.28-2.76c-.08-.77-.6-4-.74-4.78s1.33-5,1.86-5.88a4.08,4.08,0,0,0,0-4.19l0-.07L41,16a1.39,1.39,0,0,0-1-.71Z"/><path class="cls-5" d="M53.51,71.32l-1.75,4.46h0L50,71.32a3.5,3.5,0,0,1-.56-1.9h0c1.08-3.62.68-3.62.42-6.57l-.06-.66a1.9,1.9,0,0,1,.38-1.32l.07-.09a1.9,1.9,0,0,1,3,0h0a1.9,1.9,0,0,1,.36,1.5l-.14.76c-1.73,2.87-.53,3.41.6,6.37h0A3.5,3.5,0,0,1,53.51,71.32Z"/><path class="cls-6" d="M51.74,76a.12.12,0,0,1-.12-.08l-1.77-4.51a3.57,3.57,0,0,1-.57-1.93.13.13,0,0,1,.06-.12l.06,0a.12.12,0,0,1,.09,0h0l0,0a2.5,2.5,0,0,0,2.35,1.88,2.07,2.07,0,0,0,2.06-1.87.12.12,0,0,1,.12-.1h0a.13.13,0,0,1,.11.13,3.62,3.62,0,0,1-.58,2l-1.76,4.49A.12.12,0,0,1,51.74,76Z"/><path class="cls-7" d="M54.07,69.42a3.5,3.5,0,0,1-.56,1.9l-1.77,4.51L50,71.32a3.5,3.5,0,0,1-.56-1.9,2.62,2.62,0,0,0,2.47,2,2.2,2.2,0,0,0,2.19-2m-4.66,0h0m4.66-.25a.25.25,0,0,0-.25.21,2,2,0,0,1-1.94,1.77,2.38,2.38,0,0,1-2.23-1.8.25.25,0,0,0-.24-.18h0a.25.25,0,0,0-.21.25,3.75,3.75,0,0,0,.6,2l1.75,4.47a.25.25,0,0,0,.47,0l1.77-4.51a3.66,3.66,0,0,0,.58-2,.25.25,0,0,0-.23-.25Zm0,.5h0Z"/><path class="cls-6" d="M53.46,62.47a.78.78,0,0,1-.49-.29,2.25,2.25,0,0,0-1.5-.79,1.36,1.36,0,0,0-1.12.68c-.14.21-.26.3-.37.3a.21.21,0,0,1-.2-.13A2.47,2.47,0,0,1,50,60.6l.07-.09a2,2,0,0,1,3.23,0,2.77,2.77,0,0,1,.39,1.81A.26.26,0,0,1,53.46,62.47Z"/><path class="cls-7" d="M51.7,59.84a1.89,1.89,0,0,1,1.51.75h0c.27.35.63,1.76.25,1.76-.09,0-.22-.08-.4-.26a2.35,2.35,0,0,0-1.59-.83,1.48,1.48,0,0,0-1.23.73c-.12.18-.21.25-.27.25-.26,0-.08-1.26.15-1.57l.07-.09a1.89,1.89,0,0,1,1.51-.75m0-.25a2.14,2.14,0,0,0-1.71.85l-.07.09a2.55,2.55,0,0,0-.26,1.76.34.34,0,0,0,.31.2c.21,0,.37-.19.48-.36a1.26,1.26,0,0,1,1-.62,2.14,2.14,0,0,1,1.42.76.87.87,0,0,0,.58.33.38.38,0,0,0,.35-.22,2.82,2.82,0,0,0-.4-1.94,2.14,2.14,0,0,0-1.71-.85Z"/><path class="cls-5" d="M55.82,71.32l1.75,4.46h0l1.75-4.46a3.5,3.5,0,0,0,.56-1.9h0c-1.07-3.62-1.07-3.62-.42-6.57l.06-.66a1.9,1.9,0,0,0-.38-1.32l-.07-.09a1.9,1.9,0,0,0-3,0h0a1.9,1.9,0,0,0-.36,1.5l.14.76c1.73,2.87.53,3.41-.6,6.37h0A3.5,3.5,0,0,0,55.82,71.32Z"/><path class="cls-6" d="M57.59,76a.12.12,0,0,1-.12-.08L55.7,71.37a3.58,3.58,0,0,1-.57-1.95.13.13,0,0,1,.11-.12h0a.12.12,0,0,1,.12.1,2.07,2.07,0,0,0,2.06,1.87,2.5,2.5,0,0,0,2.35-1.89.13.13,0,0,1,.12-.09h0a.13.13,0,0,1,.11.12,3.62,3.62,0,0,1-.58,2L57.7,75.89A.12.12,0,0,1,57.59,76Z"/><path class="cls-7" d="M59.92,69.42h0m0,0h0m-4.66,0a2.2,2.2,0,0,0,2.19,2,2.62,2.62,0,0,0,2.47-2,3.5,3.5,0,0,1-.56,1.9l-1.77,4.51-1.77-4.51a3.5,3.5,0,0,1-.56-1.9m0-.25h0a.25.25,0,0,0-.23.25,3.75,3.75,0,0,0,.6,2l1.75,4.47a.25.25,0,0,0,.47,0l1.77-4.51a3.65,3.65,0,0,0,.58-2,.24.24,0,0,0,0,0,.25.25,0,0,0-.25-.25h0a.25.25,0,0,0-.24.18,2.38,2.38,0,0,1-2.23,1.79,2,2,0,0,1-1.94-1.77.25.25,0,0,0-.25-.21Zm4.66.5h0Z"/><path class="cls-6" d="M55.86,62.47a.26.26,0,0,1-.24-.15A2.76,2.76,0,0,1,56,60.51a2,2,0,0,1,3.23,0l.07.09a2.47,2.47,0,0,1,.24,1.63.22.22,0,0,1-.2.13c-.12,0-.23-.09-.38-.3a1.36,1.36,0,0,0-1.12-.68,2.25,2.25,0,0,0-1.5.79.78.78,0,0,1-.49.29Z"/><path class="cls-7" d="M57.62,59.84a1.89,1.89,0,0,1,1.51.75l.07.09c.23.3.41,1.57.15,1.57-.06,0-.15-.07-.27-.25a1.48,1.48,0,0,0-1.23-.73,2.35,2.35,0,0,0-1.59.83c-.18.18-.31.26-.4.26-.39,0,0-1.41.25-1.76a1.89,1.89,0,0,1,1.51-.75m0-.25a2.14,2.14,0,0,0-1.71.85,2.82,2.82,0,0,0-.4,1.94.38.38,0,0,0,.35.22.87.87,0,0,0,.58-.33,2.14,2.14,0,0,1,1.42-.76,1.26,1.26,0,0,1,1,.62c.11.17.27.36.48.36a.34.34,0,0,0,.31-.2,2.55,2.55,0,0,0-.26-1.76l-.07-.09a2.14,2.14,0,0,0-1.71-.85Z"/><path class="cls-8" d="M65.61,34.2c-2.89,0-5.24,3.21-5.24,7.17s2.34,7.17,5.24,7.17,5.24-3.21,5.24-7.17S68.5,34.2,65.61,34.2Zm0,13.76C63,48,60.81,45,60.81,41.38s2.15-6.59,4.81-6.59,4.81,2.95,4.81,6.59S68.27,48,65.61,48Z"/><path class="cls-4" d="M70.71,51.58H60.51A1.33,1.33,0,0,1,59.19,50l1.11-7.53a1.33,1.33,0,0,1,1.32-1.14h8a1.33,1.33,0,0,1,1.32,1.14L72,50A1.33,1.33,0,0,1,70.71,51.58Z"/><path class="cls-9" d="M70.23,46.43l.05-5.21H60.95L61,46.43a2,2,0,0,0,1.3,1.86,10.42,10.42,0,0,0,6.63,0A2,2,0,0,0,70.23,46.43Z"/><path class="cls-8" d="M64.65,50.08a.87.87,0,0,1,.78.56c.1.31.27.31.37,0a.87.87,0,0,1,.78-.56c.33,0,.38-.16.11-.35a.87.87,0,0,1-.3-.91c.1-.31,0-.41-.3-.22a.87.87,0,0,1-1,0c-.26-.19-.4-.09-.3.22a.87.87,0,0,1-.3.91C64.28,49.92,64.33,50.08,64.65,50.08Zm.24-.36a.79.79,0,0,0,.17-.74c-.07-.21.06-.15.23,0a.52.52,0,0,0,.23.09,1.9,1.9,0,0,1,0,.29s0,.07.05.07.05-.07.05-.07a1.83,1.83,0,0,1,0-.29.52.52,0,0,0,.22-.09c.18-.13.27-.06.2.14a.59.59,0,0,0,.2.61c.18.13.14.23-.08.23a.59.59,0,0,0-.52.38c-.07.21-.18.21-.25,0A.59.59,0,0,0,65,50C64.75,50,64.71,49.85,64.89,49.72Z"/><path class="cls-10" d="M66.12,50.61V47.44h-1v3.17a.51.51,0,1,0,1,0Zm-.42-1.28a.09.09,0,1,1-.09-.09A.09.09,0,0,1,65.7,49.33Zm0,.61a.09.09,0,1,1-.09-.09A.09.09,0,0,1,65.7,49.94Zm0,.61a.09.09,0,1,1-.09-.09A.09.09,0,0,1,65.7,50.55Z"/><path class="cls-8" d="M66.33,49.72c.18.13.14.23-.08.23a.59.59,0,0,0-.52.38c-.07.21-.18.21-.25,0A.59.59,0,0,0,65,50c-.22,0-.25-.11-.08-.23h-.35c-.26.19-.21.35.11.35a.87.87,0,0,1,.78.56c.1.31.27.31.37,0a.87.87,0,0,1,.78-.56c.33,0,.38-.16.11-.35Zm-.77-.38s0,.37.05.37.05-.37.05-.37"/><path class="cls-8" d="M54.27,14.49a5.43,5.43,0,1,0,5.43,5.43A5.43,5.43,0,0,0,54.27,14.49Zm0,9.88a4.79,4.79,0,1,1,4.79-4.79A4.79,4.79,0,0,1,54.27,24.37Z"/><polygon class="cls-11" points="55.84 23.81 55.84 25.62 54.27 26.52 52.7 25.62 52.7 23.81 54.27 22.9 55.84 23.81"/><polygon class="cls-10" points="55.04 24.27 55.04 25.16 54.27 25.6 53.5 25.16 53.5 24.27 54.27 23.82 55.04 24.27"/><polyline class="cls-12" points="54.27 23.82 54.27 22.9 55.84 23.81 55.04 24.27"/><polyline class="cls-12" points="55.84 25.62 55.04 25.16 54.27 25.6 54.27 26.52"/><polyline class="cls-12" points="52.7 25.62 53.5 25.16 53.5 24.27 52.7 23.81"/></g></g></svg>