<svg xmlns="http://www.w3.org/2000/svg" viewBox="0 0 65.33 48"><defs><style>.cls-1{fill:#f070aa;}</style></defs><title>call</title><g id="Layer_2" data-name="Layer 2"><g id="Layer_1-2" data-name="Layer 1"><path class="cls-1" d="M56.77,0H8.57C4.69,0,0,13,0,13c0,.75.62,1,1.37,1h9.11c.75,0,1.37-.28,1.37-1,0,0-1.73-5-1.77-7H55.26c0,2-1.77,6.72-1.77,6.72A1.3,1.3,0,0,0,54.86,14H64c.75,0,1.37-.28,1.37-1C65.33,13,60.64,0,56.77,0Z"/><path class="cls-1" d="M32.67,15.54a13.4,13.4,0,1,0,13.4,13.4A13.42,13.42,0,0,0,32.67,15.54Z"/><path class="cls-1" d="M62,44.59,49.73,11.75A2.59,2.59,0,0,0,47.48,10H46.17V7.54c0-.36.11-.54-.25-.54H41.35c-.36,0-.18.18-.18.54V10h-17V7.54c0-.36,0-.54-.4-.54H19.2c-.36,0-1,.18-1,.54V10h-.31a2.5,2.5,0,0,0-2.25,1.67L3.37,44.54A2.58,2.58,0,0,0,5.62,48H59.71A2.53,2.53,0,0,0,62,44.59Zm-29.3-1.25a14.4,14.4,0,1,1,14.4-14.4A14.42,14.42,0,0,1,32.67,43.35Z"/></g></g></svg>