<svg xmlns="http://www.w3.org/2000/svg" viewBox="0 0 55.93 61.46"><defs><style>.cls-1,.cls-2{fill:#f070aa;}.cls-2{stroke:#fff;stroke-miterlimit:10;}</style></defs><title>insta</title><g id="Layer_2" data-name="Layer 2"><g id="Layer_1-2" data-name="Layer 1"><path class="cls-1" d="M51.62,5.53H4.31A4.31,4.31,0,0,0,0,9.84V57.16a4.31,4.31,0,0,0,4.31,4.31H51.62a4.31,4.31,0,0,0,4.31-4.31V9.84A4.31,4.31,0,0,0,51.62,5.53Zm2.82,50.61a4.08,4.08,0,0,1-4.08,4.08H5.57a4.08,4.08,0,0,1-4.08-4.08V33.74h9.66c0-.44-.07-.89-.07-1.34a16.88,16.88,0,0,1,33.77,0c0,.45,0,.9-.07,1.34h9.66Z"/><path class="cls-1" d="M40.56,0V7.29h7.29V0Zm5.34,5.33H42.51v-.5h3.39Zm0-1.43H42.51v-.5h3.39Zm0-1.61H42.51v-.5h3.39Z"/><path class="cls-2" d="M6,2.1h4.22a1.49,1.49,0,0,1,1.49,1.49V5a0,0,0,0,1,0,0H4.52a0,0,0,0,1,0,0V3.59A1.49,1.49,0,0,1,6,2.1Z"/><path class="cls-1" d="M28,16.16A16.23,16.23,0,1,0,44.2,32.4,16.23,16.23,0,0,0,28,16.16Zm0,30.72A14.49,14.49,0,1,1,42.45,32.4,14.49,14.49,0,0,1,28,46.88Z"/></g></g></svg>