<svg xmlns="http://www.w3.org/2000/svg" viewBox="0 0 412 412"><defs><style>.cls-1{fill:#f070aa;}</style></defs><title>twit</title><g id="Layer_2" data-name="Layer 2"><g id="Layer_1-2" data-name="Layer 1"><path id="twitter-4-icon" class="cls-1" d="M206,0C92.23,0,0,92.23,0,206S92.23,412,206,412s206-92.23,206-206S319.77,0,206,0ZM309.6,170.51c3,67.2-47.1,142.12-135.8,142.12a135.23,135.23,0,0,1-73.24-21.47,96.09,96.09,0,0,0,70.73-19.79,47.82,47.82,0,0,1-44.63-33.18,47.86,47.86,0,0,0,21.57-.82c-23-4.62-38.84-25.32-38.32-47.45a47.57,47.57,0,0,0,21.64,6,47.83,47.83,0,0,1-14.79-63.79A135.64,135.64,0,0,0,215.25,182a47.81,47.81,0,0,1,81.42-43.58A95.69,95.69,0,0,0,327,126.86a47.92,47.92,0,0,1-21,26.43,95.41,95.41,0,0,0,27.44-7.52A97,97,0,0,1,309.6,170.51Z"/></g></g></svg>