<svg xmlns="http://www.w3.org/2000/svg" viewBox="0 0 1177.59 258.95"><defs><style>.cls-1{fill:none;stroke:#e7677c;}.cls-1,.cls-2{stroke-miterlimit:10;stroke-width:0.75px;}.cls-2{fill:#e7677c;stroke:#a51e22;}</style></defs><title>eis-brand</title><g id="Layer_2" data-name="Layer 2"><g id="Logo_Proof_copy" data-name="Logo Proof copy"><g id="Brand_Name" data-name="Brand Name"><line class="cls-1" x1="1.32" y1="144.91" x2="1173.53" y2="144.91"/><path class="cls-2" d="M97.38,100,96,102.07c-3.93,6.71-11.11,12.27-21.53,16.2a75.14,75.14,0,0,1-27.08,5.32,61.46,61.46,0,0,1-18.29-2.78C16.83,116.89,11.27,111.1,12,103.46q1.74-8,11.81-14.58Q53.29,70.13,91.13,65.27c13.89,1.39,21.06-1.39,21.76-8.56l-1.85.23a127.75,127.75,0,0,1-14.81,1.39,17.75,17.75,0,0,1-11.81-3.94c-4.17-2.78-6.25-6.25-6.25-10.18,0-4.63,2.78-9.49,8.33-14.35a34.83,34.83,0,0,0,6,2.78c10,3.47,18.29,5.09,25,5.09,10.65,0,18.75-3,24.31-9.26,2.08-2.08,2.31-6.71,1.16-13.89S135.58,3.7,124.47,3.93C111.5,4.16,99,8.56,87.2,16.66l-3.94,2.55c-7.18-2.31-10.42-5.79-9.49-10.42.69-3,2.55-4.63,5.56-4.63,3.47,0,5.79,1.39,6.94,4.4C87.43,3.7,84.65.92,78.17.46,71.46-.24,68,3.47,68,11.34c0,3.47,1.62,6.94,4.86,10.18l3.47,2.55c-7.64,5.32-11.57,12.27-11.8,20.6-.23,6.48,1.85,11.34,6.71,14.81a82.64,82.64,0,0,0-12.5,1.62c-17.36,3.7-29.17,7.64-35.65,11.81C7.57,82.86-.07,94.2.39,107.17a27.1,27.1,0,0,0,4.86,15c9,12.27,23.15,18.29,42.13,18.29a71.2,71.2,0,0,0,26.85-5.32,59,59,0,0,0,10.88-5.79,31.33,31.33,0,0,0,12-17.36A68.26,68.26,0,0,0,99,101.84C98.54,100.92,98.08,100.22,97.38,100Zm11.81-82.64a71.38,71.38,0,0,1,24.07-3.47c3.47,0,5.09.46,5.32,1.62C136,22.22,127.94,25.92,114,26.15q-19.79.35-20.83-2.78C101.55,20.13,106.87,18,109.19,17.36Z"/><path class="cls-2" d="M162,80.55c4.63,0,9.26-3.24,13.66-10,1.62-2.55,2.55-4.86,2.55-6.71a2.93,2.93,0,0,0-3.24-3.24c-4.86,0-9.26,3.24-13.66,10-1.62,2.55-2.55,4.86-2.55,6.71A2.93,2.93,0,0,0,162,80.55Z"/><path class="cls-2" d="M202.24,66.2h0l-.09.16Z"/><path class="cls-2" d="M235.34,118.74a19.65,19.65,0,0,0-4.17,2.31c-8.33,4.86-15.28,6.94-21.06,6.48Q198,126.5,199,115c1.85,1.85,4.86,2.55,8.8,2.31,8.33-.69,15-4.63,20.37-11.57a24.83,24.83,0,0,0,4.17-9.49c1.16-6.71-2.31-12.5-8.8-14.12-5.09-1.16-10.88.7-17.13,5.56a55.87,55.87,0,0,0-13,13.66c-4.16,6.16-6.52,11.85-7.18,17.14a8.15,8.15,0,0,0-1.39.22c-2.08,1.16-5.32,2.78-9.72,5.32-4.86,2.78-8.1,3.7-9.72,3-.23,0,2.08-4.17,7.18-12.5L198.76,72h16a1.69,1.69,0,0,0,1.62-1.39l1.16-2.08c.46-.93.23-1.39-.46-1.39H201.68l.45-.76c-.25.37-.42.6-.51.76h-.07c.23-.67.45-.91.68-.92,3.52-6,5.59-9.59,5.81-11.12.23-1.16-.69-2.08-3-2.55-3-.46-5.32,0-6.71,1.39-2.31,2.32-5.32,6.71-8.8,13.19H179.09a2.17,2.17,0,0,0-1.85,1.39l-.93,2.08c-.46.93-.46,1.39.23,1.39H187L161,115c-.75,1.29-1.44,2.49-2.09,3.61l-.46.09L149,124.06c-4.86,2.78-8.1,3.7-10,3-.23,0,2.08-4.17,7.18-12.5,10.88-17.59,16.2-26.85,16.43-28s-.69-2.08-3-2.55c-3-.46-5.32,0-6.71,1.39a164.07,164.07,0,0,0-12,18.75L134.65,115l-2.15,4c-.27,0-.56.1-.86.17-1.16.46-4.4,1.85-9.26,4.4-6.25,3-10.65,4.4-13,3.7-.69-.23-.93-.46-.93-1.16s.93-2.55,2.55-5.55c12.73-9.49,24.54-24.31,35.88-44.44,5.79-10.42,9.72-20.6,11.57-31,1.16-6.48,0-9.72-3.94-9.72-5.32,0-12.73,7.87-22.68,23.61-.46.46-4.4,6.94-11.57,19.21a281.72,281.72,0,0,0-17.13,34.49c-3,6.71-4.4,10.42-4.63,10.65-1.62,4.86-1.85,8.33-.23,10.42,1.16,1.62,3.24,2.55,6.48,2.55,6.76,0,14.2-2.19,22.21-6.67-.68,3.91.25,6,3.25,6.21,6.48.69,13.89-1.16,22.45-6l.73-.41c0,.06,0,.13,0,.18-.69,3.94.23,6,3,6.25,6.71.69,14.12-1.16,22.68-6a43.26,43.26,0,0,0,7.27-4.81c1.33,8.21,7.31,12.21,18,11.75,10.19-.46,20.14-3.7,30.09-9.49,3.47-2.08,5.32-4.17,5.09-6.25C239.5,118.74,238.11,118,235.34,118.74ZM206.4,99.53c4.17-5.32,8.33-7.87,12.27-7.87q7.64,0,5.55,7.64v.23c-1.85,4.4-5.79,7.87-11.81,10.65a16.06,16.06,0,0,1-7.87,1.62c-2.55-.23-3.94-.69-4.17-1.85C200.15,108.33,202.23,104.85,206.4,99.53Zm-84.48-3.47c16.43-30.79,26.85-47.92,31-51.16a1.73,1.73,0,0,1,.23,1.16,46.36,46.36,0,0,1-1.85,7.18c-3,10.18-9.26,22-18.29,35.42-6.25,9.49-12.27,16.43-17.59,20.83A138.91,138.91,0,0,1,121.92,96.06Z"/><path class="cls-2" d="M376.3,62.72l-1.39.46c-.64,1-1.26,2-1.85,2.9C375.07,64.4,376.12,63.27,376.3,62.72Z"/><path class="cls-2" d="M408.25,43.74l11.57-19.21C425.61,15,428.15,9,427.46,6.94c-.46-1.39-1.39-1.85-3-1.39l-6.94,4.63a121.91,121.91,0,0,1-23.84,6c-13.19,2.08-21.29,3.7-24.07,4.4A67,67,0,0,0,343.9,33.33c-8.56,7.18-13,15.28-13,24.3,0,7.41,2.32,13,6.71,16.9a23.44,23.44,0,0,0,18.52,6c3.94-.46,7.64-2.78,11.57-7.18a61.31,61.31,0,0,0,5.32-7.29c-.55.46-1.15,1-1.85,1.5-4.63,3.94-9.26,5.79-14.12,5.79a15,15,0,0,1-6.71-1.62c-6-2.78-9-7.41-9-13.66A17.48,17.48,0,0,1,345.52,47c6.25-8.1,17.36-13.19,33.79-15.51l20.6-1.85-3.24,5.79C389,49.3,382.55,62,376.76,73.6c-9,14.81-14.81,23.84-17.13,27.31q-22.22,31.94-45.14,31.94-18.4,0-27.78-13.19A21.51,21.51,0,0,1,282.55,109C280.93,96.75,289,86.57,301.3,85.41c10-1.16,18.52,4.4,25.23,16.67a11,11,0,0,0,.93-4.63c0-4.4-2.08-8.8-6.25-13-3.47-3.47-6.71-5.56-9.49-6A29.27,29.27,0,0,0,299,77.08a26.81,26.81,0,0,0-11.11,3.24Q271.56,89,274,108.79a29.71,29.71,0,0,0,6,14.81c.69,3.24,4.63,6.71,12,10.65q9.38,4.86,16,6.25a48.67,48.67,0,0,0,23.15-.93c10.88-3.24,21.53-11.34,32.18-24.07,6.25-7.64,14.12-19,23.15-34.26Z"/><path class="cls-2" d="M627.91,118.74a19.65,19.65,0,0,0-4.17,2.31c-8.33,4.86-15.28,6.94-21.06,6.48q-12.15-1-11.11-12.5c1.85,1.85,4.86,2.55,8.8,2.31,8.33-.69,15-4.63,20.37-11.57a24.83,24.83,0,0,0,4.17-9.49c1.16-6.71-2.31-12.5-8.8-14.12C611,81,605.23,82.86,599,87.72a55.87,55.87,0,0,0-13,13.66c-4.35,6.43-6.73,12.34-7.26,17.83-10,6-16.67,9.26-20.05,9.49l6.94-11.57,10.88-17.36c3.94-6.48,6.25-10.65,6.48-12.27.23-1.16-.93-2.08-3-2.55-3-.46-5.09,0-6.71,1.62a65.33,65.33,0,0,0-6.71,9c.23-9.26-3.7-13.89-11.57-13.89-5.79,0-12,3.7-19.21,11.11-8.75,9.32-13.43,18-14.18,26.35l-8.74,4.9c-4.86,2.78-8.1,3.7-9.72,3-.23,0,2.08-4.17,7.18-12.5,10-16.43,15.28-25.46,15.51-27.08.23-1.39-.69-2.32-2.78-2.55-3.24-.7-6,.46-8.33,3-.92.93-2.55,3.47-5.09,7.87q.35-13.89-11.11-13.89c-6.25,0-13,3.7-19.91,10.88-8.76,9-13.44,17.74-14.05,26.25-2.89,1.69-10.07,5.94-12.8,7.08a5.61,5.61,0,0,1-2.55.93c-.46,0-.69-.23-.69-.46,0-.69.93-2.31,2.55-4.63,3.93-5.32,6.48-9,7.87-11.34,4.4-6.94,6.48-13,6.71-17.82q.35-11.11-9-11.11c-6.48,0-13.66,3.7-21.53,11.34,0-7.41-2.78-11.11-8.56-11.11-4.17,0-8.8,1.62-13.89,5.09-2.08,1.39-3.47,2.55-4.4,3.24A23.57,23.57,0,0,0,411,84.48c.23-1.39-.69-2.32-2.78-2.55q-4.86-1-6.94,1.39c-2.08,2.31-6,8.56-11.81,18.52L381.63,115l-.93,1.62-9,15.28c-.93,1.85-1.16,3-.69,3.7q.35.69,2.08.69c6.71.93,7.64-1.16,11.11-6.48l2.31-4.17,3.47-5.56c2.78-4.63,4.63-7.87,5.79-9.49a49.29,49.29,0,0,1,3.7-5.79,43.09,43.09,0,0,1,9.26-9q8-5.56,11.11-2.78c1.39,1.16,1.85,3.47,1.16,6.71-.23,1.62-1.39,4.63-3,8.56-5.56,8.8-10.19,16.67-14.12,23.61-.93,1.62-1.16,3-.69,3.94a5.08,5.08,0,0,0,2.08.69c3,.23,5.32,0,6.94-1.16q1.39-1,4.17-5.56l11.11-19.21c4.86-7.64,9.72-13.19,14.58-16.2q6.25-3.82,9-1.39c1.16,1.16,1.62,3.47.93,6.71s-4.4,9.49-11.11,18.52q-9.37,12.5-8.33,16c.69,2.78,5.09,3.24,12.73,1.62,9.54-3.89,16.12-7.13,19.77-9.58,1.44,6.69,5.06,10,11.25,10,4.63,0,9.49-2.31,14.81-6.71-.69,3.94.23,6,3,6.25,6.71.69,14.35-1.16,22.92-6a56.2,56.2,0,0,0,5-3.2q2.29,9.67,11.39,9.68c3.47,0,7.41-1.39,11.81-4.4l-1.39,2.31c-14.58,6.25-22.22,14.12-28.7,25.93-3.7,6.71-5.55,12.73-5.55,17.82,0,5.32,1.62,8.33,4.63,9s6.48-.93,10.42-5.32l5.79-6.94a56.32,56.32,0,0,1,3.94-6.25c2.78-3.93,3.94-6,5.79-9l12.73-21.3c3.94-1.16,9.26-3,15.51-5.56a66.76,66.76,0,0,0,10.83-6c1.81,7.16,7.69,10.62,17.64,10.2,10.18-.46,20.14-3.7,30.09-9.49,3.47-2.08,5.32-4.17,5.09-6.25C632.08,118.74,630.69,118,627.91,118.74ZM599,99.53c4.17-5.32,8.33-7.87,12.27-7.87q7.64,0,5.55,7.64v.23C615,103.93,611,107.4,605,110.18a16.06,16.06,0,0,1-7.87,1.62c-2.55-.23-3.94-.69-4.17-1.85C592.73,108.33,594.81,104.85,599,99.53ZM498.75,115l-2.31,4.4c-3.94,4.63-7.87,6.94-11.57,6.94-5.09,0-7.64-3.24-7.64-9.49,0-4.86,2.08-10.42,6.25-16.2,4.4-6,8.8-9,13.66-9q5.21,0,6.25,5.56a18.92,18.92,0,0,1-.23,9.49c-.23.23-.23.7-.46,1.16Zm36.57,33.8-7.87,13c-6,10.19-10.19,15.74-12.73,16.67-.46.23-.69,0-.92-.69a5.55,5.55,0,0,1,0-2.78,38.18,38.18,0,0,1,8.56-18.75,45.44,45.44,0,0,1,16-13Zm16-27.08c-3,3-6,4.63-9.26,4.63-5.09,0-7.64-3.24-7.64-9.49,0-4.86,2.08-10.19,6.25-16.2,4.4-6,8.8-9,13.43-9A6.25,6.25,0,0,1,559.17,94c2.08,3,2.55,7.18.93,12.5A36.61,36.61,0,0,1,551.3,121.75Z"/><path class="cls-2" d="M857.3,52.54c-3-.46-5.32,0-6.71,1.39-4.86,7.18-8.8,13.19-11.81,18.52L823.5,97.91c1.16-10.65-2.55-16-10.88-16-6.25,0-13,3.7-19.91,10.88-8.89,9.08-13.57,18-14.07,26.62-9.38,5-14.41,7.63-14.63,7.63-.46,0-.69-.23-.69-.46,0-.92.69-2.55,2.31-4.63l8.1-11.34c4.17-6.94,6.48-13,6.71-17.82q.35-11.11-9-11.11-6.25,0-15.28,6.25a17.86,17.86,0,0,0,1.39-3.47c.23-1.39-.69-2.32-2.78-2.55q-4.86-1-6.94,1.39c-2.08,2.31-6,8.56-11.81,18.52L728.14,115l-.93,1.62-1.09,1.84a9.07,9.07,0,0,0-1.69.24l-9.49,5.32c-4.86,2.78-8.1,3.7-9.72,3-.23,0,2.08-4.17,7.18-12.5,10-16.43,15.28-25.46,15.51-27.08.23-1.39-.69-2.32-2.78-2.55-3.24-.7-6,.46-8.33,3-.93.93-2.55,3.47-5.09,7.87q.35-13.89-11.11-13.89c-6.25,0-13,3.7-19.91,10.88C670,103.7,665.41,114.34,666.8,124.53c1.16,7.87,4.86,11.81,11.57,11.81,4.63,0,9.49-2.31,14.81-6.71-.69,3.94.23,6,3,6.25,6.71.69,14.35-1.16,22.92-6l.46-.27-1.39,2.35c-.93,1.85-1.16,3-.69,3.7q.35.69,2.08.69c6.71.93,7.64-1.16,11.11-6.48l2.31-4.17,3.47-5.56c5.56-9,9-14.81,10.65-17.13q9.37-11.11,16-11.11c3.47,0,4.63,2.55,3.7,7.87-.69,3.24-4.4,9.49-11.11,18.52q-9.38,12.15-8.33,16c.69,2.78,4.86,3.24,12.73,1.62,9-3.57,15.45-6.68,19.16-9.21,1.49,6.44,5.09,9.68,11.17,9.68,4.86,0,10-2.31,15.28-7.18v.46c-.69,3.94.23,6,3,6.25,6.71.69,14.35-1.16,22.92-6,6.48-3.7,9.72-6.71,9.72-8.8-.46-2.08-1.85-3-4.4-2.31l-9.49,5.32c-4.86,2.78-8.1,3.7-9.72,3-.23,0,2.08-4.17,7.18-12.5l28.93-47.22c3.94-6.48,6.25-10.65,6.48-12.27C860.54,53.93,859.61,53,857.3,52.54ZM700.83,115l-2.31,4.4c-3.94,4.63-7.87,6.94-11.57,6.94-5.09,0-7.64-3.24-7.64-9.49,0-4.86,2.08-10.42,6.25-16.2,4.4-6,8.8-9,13.66-9q5.21,0,6.25,5.56a18.91,18.91,0,0,1-.23,9.49c-.23.23-.23.7-.46,1.16Zm116.43-8.33a74.6,74.6,0,0,1-3.94,8.33l-1.16,2.08c-4.4,6.25-8.8,9.26-13.19,9.26-5.09,0-7.64-3.24-7.64-9.49,0-4.86,2.08-10.42,6.25-16.2,4.4-6,8.8-9,13.66-9q5.21,0,6.25,5.56A18.92,18.92,0,0,1,817.25,106.7Z"/><path class="cls-2" d="M991.78,72l-21.53-24.3a22.93,22.93,0,0,1-5.79-15.28c0-12.73,11.11-22,23.84-22.22a36.39,36.39,0,0,1,7.64.23,18.87,18.87,0,0,1,9.72,4.4c3.24,2.55,4.63,5.79,4.17,9.26-.46,4.4-3.47,9.26-9.26,14.81a25.82,25.82,0,0,0-3.93,4.63c-.7,2.78,1.85,9.49,3.93,11.57,5.09-5.32,9.72-9.72,13.66-13.19,6.94-5.79,10.42-10.65,10.65-14.81a17.17,17.17,0,0,0-6.48-14.35c-7.41-6.48-17.82-9.49-31-9-15,.46-25.93,5.09-32.87,13.66-4.86,6.25-7.41,12.73-7.41,19.67,0,4.63,1.39,9.49,4.4,14.81,6.71,9.26,13.19,17.36,19,24.07,8.56,10,13,18.52,13,25.69a19.73,19.73,0,0,1-1.85,8.1c-8.1,17.82-23.84,26.62-47.22,26.62-2.78,0-5.79-.23-8.8-.46-20.14-2.08-31-9-32.87-20.83a23.48,23.48,0,0,1,2.78-14.81c7.18-12.73,19.91-18.52,37.73-17.36,7.64.46,12.73,2.78,15.51,7.18a6.77,6.77,0,0,1,.46,2.08c0,3-1.62,5.79-4.86,8.8a15.25,15.25,0,0,0,3.24.23,21,21,0,0,0,8.56-2.08c5.32-2.31,8.1-5.55,8.1-9.49,0-5.32-3.24-9.26-9.49-12a40.81,40.81,0,0,0-16.44-3.24,76.42,76.42,0,0,0-44.44,13c-11.81,7.87-17.59,16.67-17.59,26.39a45.08,45.08,0,0,0,.46,5.32q3.12,13.2,22.22,19.44A101.39,101.39,0,0,0,930,143c19.21,0,35.88-3.47,50-10.65,16.9-8.56,25.23-19.21,25.23-31.94C1005.21,92.12,1000.81,82.63,991.78,72Z"/><path class="cls-2" d="M1053.35,66.2h0l-.09.16Z"/><path class="cls-2" d="M1173,118.74a19.64,19.64,0,0,0-4.17,2.31c-8.33,4.86-15.28,6.94-21.06,6.48q-12.15-1-11.11-12.5c1.85,1.85,4.86,2.55,8.8,2.31,8.33-.69,15-4.63,20.37-11.57a24.83,24.83,0,0,0,4.17-9.49c1.16-6.71-2.31-12.5-8.8-14.12-5.09-1.16-10.88.7-17.13,5.56a55.88,55.88,0,0,0-13,13.66c-4.43,6.56-6.82,12.58-7.28,18.16-1.54.65-4.43,2-8.46,4.06-6.25,3-10.65,4.4-13,3.7-.69-.23-.93-.46-.93-1.16s.93-2.55,2.55-5.55c12.73-9.49,24.54-24.31,35.88-44.44,5.79-10.42,9.72-20.6,11.57-31,1.16-6.48,0-9.72-3.94-9.72-5.32,0-12.73,7.87-22.68,23.61-.46.46-4.4,6.94-11.57,19.21a281.65,281.65,0,0,0-17.13,34.49c-1.23,2.73-2.18,5-2.9,6.66-8.27,5.15-14.64,8.2-18.86,9.31l16.9-27.78c3.47-5.56,5.56-9.49,6.25-11.57a8.3,8.3,0,0,0,.93-2.55c.23-1.39-.7-2.31-2.78-2.55q-5.56-1-6.94,1.39c-6.25,10-11.11,18.29-15,24.77a39,39,0,0,1-4.63,5.79,50.71,50.71,0,0,1-10.18,7.18c-4.86,2.55-8.56,3.94-11.11,3.94a6.39,6.39,0,0,1-2.08-.23,134,134,0,0,1,7.18-12.5c10.65-16.67,16.2-26.16,16.67-28.24.46-1.85-.93-2.78-4.4-2.78-2.78,0-4.63.46-5.32,1.62-9.07,14.34-16,25.6-20.68,33.62a4.39,4.39,0,0,0-3.16-.05c-2.08,1.16-5.32,2.78-9.72,5.32-4.86,2.78-8.1,3.7-9.72,3-.23,0,2.08-4.17,7.18-12.5L1049.88,72h16a1.69,1.69,0,0,0,1.62-1.39l1.16-2.08c.46-.93.23-1.39-.46-1.39H1052.8l.45-.76c-.25.37-.42.6-.51.76h-.07c.23-.67.45-.91.68-.92,3.52-6,5.59-9.59,5.81-11.12.23-1.16-.69-2.08-3-2.55-3-.46-5.32,0-6.71,1.39-2.31,2.32-5.32,6.71-8.8,13.19h-10.42a2.17,2.17,0,0,0-1.85,1.39l-.93,2.08c-.46.93-.46,1.39.23,1.39h10.42L1012.15,115q-7.29,12.5-7.64,14.58c-.69,3.94.23,6,3,6.25,6.71.69,14.12-1.16,22.68-6q2.54-1.4,4.41-2.66a21.14,21.14,0,0,0-1.17,3.12c-.93,3.24.23,5.09,3.24,5.56a27.72,27.72,0,0,0,8.56-.46c7.41-1.39,13.43-3.7,17.82-7.18l-3.7,6c-14.12,6.25-21.76,13.89-28.47,25.93-3.7,6.94-5.55,13-5.55,17.82,0,5.32,1.62,8.33,4.63,9,3.93,1.16,9.49-3.24,16.67-13,1.16-1.62,5.32-8.1,12-19.44L1068.86,138a115,115,0,0,0,21.4-8.91,6.66,6.66,0,0,0,1,4.74c1.16,1.62,3.24,2.55,6.48,2.55,8,0,16.94-3.07,26.67-9.36,1.92,6.9,7.76,10.23,17.54,9.82,10.19-.46,20.14-3.7,30.09-9.49,3.47-2.08,5.32-4.17,5.09-6.25C1177.19,118.74,1175.8,118,1173,118.74Zm-28.93-19.21c4.17-5.32,8.33-7.87,12.27-7.87q7.64,0,5.55,7.64v.23c-1.85,4.4-5.79,7.87-11.8,10.65a16.06,16.06,0,0,1-7.87,1.62c-2.55-.23-3.94-.69-4.17-1.85C1137.84,108.33,1139.92,104.85,1144.09,99.53Zm-29.17-3.47c16.44-30.79,26.85-47.92,31-51.16a1.73,1.73,0,0,1,.23,1.16,46.44,46.44,0,0,1-1.85,7.18c-3,10.18-9.26,22-18.29,35.42-6.25,9.49-12.27,16.43-17.59,20.83A139.1,139.1,0,0,1,1114.93,96.06ZM1051,148.83a195.79,195.79,0,0,1-13.42,21.53c-3.24,4.86-5.56,7.41-7.18,8.1-.46.23-.7,0-.93-.46a6.07,6.07,0,0,1,0-3c2.08-13,12.5-25.93,24.54-31.71Z"/><path class="cls-2" d="M78,244.47q-12.4-14.1-12.4-34.1T78,176.11Q90.27,162,107.79,162q14.42,0,24.33,7.75a32,32,0,0,1,12.24,20.46h-6.2q-1.71-9.61-10.39-16a32.53,32.53,0,0,0-20-6.36q-14.88,0-25.42,12.4-10.54,12.55-10.54,30.07t10.54,30.07q10.54,12.4,25.42,12.4,12.71,0,20.93-7.44,8.37-7.44,9.45-19.84h6.2q-1.24,15-11.31,24-9.92,9-25.26,9Q90.27,258.57,78,244.47Z"/><path class="cls-2" d="M198.12,244.47Q187,231.6,187,210.37q0-22,11.16-35.18T227.88,162q18.6,0,29.76,13.18t11.16,35.18q0,21.24-11.16,34.1t-29.76,12.86Q209.28,257.33,198.12,244.47Zm55-4.18q9.45-11.16,9.46-29.92,0-19.22-9.46-30.84T227.88,167.9q-15.81,0-25.27,11.63t-9.45,30.84q0,18.76,9.45,29.92,9.45,11.32,25.27,11.31T253.14,240.28Z"/><path class="cls-2" d="M318.36,256.25V164.33h8.52l55.49,84.32V164.33h6.2v91.91h-8.52l-55.49-83.08v83.08Z"/><path class="cls-2" d="M446.51,249.58A28.37,28.37,0,0,1,437.06,228h6.2a23.4,23.4,0,0,0,7.59,17.51,25.46,25.46,0,0,0,18.29,7.28q11.62,0,20-6.2,8.21-6.2,8.22-15,0-7.59-7.29-12.71-7.13-5.12-19.22-6.2-14.73-1.24-23.56-8.37t-8.84-17.51q0-10.23,9-17.51t21.7-7.29q13.64,0,23.4,7.59,9.61,7.6,9.61,18.29H496q0-8.21-7.9-14.11-7.75-5.89-18.91-5.89a27.71,27.71,0,0,0-17.36,5.58q-7.13,5.43-7.13,13.33t7.44,13q7.59,5.27,20,6.36,14.26,1.24,22.94,8.22,8.52,7,8.52,17.2,0,11.16-10.07,19.07t-24.33,7.9A31.34,31.34,0,0,1,446.51,249.58Z"/><path class="cls-2" d="M560.56,249.27q-10.08-9.3-10.07-22.48V164.33h6.2V226.8a24,24,0,0,0,8.37,18.44,28.38,28.38,0,0,0,20,7.59,27.05,27.05,0,0,0,19.22-7.59,24.62,24.62,0,0,0,7.91-18.44V164.33h6.2V226.8a29.9,29.9,0,0,1-9.77,22.48,32.93,32.93,0,0,1-23.56,9.3A35.15,35.15,0,0,1,560.56,249.27Z"/><path class="cls-2" d="M671.35,164.33h6.2v86H727v5.89H671.35Z"/><path class="cls-2" d="M794.38,256.25V170.38H762.92v-6h69.44v6H800.58v85.87Z"/><path class="cls-2" d="M877.58,256.25V164.33h6.2v91.91Z"/><path class="cls-2" d="M938.31,256.25V164.33h8.52l55.49,84.32V164.33h6.2v91.91H1000l-55.49-83.08v83.08Z"/><path class="cls-2" d="M1070.34,244.47q-12.71-14.1-12.71-34.1t12.71-34.25Q1083.2,162,1101.18,162a38.1,38.1,0,0,1,24,8.06,31.58,31.58,0,0,1,12.56,20.15h-6.2q-1.71-9.61-10.39-16a32.53,32.53,0,0,0-20-6.36q-15.5,0-26.35,12.4-11,12.55-11,30.07t11,30.07q10.85,12.4,26.35,12.4,13.17,0,22.47-10.07a34,34,0,0,0,9.3-24.18v-2.32h-31.77v-5.89h36.58v45.88H1133V237.34a29.77,29.77,0,0,1-12.25,15.34,34,34,0,0,1-19.53,5.89Q1083.2,258.57,1070.34,244.47Z"/></g></g></g></svg>