<svg xmlns="http://www.w3.org/2000/svg" viewBox="0 0 161.58 170.01"><defs><style>.cls-1{fill:#f9ef66;}.cls-2{fill:#a41e21;}.cls-3{fill:#f16162;}</style></defs><title>wand</title><g id="Layer_2" data-name="Layer 2"><g id="Logo_Proof_For_Business_Card_copy" data-name="Logo Proof For Business Card copy"><g id="LOGO_PROOF_SANS_BRAND_NAME" data-name="LOGO PROOF SANS BRAND NAME"><g id="Wand"><g id="Wand-2" data-name="Wand"><path d="M18.93,3,38,16a2.44,2.44,0,0,0,2.92-.14L59.35,1a2.44,2.44,0,0,1,3.87,2.65L56.51,26.58a2.51,2.51,0,0,0,1,2.79l19,13A2.58,2.58,0,0,1,75.13,47L52,48.19a2.58,2.58,0,0,0-2.32,1.87L42.92,73a2.47,2.47,0,0,1-4.72.23L30.59,51a2.4,2.4,0,0,0-2.39-1.64L5,50.53A2.51,2.51,0,0,1,3.47,46L21.94,31.14a2.63,2.63,0,0,0,.84-2.88L15.17,6.06A2.55,2.55,0,0,1,18.93,3Z"/></g><path class="cls-1" d="M154.62,169.76a6.08,6.08,0,0,1-4.89-2.44L25.79,24.78a.25.25,0,0,1,.37-.34c22.58,22.83,135.2,136.81,135.17,138.61a6.72,6.72,0,0,1-6.71,6.7Z"/><path class="cls-2" d="M26,24.62s135.13,136.65,135.1,138.43a6.5,6.5,0,0,1-6.46,6.46,5.84,5.84,0,0,1-4.69-2.34L26,24.62m0-.5a.5.5,0,0,0-.38.83L149.55,167.5a6.31,6.31,0,0,0,5.07,2.51,7,7,0,0,0,7-7c0-.46,0-1.33-67.68-70.25-33.39-34-67.22-68.21-67.56-68.55a.5.5,0,0,0-.36-.15Z"/><path class="cls-1" d="M39,75.88a2.84,2.84,0,0,1-2.74-2L28.64,51.71a1.91,1.91,0,0,0-1.8-1.3L3.56,51.56H3.41a2.83,2.83,0,0,1-2.72-2,3.08,3.08,0,0,1,1-3.46L20.15,31.29A2.12,2.12,0,0,0,20.84,29L13.22,6.77a3.11,3.11,0,0,1,2.89-4.11,2.88,2.88,0,0,1,1.63.51l19,13a1.88,1.88,0,0,0,1.06.33A2,2,0,0,0,39.09,16L57.56,1.18a2.91,2.91,0,0,1,4.21.51,3,3,0,0,1,.45,2.67L55.51,27.26a2,2,0,0,0,.76,2.24l19,13a3,3,0,0,1,1.16,3.31,3,3,0,0,1-2.79,2.26L50.5,49.23a2.08,2.08,0,0,0-1.87,1.51L41.92,73.65A3,3,0,0,1,39,75.88Z"/><path class="cls-3" d="M59.43,1a2.46,2.46,0,0,1,2.32,3.22L55,27.12a2.51,2.51,0,0,0,1,2.79l19,13a2.58,2.58,0,0,1-1.37,4.66L50.48,48.73a2.58,2.58,0,0,0-2.32,1.87L41.44,73.51A2.53,2.53,0,0,1,39,75.38a2.35,2.35,0,0,1-2.27-1.64L29.11,51.55a2.4,2.4,0,0,0-2.27-1.64h-.12L3.54,51.06H3.4A2.52,2.52,0,0,1,2,46.55L20.46,31.68a2.63,2.63,0,0,0,.84-2.88L13.69,6.6a2.61,2.61,0,0,1,2.42-3.45,2.36,2.36,0,0,1,1.34.43l19,13a2.38,2.38,0,0,0,1.35.42,2.5,2.5,0,0,0,1.57-.56L57.87,1.57A2.46,2.46,0,0,1,59.43,1m0-1a3.46,3.46,0,0,0-2.18.79L38.77,15.66a1.51,1.51,0,0,1-.94.34,1.38,1.38,0,0,1-.78-.24l-19-13a3.38,3.38,0,0,0-1.91-.6,3.61,3.61,0,0,0-3.36,4.78l7.61,22.19a1.62,1.62,0,0,1-.53,1.78L1.36,45.77a3.57,3.57,0,0,0-1.15,4,3.36,3.36,0,0,0,3.2,2.29h.18l23.18-1.15h.07a1.39,1.39,0,0,1,1.33,1l7.61,22.19A3.37,3.37,0,0,0,39,76.38a3.55,3.55,0,0,0,3.41-2.59l6.71-22.91a1.58,1.58,0,0,1,1.41-1.15l23.18-1.15A3.53,3.53,0,0,0,77,46a3.46,3.46,0,0,0-1.36-3.86l-19-13A1.51,1.51,0,0,1,56,27.41L62.71,4.5a3.5,3.5,0,0,0-.53-3.11A3.46,3.46,0,0,0,59.43,0Z"/></g></g></g></g></svg>